<svg width="20" height="20" viewBox="0 0 20 20" fill="none" xmlns="http://www.w3.org/2000/svg">
<path fill-rule="evenodd" clip-rule="evenodd" d="M3.125 17.5H10.9375V18.75H3.125C2.79348 18.75 2.47554 18.6183 2.24112 18.3839C2.0067 18.1495 1.875 17.8315 1.875 17.5V2.5C1.875 2.16848 2.0067 1.85054 2.24112 1.61612C2.47554 1.3817 2.79348 1.25 3.125 1.25H10.625V2.5H3.125V17.5ZM16.875 7.5V10.625H15.625V7.5H16.875ZM13.125 6.25H16.875L11.875 1.25V5C11.875 5.33152 12.0067 5.64946 12.2411 5.88388C12.4755 6.1183 12.7935 6.25 13.125 6.25ZM4.37499 5.9375V7.1875H8.74999V5.9375H4.37499ZM4.37499 13.4375H8.74999V14.6875H4.37499V13.4375ZM4.37499 9.6875V10.9375H11.875V9.6875H4.37499Z" fill="#686868"/>
<path fill-rule="evenodd" clip-rule="evenodd" d="M13.35 17.6497C13.8581 18.1577 14.5588 18.3966 15.2595 18.3185C15.4426 18.2983 15.6074 18.4301 15.6277 18.613C15.6482 18.7959 15.5164 18.9607 15.3334 18.9812C14.4333 19.0813 13.5316 18.774 12.8786 18.1209C11.7868 17.0293 11.7125 15.3052 12.6559 14.1274L12.4052 13.8766C12.2732 13.7448 12.321 13.6217 12.5055 13.5953L13.4876 13.4551C13.6691 13.4292 13.8 13.5569 13.7736 13.7413L13.6334 14.7233C13.6075 14.9049 13.4812 14.9525 13.3522 14.8237L13.131 14.6025C12.4459 15.5164 12.5188 16.8185 13.35 17.6497L13.35 17.6497ZM16.6496 14.3501C16.142 13.8425 15.4423 13.6037 14.7422 13.6809C14.5593 13.701 14.3945 13.569 14.3744 13.3861C14.3543 13.2032 14.4862 13.0384 14.6692 13.0182C15.5683 12.9191 16.4688 13.2264 17.121 13.8786C18.2127 14.9704 18.287 16.6946 17.3437 17.8723L17.5944 18.1232C17.7234 18.252 17.6757 18.3784 17.4941 18.4043L16.512 18.5447C16.3277 18.571 16.1999 18.4401 16.2258 18.2585L16.3662 17.2763C16.3926 17.0921 16.5156 17.0442 16.6474 17.176L16.8685 17.3972C17.5537 16.4834 17.4808 15.1811 16.6496 14.3501L16.6496 14.3501Z" fill="#686868" stroke="#686868" stroke-width="0.3"/>
</svg>
