<?xml version="1.0" encoding="UTF-8" standalone="no"?><svg xmlns="http://www.w3.org/2000/svg" xmlns:xlink="http://www.w3.org/1999/xlink" contentScriptType="application/ecmascript" contentStyleType="text/css" height="186px" preserveAspectRatio="none" style="width:652px;height:186px;background:#FFFFFF;" version="1.1" viewBox="0 0 652 186" width="652px" zoomAndPan="magnify"><defs><filter height="300%" id="f16pbbsp4vncde" width="300%" x="-1" y="-1"><feGaussianBlur result="blurOut" stdDeviation="2.0"/><feColorMatrix in="blurOut" result="blurOut2" type="matrix" values="0 0 0 0 0 0 0 0 0 0 0 0 0 0 0 0 0 0 .4 0"/><feOffset dx="4.0" dy="4.0" in="blurOut2" result="blurOut3"/><feBlend in="SourceGraphic" in2="blurOut3" mode="normal"/></filter></defs><g><!--MD5=[e8a28ab46df1e46f71c2ab960f1fa6a2]
class BasicLinkStrategy--><rect codeLine="3" fill="#FEFECE" filter="url(#f16pbbsp4vncde)" height="52.9551" id="BasicLinkStrategy" style="stroke:#A80036;stroke-width:1.5;" width="568" x="38.5" y="120"/><ellipse cx="269.25" cy="136" fill="#ADD1B2" rx="11" ry="11" style="stroke:#A80036;stroke-width:1.0;"/><path d="M271.7231,142.1431 Q271.1421,142.4419 270.5029,142.5913 Q269.8638,142.7407 269.1582,142.7407 Q266.6514,142.7407 265.3315,141.0889 Q264.0117,139.437 264.0117,136.3159 Q264.0117,133.1865 265.3315,131.5347 Q266.6514,129.8828 269.1582,129.8828 Q269.8638,129.8828 270.5112,130.0322 Q271.1587,130.1816 271.7231,130.4805 L271.7231,133.2031 Q271.0923,132.6221 270.4988,132.3523 Q269.9053,132.0825 269.2744,132.0825 Q267.9297,132.0825 267.2449,133.1492 Q266.5601,134.2158 266.5601,136.3159 Q266.5601,138.4077 267.2449,139.4744 Q267.9297,140.541 269.2744,140.541 Q269.9053,140.541 270.4988,140.2712 Q271.0923,140.0015 271.7231,139.4204 Z " fill="#000000"/><text fill="#000000" font-family="sans-serif" font-size="12" lengthAdjust="spacing" textLength="98" x="289.75" y="140.5352">BasicLinkStrategy</text><line style="stroke:#A80036;stroke-width:1.5;" x1="39.5" x2="605.5" y1="152" y2="152"/><ellipse cx="49.5" cy="163" fill="#84BE84" rx="3" ry="3" style="stroke:#038048;stroke-width:1.0;"/><text fill="#000000" font-family="sans-serif" font-size="11" lengthAdjust="spacing" textLength="542" x="58.5" y="166.6348">execute(_element: WorkflowElement&lt;ModdleElement&gt;, node: BpmnStatementNode) : ModdleElement[]</text><!--MD5=[d152fecd85031f2e2d4cf80c5b993ec7]
class LinkStrategy<ModdleElement>--><rect codeLine="6" fill="#FEFECE" filter="url(#f16pbbsp4vncde)" height="52.9551" id="LinkStrategy&lt;ModdleElement&gt;" style="stroke:#A80036;stroke-width:1.5;" width="631" x="7" y="7"/><ellipse cx="229.25" cy="23" fill="#B4A7E5" rx="11" ry="11" style="stroke:#A80036;stroke-width:1.0;"/><path d="M225.6777,19.2651 L225.6777,17.1069 L233.0571,17.1069 L233.0571,19.2651 L230.5918,19.2651 L230.5918,27.3418 L233.0571,27.3418 L233.0571,29.5 L225.6777,29.5 L225.6777,27.3418 L228.1431,27.3418 L228.1431,19.2651 Z " fill="#000000"/><text fill="#000000" font-family="sans-serif" font-size="12" font-style="italic" lengthAdjust="spacing" textLength="178" x="249.75" y="27.5352">LinkStrategy&lt;ModdleElement&gt;</text><line style="stroke:#A80036;stroke-width:1.5;" x1="8" x2="637" y1="39" y2="39"/><ellipse cx="18" cy="50" fill="#84BE84" rx="3" ry="3" style="stroke:#038048;stroke-width:1.0;"/><text fill="#000000" font-family="sans-serif" font-size="11" lengthAdjust="spacing" textLength="605" x="27" y="53.6348">execute(element: WorkflowElement&lt;ModdleElement&gt;, node: StatementNode&lt;ModdleElement&gt;) : ModdleElement[]</text><!--MD5=[3555952576970a84841e6a387fd675ac]
reverse link LinkStrategy<ModdleElement> to BasicLinkStrategy--><path codeLine="9" d="M322.5,80.34 C322.5,93.85 322.5,108.15 322.5,119.89 " fill="none" id="LinkStrategy&lt;ModdleElement&gt;-backto-BasicLinkStrategy" style="stroke:#A80036;stroke-width:1.0;stroke-dasharray:7.0,7.0;"/><polygon fill="none" points="315.5,80.24,322.5,60.24,329.5,80.24,315.5,80.24" style="stroke:#A80036;stroke-width:1.0;"/><!--MD5=[c6e435448df06411a9346c8d04dd3c6e]
@startuml
hide empty methods
hide empty fields
class "BasicLinkStrategy" {
    +execute(_element: WorkflowElement<ModdleElement>, node: BpmnStatementNode) : ModdleElement[]
}
interface "LinkStrategy<ModdleElement>" {
    +execute(element: WorkflowElement<ModdleElement>, node: StatementNode<ModdleElement>) : ModdleElement[]
}
"LinkStrategy<ModdleElement>" <|.. "BasicLinkStrategy"
@enduml

PlantUML version 1.2021.14(Fri Nov 12 22:16:50 IST 2021)
(GPL source distribution)
Java Runtime: OpenJDK Runtime Environment
JVM: OpenJDK 64-Bit Server VM
Default Encoding: UTF-8
Language: en
Country: IN
--></g></svg>