<?xml version="1.0" encoding="UTF-8" standalone="no"?><svg xmlns="http://www.w3.org/2000/svg" xmlns:xlink="http://www.w3.org/1999/xlink" contentScriptType="application/ecmascript" contentStyleType="text/css" height="473px" preserveAspectRatio="none" style="width:1063px;height:473px;background:#FFFFFF;" version="1.1" viewBox="0 0 1063 473" width="1063px" zoomAndPan="magnify"><defs><filter height="300%" id="f1nhxxm4cahw8s" width="300%" x="-1" y="-1"><feGaussianBlur result="blurOut" stdDeviation="2.0"/><feColorMatrix in="blurOut" result="blurOut2" type="matrix" values="0 0 0 0 0 0 0 0 0 0 0 0 0 0 0 0 0 0 .4 0"/><feOffset dx="4.0" dy="4.0" in="blurOut2" result="blurOut3"/><feBlend in="SourceGraphic" in2="blurOut3" mode="normal"/></filter></defs><g><!--MD5=[c9ceffc7778ce80a5b7e8e2cce9b54ed]
class BpmnEvent--><rect codeLine="3" fill="#FEFECE" filter="url(#f1nhxxm4cahw8s)" height="143.6406" id="BpmnEvent" style="stroke:#A80036;stroke-width:1.5;" width="365" x="379" y="91"/><ellipse cx="525.25" cy="107" fill="#A9DCDF" rx="11" ry="11" style="stroke:#A80036;stroke-width:1.0;"/><path d="M525.1133,102.3481 L523.9595,107.4199 L526.2754,107.4199 Z M523.6191,100.1069 L526.6157,100.1069 L529.9609,112.5 L527.5122,112.5 L526.7485,109.437 L523.4697,109.437 L522.7227,112.5 L520.2739,112.5 Z " fill="#000000"/><text fill="#000000" font-family="sans-serif" font-size="12" font-style="italic" lengthAdjust="spacing" textLength="64" x="545.75" y="111.5352">BpmnEvent</text><line style="stroke:#A80036;stroke-width:1.5;" x1="380" x2="743" y1="123" y2="123"/><ellipse cx="390" cy="134" rx="3" ry="3" style="stroke:#038048;stroke-width:1.0;fill:none;"/><text fill="#000000" font-family="sans-serif" font-size="11" lengthAdjust="spacing" textLength="339" x="399" y="137.6348">elements : Constructor&lt;WorkflowElement&lt;ModdleElement&gt;&gt;[]</text><ellipse cx="390" cy="146.9551" rx="3" ry="3" style="stroke:#038048;stroke-width:1.0;fill:none;"/><text fill="#000000" font-family="sans-serif" font-size="11" lengthAdjust="spacing" textLength="51" x="399" y="150.5898">id : string</text><ellipse cx="390" cy="159.9102" rx="3" ry="3" style="stroke:#038048;stroke-width:1.0;fill:none;"/><text fill="#000000" font-family="sans-serif" font-size="11" lengthAdjust="spacing" textLength="70" x="399" y="163.5449">name : string</text><ellipse cx="390" cy="172.8652" rx="3" ry="3" style="stroke:#038048;stroke-width:1.0;fill:none;"/><text fill="#000000" font-family="sans-serif" font-size="11" lengthAdjust="spacing" textLength="235" x="399" y="176.5">prompts : Constructor&lt;WorkflowPrompt&gt;[]</text><ellipse cx="390" cy="185.8203" rx="3" ry="3" style="stroke:#038048;stroke-width:1.0;fill:none;"/><text fill="#000000" font-family="sans-serif" font-size="11" lengthAdjust="spacing" textLength="177" x="399" y="189.4551">state : State&lt;RecordOfAnyType&gt;</text><ellipse cx="390" cy="198.7754" rx="3" ry="3" style="stroke:#038048;stroke-width:1.0;fill:none;"/><text fill="#000000" font-family="sans-serif" font-size="11" lengthAdjust="spacing" textLength="94" x="399" y="202.4102">statement : string</text><ellipse cx="390" cy="211.7305" rx="3" ry="3" style="stroke:#038048;stroke-width:1.0;fill:none;"/><text fill="#000000" font-family="sans-serif" font-size="11" lengthAdjust="spacing" textLength="89" x="399" y="215.3652">trigger : boolean</text><ellipse cx="390" cy="224.6855" rx="3" ry="3" style="stroke:#038048;stroke-width:1.0;fill:none;"/><text fill="#000000" font-family="sans-serif" font-size="11" lengthAdjust="spacing" textLength="92" x="399" y="228.3203">type : NodeTypes</text><!--MD5=[59bb07310ebeaaf19c0ccad30f51e11b]
class WorkflowEvent<ModdleElement>--><rect codeLine="13" fill="#FEFECE" filter="url(#f1nhxxm4cahw8s)" height="24.1328" id="WorkflowEvent&lt;ModdleElement&gt;" style="stroke:#A80036;stroke-width:1.5;" width="198" x="462.5" y="7"/><text fill="#000000" font-family="sans-serif" font-size="12" lengthAdjust="spacing" textLength="192" x="465.5" y="23.6016">WorkflowEvent&lt;ModdleElement&gt;</text><!--MD5=[09118b8e865e953a861def2268184359]
class OnChangeEvent--><rect codeLine="16" fill="#FEFECE" filter="url(#f1nhxxm4cahw8s)" height="164.5957" id="OnChangeEvent" style="stroke:#A80036;stroke-width:1.5;" width="571" x="7" y="295"/><ellipse cx="243.25" cy="311" fill="#ADD1B2" rx="11" ry="11" style="stroke:#A80036;stroke-width:1.0;"/><path d="M245.7231,317.1431 Q245.1421,317.4419 244.5029,317.5913 Q243.8638,317.7407 243.1582,317.7407 Q240.6514,317.7407 239.3315,316.0889 Q238.0117,314.437 238.0117,311.3159 Q238.0117,308.1865 239.3315,306.5347 Q240.6514,304.8828 243.1582,304.8828 Q243.8638,304.8828 244.5112,305.0322 Q245.1587,305.1816 245.7231,305.4805 L245.7231,308.2031 Q245.0923,307.6221 244.4988,307.3523 Q243.9053,307.0825 243.2744,307.0825 Q241.9297,307.0825 241.2449,308.1492 Q240.5601,309.2158 240.5601,311.3159 Q240.5601,313.4077 241.2449,314.4744 Q241.9297,315.541 243.2744,315.541 Q243.9053,315.541 244.4988,315.2712 Q245.0923,315.0015 245.7231,314.4204 Z " fill="#000000"/><text fill="#000000" font-family="sans-serif" font-size="12" lengthAdjust="spacing" textLength="90" x="263.75" y="315.5352">OnChangeEvent</text><line style="stroke:#A80036;stroke-width:1.5;" x1="8" x2="577" y1="327" y2="327"/><ellipse cx="18" cy="338" rx="3" ry="3" style="stroke:#038048;stroke-width:1.0;fill:none;"/><text fill="#000000" font-family="sans-serif" font-size="11" lengthAdjust="spacing" textLength="51" x="27" y="341.6348">id : string</text><ellipse cx="18" cy="350.9551" rx="3" ry="3" style="stroke:#038048;stroke-width:1.0;fill:none;"/><text fill="#000000" font-family="sans-serif" font-size="11" lengthAdjust="spacing" textLength="70" x="27" y="354.5898">name : string</text><ellipse cx="18" cy="363.9102" rx="3" ry="3" style="stroke:#038048;stroke-width:1.0;fill:none;"/><text fill="#000000" font-family="sans-serif" font-size="11" lengthAdjust="spacing" textLength="98" x="27" y="367.5449">properties : object</text><ellipse cx="18" cy="376.8652" rx="3" ry="3" style="stroke:#038048;stroke-width:1.0;fill:none;"/><text fill="#000000" font-family="sans-serif" font-size="11" lengthAdjust="spacing" textLength="177" x="27" y="380.5">state : State&lt;RecordOfAnyType&gt;</text><ellipse cx="18" cy="389.8203" rx="3" ry="3" style="stroke:#038048;stroke-width:1.0;fill:none;"/><text fill="#000000" font-family="sans-serif" font-size="11" lengthAdjust="spacing" textLength="94" x="27" y="393.4551">statement : string</text><ellipse cx="18" cy="402.7754" rx="3" ry="3" style="stroke:#038048;stroke-width:1.0;fill:none;"/><text fill="#000000" font-family="sans-serif" font-size="11" lengthAdjust="spacing" textLength="89" x="27" y="406.4102">trigger : boolean</text><ellipse cx="18" cy="415.7305" rx="3" ry="3" style="stroke:#038048;stroke-width:1.0;fill:none;"/><text fill="#000000" font-family="sans-serif" font-size="11" lengthAdjust="spacing" textLength="92" x="27" y="419.3652">type : NodeTypes</text><line style="stroke:#A80036;stroke-width:1.5;" x1="8" x2="577" y1="425.6855" y2="425.6855"/><ellipse cx="18" cy="436.6855" fill="#84BE84" rx="3" ry="3" style="stroke:#038048;stroke-width:1.0;"/><text fill="#000000" font-family="sans-serif" font-size="11" lengthAdjust="spacing" textLength="545" x="27" y="440.3203">elements : (typeof GatewayElement | typeof ReadColumnValue | typeof TriggerWhenColumnChanges)[]</text><ellipse cx="18" cy="449.6406" fill="#84BE84" rx="3" ry="3" style="stroke:#038048;stroke-width:1.0;"/><text fill="#000000" font-family="sans-serif" font-size="11" lengthAdjust="spacing" textLength="410" x="27" y="453.2754">prompts : (typeof ColumnInput | typeof ValueInput | typeof ConditionInput)[]</text><!--MD5=[a9a38630b98361258e22fffe274fc7b3]
class OnValueEvent--><rect codeLine="28" fill="#FEFECE" filter="url(#f1nhxxm4cahw8s)" height="164.5957" id="OnValueEvent" style="stroke:#A80036;stroke-width:1.5;" width="436" x="613.5" y="295"/><ellipse cx="787.75" cy="311" fill="#ADD1B2" rx="11" ry="11" style="stroke:#A80036;stroke-width:1.0;"/><path d="M790.2231,317.1431 Q789.6421,317.4419 789.0029,317.5913 Q788.3638,317.7407 787.6582,317.7407 Q785.1514,317.7407 783.8315,316.0889 Q782.5117,314.437 782.5117,311.3159 Q782.5117,308.1865 783.8315,306.5347 Q785.1514,304.8828 787.6582,304.8828 Q788.3638,304.8828 789.0112,305.0322 Q789.6587,305.1816 790.2231,305.4805 L790.2231,308.2031 Q789.5923,307.6221 788.9988,307.3523 Q788.4053,307.0825 787.7744,307.0825 Q786.4297,307.0825 785.7449,308.1492 Q785.0601,309.2158 785.0601,311.3159 Q785.0601,313.4077 785.7449,314.4744 Q786.4297,315.541 787.7744,315.541 Q788.4053,315.541 788.9988,315.2712 Q789.5923,315.0015 790.2231,314.4204 Z " fill="#000000"/><text fill="#000000" font-family="sans-serif" font-size="12" lengthAdjust="spacing" textLength="79" x="808.25" y="315.5352">OnValueEvent</text><line style="stroke:#A80036;stroke-width:1.5;" x1="614.5" x2="1048.5" y1="327" y2="327"/><ellipse cx="624.5" cy="338" rx="3" ry="3" style="stroke:#038048;stroke-width:1.0;fill:none;"/><text fill="#000000" font-family="sans-serif" font-size="11" lengthAdjust="spacing" textLength="51" x="633.5" y="341.6348">id : string</text><ellipse cx="624.5" cy="350.9551" rx="3" ry="3" style="stroke:#038048;stroke-width:1.0;fill:none;"/><text fill="#000000" font-family="sans-serif" font-size="11" lengthAdjust="spacing" textLength="70" x="633.5" y="354.5898">name : string</text><ellipse cx="624.5" cy="363.9102" rx="3" ry="3" style="stroke:#038048;stroke-width:1.0;fill:none;"/><text fill="#000000" font-family="sans-serif" font-size="11" lengthAdjust="spacing" textLength="98" x="633.5" y="367.5449">properties : object</text><ellipse cx="624.5" cy="376.8652" rx="3" ry="3" style="stroke:#038048;stroke-width:1.0;fill:none;"/><text fill="#000000" font-family="sans-serif" font-size="11" lengthAdjust="spacing" textLength="177" x="633.5" y="380.5">state : State&lt;RecordOfAnyType&gt;</text><ellipse cx="624.5" cy="389.8203" rx="3" ry="3" style="stroke:#038048;stroke-width:1.0;fill:none;"/><text fill="#000000" font-family="sans-serif" font-size="11" lengthAdjust="spacing" textLength="94" x="633.5" y="393.4551">statement : string</text><ellipse cx="624.5" cy="402.7754" rx="3" ry="3" style="stroke:#038048;stroke-width:1.0;fill:none;"/><text fill="#000000" font-family="sans-serif" font-size="11" lengthAdjust="spacing" textLength="89" x="633.5" y="406.4102">trigger : boolean</text><ellipse cx="624.5" cy="415.7305" rx="3" ry="3" style="stroke:#038048;stroke-width:1.0;fill:none;"/><text fill="#000000" font-family="sans-serif" font-size="11" lengthAdjust="spacing" textLength="92" x="633.5" y="419.3652">type : NodeTypes</text><line style="stroke:#A80036;stroke-width:1.5;" x1="614.5" x2="1048.5" y1="425.6855" y2="425.6855"/><ellipse cx="624.5" cy="436.6855" fill="#84BE84" rx="3" ry="3" style="stroke:#038048;stroke-width:1.0;"/><text fill="#000000" font-family="sans-serif" font-size="11" lengthAdjust="spacing" textLength="340" x="633.5" y="440.3203">elements : (typeof GatewayElement | typeof ReadColumnValue)[]</text><ellipse cx="624.5" cy="449.6406" fill="#84BE84" rx="3" ry="3" style="stroke:#038048;stroke-width:1.0;"/><text fill="#000000" font-family="sans-serif" font-size="11" lengthAdjust="spacing" textLength="410" x="633.5" y="453.2754">prompts : (typeof ColumnInput | typeof ValueInput | typeof ConditionInput)[]</text><!--MD5=[665454f4a23afe1d27d1edd5a7dbb7c7]
reverse link WorkflowEvent<ModdleElement> to BpmnEvent--><path codeLine="15" d="M561.5,51.5 C561.5,63.17 561.5,76.93 561.5,90.7 " fill="none" id="WorkflowEvent&lt;ModdleElement&gt;-backto-BpmnEvent" style="stroke:#A80036;stroke-width:1.0;"/><polygon fill="none" points="554.5,51.14,561.5,31.14,568.5,51.14,554.5,51.14" style="stroke:#A80036;stroke-width:1.0;"/><!--MD5=[c6380aab27bab32e7332e235aaf571a4]
reverse link BpmnEvent to OnChangeEvent--><path codeLine="27" d="M455.63,247.63 C435.96,263.17 415.44,279.38 395.84,294.86 " fill="none" id="BpmnEvent-backto-OnChangeEvent" style="stroke:#A80036;stroke-width:1.0;"/><polygon fill="none" points="451.52,241.96,471.55,235.05,460.2,252.95,451.52,241.96" style="stroke:#A80036;stroke-width:1.0;"/><!--MD5=[cb8431cb2cf9d99aee2c9870b651338b]
reverse link BpmnEvent to OnValueEvent--><path codeLine="39" d="M667.76,247.63 C687.5,263.17 708.11,279.38 727.77,294.86 " fill="none" id="BpmnEvent-backto-OnValueEvent" style="stroke:#A80036;stroke-width:1.0;"/><polygon fill="none" points="663.17,252.92,651.78,235.05,671.83,241.92,663.17,252.92" style="stroke:#A80036;stroke-width:1.0;"/><!--MD5=[0063c227301466bd1cf4cbb5bf9e8eb9]
@startuml
hide empty methods
hide empty fields
abstract class "BpmnEvent" {
    +elements : Constructor<WorkflowElement<ModdleElement>>[]
    +id : string
    +name : string
    +prompts : Constructor<WorkflowPrompt>[]
    +state : State<RecordOfAnyType>
    +statement : string
    +trigger : boolean
    +type : NodeTypes
}
class "WorkflowEvent<ModdleElement>"
hide "WorkflowEvent<ModdleElement>" circle
"WorkflowEvent<ModdleElement>" <|- - "BpmnEvent"
class "OnChangeEvent" {
    +elements : (typeof GatewayElement | typeof ReadColumnValue | typeof TriggerWhenColumnChanges)[]
    +id : string
    +name : string
    +prompts : (typeof ColumnInput | typeof ValueInput | typeof ConditionInput)[]
    +properties : object
    +state : State<RecordOfAnyType>
    +statement : string
    +trigger : boolean
    +type : NodeTypes
}
"BpmnEvent" <|- - "OnChangeEvent"
class "OnValueEvent" {
    +elements : (typeof GatewayElement | typeof ReadColumnValue)[]
    +id : string
    +name : string
    +prompts : (typeof ColumnInput | typeof ValueInput | typeof ConditionInput)[]
    +properties : object
    +state : State<RecordOfAnyType>
    +statement : string
    +trigger : boolean
    +type : NodeTypes
}
"BpmnEvent" <|- - "OnValueEvent"
@enduml

PlantUML version 1.2021.14(Fri Nov 12 22:16:50 IST 2021)
(GPL source distribution)
Java Runtime: OpenJDK Runtime Environment
JVM: OpenJDK 64-Bit Server VM
Default Encoding: UTF-8
Language: en
Country: IN
--></g></svg>