<?xml version="1.0" encoding="UTF-8" standalone="no"?><svg xmlns="http://www.w3.org/2000/svg" xmlns:xlink="http://www.w3.org/1999/xlink" contentScriptType="application/ecmascript" contentStyleType="text/css" height="572px" preserveAspectRatio="none" style="width:3228px;height:572px;background:#FFFFFF;" version="1.1" viewBox="0 0 3228 572" width="3228px" zoomAndPan="magnify"><defs><filter height="300%" id="f4p3rh7b9xnl1" width="300%" x="-1" y="-1"><feGaussianBlur result="blurOut" stdDeviation="2.0"/><feColorMatrix in="blurOut" result="blurOut2" type="matrix" values="0 0 0 0 0 0 0 0 0 0 0 0 0 0 0 0 0 0 .4 0"/><feOffset dx="4.0" dy="4.0" in="blurOut2" result="blurOut3"/><feBlend in="SourceGraphic" in2="blurOut3" mode="normal"/></filter></defs><g><!--MD5=[67972b1c6d4722e1308be96bcf302a89]
class BpmnElement--><rect codeLine="3" fill="#FEFECE" filter="url(#f4p3rh7b9xnl1)" height="177.5508" id="BpmnElement" style="stroke:#A80036;stroke-width:1.5;" width="505" x="1359" y="91"/><ellipse cx="1567.75" cy="107" fill="#A9DCDF" rx="11" ry="11" style="stroke:#A80036;stroke-width:1.0;"/><path d="M1567.6133,102.3481 L1566.4595,107.4199 L1568.7754,107.4199 Z M1566.1191,100.1069 L1569.1157,100.1069 L1572.4609,112.5 L1570.0122,112.5 L1569.2485,109.437 L1565.9697,109.437 L1565.2227,112.5 L1562.7739,112.5 Z " fill="#000000"/><text fill="#000000" font-family="sans-serif" font-size="12" font-style="italic" lengthAdjust="spacing" textLength="79" x="1588.25" y="111.5352">BpmnElement</text><line style="stroke:#A80036;stroke-width:1.5;" x1="1360" x2="1863" y1="123" y2="123"/><ellipse cx="1370" cy="134" rx="3" ry="3" style="stroke:#038048;stroke-width:1.0;fill:none;"/><text fill="#000000" font-family="sans-serif" font-size="11" lengthAdjust="spacing" textLength="159" x="1379" y="137.6348">attributes : RecordOfAnyType</text><ellipse cx="1370" cy="146.9551" rx="3" ry="3" style="stroke:#038048;stroke-width:1.0;fill:none;"/><text fill="#000000" font-family="sans-serif" font-size="11" lengthAdjust="spacing" textLength="51" x="1379" y="150.5898">id : string</text><ellipse cx="1370" cy="159.9102" rx="3" ry="3" style="stroke:#038048;stroke-width:1.0;fill:none;"/><text fill="#000000" font-family="sans-serif" font-size="11" lengthAdjust="spacing" textLength="113" x="1379" y="163.5449">inputs : ElementInput</text><ellipse cx="1370" cy="172.8652" rx="3" ry="3" style="stroke:#038048;stroke-width:1.0;fill:none;"/><text fill="#000000" font-family="sans-serif" font-size="11" lengthAdjust="spacing" textLength="70" x="1379" y="176.5">name : string</text><ellipse cx="1370" cy="185.8203" rx="3" ry="3" style="stroke:#038048;stroke-width:1.0;fill:none;"/><text fill="#000000" font-family="sans-serif" font-size="11" lengthAdjust="spacing" textLength="83" x="1379" y="189.4551">outputs : string</text><ellipse cx="1370" cy="198.7754" rx="3" ry="3" style="stroke:#038048;stroke-width:1.0;fill:none;"/><text fill="#000000" font-family="sans-serif" font-size="11" lengthAdjust="spacing" textLength="58" x="1379" y="202.4102">tag : string</text><polygon fill="none" points="1370,206.7305,1374,210.7305,1370,214.7305,1366,210.7305" style="stroke:#B38D22;stroke-width:1.0;"/><text fill="#000000" font-family="sans-serif" font-size="11" lengthAdjust="spacing" textLength="226" x="1379" y="215.3652">creator : CreateStrategy&lt;ModdleElement&gt;</text><polygon fill="none" points="1370,219.6855,1374,223.6855,1370,227.6855,1366,223.6855" style="stroke:#B38D22;stroke-width:1.0;"/><text fill="#000000" font-family="sans-serif" font-size="11" lengthAdjust="spacing" textLength="204" x="1379" y="228.3203">linker : LinkStrategy&lt;ModdleElement&gt;</text><line style="stroke:#A80036;stroke-width:1.5;" x1="1360" x2="1863" y1="234.6406" y2="234.6406"/><ellipse cx="1370" cy="245.6406" fill="#84BE84" rx="3" ry="3" style="stroke:#038048;stroke-width:1.0;"/><text fill="#000000" font-family="sans-serif" font-size="11" lengthAdjust="spacing" textLength="479" x="1379" y="249.2754">create(node: StatementNode&lt;ModdleElement&gt;, attrs: RecordOfAnyType) : ModdleElement</text><ellipse cx="1370" cy="258.5957" fill="#84BE84" rx="3" ry="3" style="stroke:#038048;stroke-width:1.0;"/><text fill="#000000" font-family="sans-serif" font-size="11" lengthAdjust="spacing" textLength="338" x="1379" y="262.2305">link(node: StatementNode&lt;ModdleElement&gt;) : ModdleElement[]</text><!--MD5=[bb8dac83009bf15d5fba44f86f83cf53]
class WorkflowElement<ModdleElement>--><rect codeLine="15" fill="#FEFECE" filter="url(#f4p3rh7b9xnl1)" height="24.1328" id="WorkflowElement&lt;ModdleElement&gt;" style="stroke:#A80036;stroke-width:1.5;" width="213" x="1505" y="7"/><text fill="#000000" font-family="sans-serif" font-size="12" lengthAdjust="spacing" textLength="207" x="1508" y="23.6016">WorkflowElement&lt;ModdleElement&gt;</text><!--MD5=[0fc90aac9203d387d41da27d381133d8]
class EndElement--><rect codeLine="18" fill="#FEFECE" filter="url(#f4p3rh7b9xnl1)" height="203.4609" id="EndElement" style="stroke:#A80036;stroke-width:1.5;" width="505" x="9" y="342"/><ellipse cx="223.25" cy="358" fill="#ADD1B2" rx="11" ry="11" style="stroke:#A80036;stroke-width:1.0;"/><path d="M225.7231,364.1431 Q225.1421,364.4419 224.5029,364.5913 Q223.8638,364.7407 223.1582,364.7407 Q220.6514,364.7407 219.3315,363.0889 Q218.0117,361.437 218.0117,358.3159 Q218.0117,355.1865 219.3315,353.5347 Q220.6514,351.8828 223.1582,351.8828 Q223.8638,351.8828 224.5112,352.0322 Q225.1587,352.1816 225.7231,352.4805 L225.7231,355.2031 Q225.0923,354.6221 224.4988,354.3523 Q223.9053,354.0825 223.2744,354.0825 Q221.9297,354.0825 221.2449,355.1492 Q220.5601,356.2158 220.5601,358.3159 Q220.5601,360.4077 221.2449,361.4744 Q221.9297,362.541 223.2744,362.541 Q223.9053,362.541 224.4988,362.2712 Q225.0923,362.0015 225.7231,361.4204 Z " fill="#000000"/><text fill="#000000" font-family="sans-serif" font-size="12" lengthAdjust="spacing" textLength="68" x="243.75" y="362.5352">EndElement</text><line style="stroke:#A80036;stroke-width:1.5;" x1="10" x2="513" y1="374" y2="374"/><ellipse cx="20" cy="385" rx="3" ry="3" style="stroke:#038048;stroke-width:1.0;fill:none;"/><text fill="#000000" font-family="sans-serif" font-size="11" lengthAdjust="spacing" textLength="94" x="29" y="388.6348">attributes : object</text><ellipse cx="20" cy="397.9551" rx="3" ry="3" style="stroke:#038048;stroke-width:1.0;fill:none;"/><text fill="#000000" font-family="sans-serif" font-size="11" lengthAdjust="spacing" textLength="51" x="29" y="401.5898">id : string</text><ellipse cx="20" cy="410.9102" rx="3" ry="3" style="stroke:#038048;stroke-width:1.0;fill:none;"/><text fill="#000000" font-family="sans-serif" font-size="11" lengthAdjust="spacing" textLength="113" x="29" y="414.5449">inputs : ElementInput</text><ellipse cx="20" cy="423.8652" rx="3" ry="3" style="stroke:#038048;stroke-width:1.0;fill:none;"/><text fill="#000000" font-family="sans-serif" font-size="11" lengthAdjust="spacing" textLength="70" x="29" y="427.5">name : string</text><ellipse cx="20" cy="436.8203" rx="3" ry="3" style="stroke:#038048;stroke-width:1.0;fill:none;"/><text fill="#000000" font-family="sans-serif" font-size="11" lengthAdjust="spacing" textLength="83" x="29" y="440.4551">outputs : string</text><ellipse cx="20" cy="449.7754" rx="3" ry="3" style="stroke:#038048;stroke-width:1.0;fill:none;"/><text fill="#000000" font-family="sans-serif" font-size="11" lengthAdjust="spacing" textLength="158" x="29" y="453.4102">statement : undefined | string</text><ellipse cx="20" cy="462.7305" rx="3" ry="3" style="stroke:#038048;stroke-width:1.0;fill:none;"/><text fill="#000000" font-family="sans-serif" font-size="11" lengthAdjust="spacing" textLength="58" x="29" y="466.3652">tag : string</text><ellipse cx="20" cy="475.6855" rx="3" ry="3" style="stroke:#038048;stroke-width:1.0;fill:none;"/><text fill="#000000" font-family="sans-serif" font-size="11" lengthAdjust="spacing" textLength="94" x="29" y="479.3203">utils : UtilsService</text><polygon fill="none" points="20,483.6406,24,487.6406,20,491.6406,16,487.6406" style="stroke:#B38D22;stroke-width:1.0;"/><text fill="#000000" font-family="sans-serif" font-size="11" lengthAdjust="spacing" textLength="226" x="29" y="492.2754">creator : CreateStrategy&lt;ModdleElement&gt;</text><polygon fill="none" points="20,496.5957,24,500.5957,20,504.5957,16,500.5957" style="stroke:#B38D22;stroke-width:1.0;"/><text fill="#000000" font-family="sans-serif" font-size="11" lengthAdjust="spacing" textLength="204" x="29" y="505.2305">linker : LinkStrategy&lt;ModdleElement&gt;</text><line style="stroke:#A80036;stroke-width:1.5;" x1="10" x2="513" y1="511.5508" y2="511.5508"/><ellipse cx="20" cy="522.5508" fill="#84BE84" rx="3" ry="3" style="stroke:#038048;stroke-width:1.0;"/><text fill="#000000" font-family="sans-serif" font-size="11" lengthAdjust="spacing" textLength="479" x="29" y="526.1855">create(node: StatementNode&lt;ModdleElement&gt;, attrs: RecordOfAnyType) : ModdleElement</text><ellipse cx="20" cy="535.5059" fill="#84BE84" rx="3" ry="3" style="stroke:#038048;stroke-width:1.0;"/><text fill="#000000" font-family="sans-serif" font-size="11" lengthAdjust="spacing" textLength="338" x="29" y="539.1406">link(node: StatementNode&lt;ModdleElement&gt;) : ModdleElement[]</text><!--MD5=[3ffb6353d84ae8d5c9b0fc1e9735d21c]
class StartElement--><rect codeLine="33" fill="#FEFECE" filter="url(#f4p3rh7b9xnl1)" height="190.5059" id="StartElement" style="stroke:#A80036;stroke-width:1.5;" width="505" x="549" y="348"/><ellipse cx="761.25" cy="364" fill="#ADD1B2" rx="11" ry="11" style="stroke:#A80036;stroke-width:1.0;"/><path d="M763.7231,370.1431 Q763.1421,370.4419 762.5029,370.5913 Q761.8638,370.7407 761.1582,370.7407 Q758.6514,370.7407 757.3315,369.0889 Q756.0117,367.437 756.0117,364.3159 Q756.0117,361.1865 757.3315,359.5347 Q758.6514,357.8828 761.1582,357.8828 Q761.8638,357.8828 762.5112,358.0322 Q763.1587,358.1816 763.7231,358.4805 L763.7231,361.2031 Q763.0923,360.6221 762.4988,360.3523 Q761.9053,360.0825 761.2744,360.0825 Q759.9297,360.0825 759.2449,361.1492 Q758.5601,362.2158 758.5601,364.3159 Q758.5601,366.4077 759.2449,367.4744 Q759.9297,368.541 761.2744,368.541 Q761.9053,368.541 762.4988,368.2712 Q763.0923,368.0015 763.7231,367.4204 Z " fill="#000000"/><text fill="#000000" font-family="sans-serif" font-size="12" lengthAdjust="spacing" textLength="72" x="781.75" y="368.5352">StartElement</text><line style="stroke:#A80036;stroke-width:1.5;" x1="550" x2="1053" y1="380" y2="380"/><ellipse cx="560" cy="391" rx="3" ry="3" style="stroke:#038048;stroke-width:1.0;fill:none;"/><text fill="#000000" font-family="sans-serif" font-size="11" lengthAdjust="spacing" textLength="94" x="569" y="394.6348">attributes : object</text><ellipse cx="560" cy="403.9551" rx="3" ry="3" style="stroke:#038048;stroke-width:1.0;fill:none;"/><text fill="#000000" font-family="sans-serif" font-size="11" lengthAdjust="spacing" textLength="51" x="569" y="407.5898">id : string</text><ellipse cx="560" cy="416.9102" rx="3" ry="3" style="stroke:#038048;stroke-width:1.0;fill:none;"/><text fill="#000000" font-family="sans-serif" font-size="11" lengthAdjust="spacing" textLength="113" x="569" y="420.5449">inputs : ElementInput</text><ellipse cx="560" cy="429.8652" rx="3" ry="3" style="stroke:#038048;stroke-width:1.0;fill:none;"/><text fill="#000000" font-family="sans-serif" font-size="11" lengthAdjust="spacing" textLength="70" x="569" y="433.5">name : string</text><ellipse cx="560" cy="442.8203" rx="3" ry="3" style="stroke:#038048;stroke-width:1.0;fill:none;"/><text fill="#000000" font-family="sans-serif" font-size="11" lengthAdjust="spacing" textLength="83" x="569" y="446.4551">outputs : string</text><ellipse cx="560" cy="455.7754" rx="3" ry="3" style="stroke:#038048;stroke-width:1.0;fill:none;"/><text fill="#000000" font-family="sans-serif" font-size="11" lengthAdjust="spacing" textLength="58" x="569" y="459.4102">tag : string</text><ellipse cx="560" cy="468.7305" rx="3" ry="3" style="stroke:#038048;stroke-width:1.0;fill:none;"/><text fill="#000000" font-family="sans-serif" font-size="11" lengthAdjust="spacing" textLength="94" x="569" y="472.3652">utils : UtilsService</text><polygon fill="none" points="560,476.6855,564,480.6855,560,484.6855,556,480.6855" style="stroke:#B38D22;stroke-width:1.0;"/><text fill="#000000" font-family="sans-serif" font-size="11" lengthAdjust="spacing" textLength="226" x="569" y="485.3203">creator : CreateStrategy&lt;ModdleElement&gt;</text><polygon fill="none" points="560,489.6406,564,493.6406,560,497.6406,556,493.6406" style="stroke:#B38D22;stroke-width:1.0;"/><text fill="#000000" font-family="sans-serif" font-size="11" lengthAdjust="spacing" textLength="204" x="569" y="498.2754">linker : LinkStrategy&lt;ModdleElement&gt;</text><line style="stroke:#A80036;stroke-width:1.5;" x1="550" x2="1053" y1="504.5957" y2="504.5957"/><ellipse cx="560" cy="515.5957" fill="#84BE84" rx="3" ry="3" style="stroke:#038048;stroke-width:1.0;"/><text fill="#000000" font-family="sans-serif" font-size="11" lengthAdjust="spacing" textLength="479" x="569" y="519.2305">create(node: StatementNode&lt;ModdleElement&gt;, attrs: RecordOfAnyType) : ModdleElement</text><ellipse cx="560" cy="528.5508" fill="#84BE84" rx="3" ry="3" style="stroke:#038048;stroke-width:1.0;"/><text fill="#000000" font-family="sans-serif" font-size="11" lengthAdjust="spacing" textLength="338" x="569" y="532.1855">link(node: StatementNode&lt;ModdleElement&gt;) : ModdleElement[]</text><!--MD5=[ec9b473fc88c52a1101890973b8d83df]
class GatewayElement--><rect codeLine="47" fill="#FEFECE" filter="url(#f4p3rh7b9xnl1)" height="229.3711" id="GatewayElement" style="stroke:#A80036;stroke-width:1.5;" width="505" x="1089" y="329"/><ellipse cx="1289.75" cy="345" fill="#ADD1B2" rx="11" ry="11" style="stroke:#A80036;stroke-width:1.0;"/><path d="M1292.2231,351.1431 Q1291.6421,351.4419 1291.0029,351.5913 Q1290.3638,351.7407 1289.6582,351.7407 Q1287.1514,351.7407 1285.8315,350.0889 Q1284.5117,348.437 1284.5117,345.3159 Q1284.5117,342.1865 1285.8315,340.5347 Q1287.1514,338.8828 1289.6582,338.8828 Q1290.3638,338.8828 1291.0112,339.0322 Q1291.6587,339.1816 1292.2231,339.4805 L1292.2231,342.2031 Q1291.5923,341.6221 1290.9988,341.3523 Q1290.4053,341.0825 1289.7744,341.0825 Q1288.4297,341.0825 1287.7449,342.1492 Q1287.0601,343.2158 1287.0601,345.3159 Q1287.0601,347.4077 1287.7449,348.4744 Q1288.4297,349.541 1289.7744,349.541 Q1290.4053,349.541 1290.9988,349.2712 Q1291.5923,349.0015 1292.2231,348.4204 Z " fill="#000000"/><text fill="#000000" font-family="sans-serif" font-size="12" lengthAdjust="spacing" textLength="95" x="1310.25" y="349.5352">GatewayElement</text><line style="stroke:#A80036;stroke-width:1.5;" x1="1090" x2="1593" y1="361" y2="361"/><ellipse cx="1100" cy="372" rx="3" ry="3" style="stroke:#038048;stroke-width:1.0;fill:none;"/><text fill="#000000" font-family="sans-serif" font-size="11" lengthAdjust="spacing" textLength="94" x="1109" y="375.6348">attributes : object</text><ellipse cx="1100" cy="384.9551" rx="3" ry="3" style="stroke:#038048;stroke-width:1.0;fill:none;"/><text fill="#000000" font-family="sans-serif" font-size="11" lengthAdjust="spacing" textLength="51" x="1109" y="388.5898">id : string</text><ellipse cx="1100" cy="397.9102" rx="3" ry="3" style="stroke:#038048;stroke-width:1.0;fill:none;"/><text fill="#000000" font-family="sans-serif" font-size="11" lengthAdjust="spacing" textLength="113" x="1109" y="401.5449">inputs : ElementInput</text><ellipse cx="1100" cy="410.8652" rx="3" ry="3" style="stroke:#038048;stroke-width:1.0;fill:none;"/><text fill="#000000" font-family="sans-serif" font-size="11" lengthAdjust="spacing" textLength="70" x="1109" y="414.5">name : string</text><ellipse cx="1100" cy="423.8203" rx="3" ry="3" style="stroke:#038048;stroke-width:1.0;fill:none;"/><text fill="#000000" font-family="sans-serif" font-size="11" lengthAdjust="spacing" textLength="83" x="1109" y="427.4551">outputs : string</text><ellipse cx="1100" cy="436.7754" rx="3" ry="3" style="stroke:#038048;stroke-width:1.0;fill:none;"/><text fill="#000000" font-family="sans-serif" font-size="11" lengthAdjust="spacing" textLength="98" x="1109" y="440.4102">properties : object</text><ellipse cx="1100" cy="449.7305" rx="3" ry="3" style="stroke:#038048;stroke-width:1.0;fill:none;"/><text fill="#000000" font-family="sans-serif" font-size="11" lengthAdjust="spacing" textLength="158" x="1109" y="453.3652">statement : undefined | string</text><ellipse cx="1100" cy="462.6855" rx="3" ry="3" style="stroke:#038048;stroke-width:1.0;fill:none;"/><text fill="#000000" font-family="sans-serif" font-size="11" lengthAdjust="spacing" textLength="58" x="1109" y="466.3203">tag : string</text><ellipse cx="1100" cy="475.6406" rx="3" ry="3" style="stroke:#038048;stroke-width:1.0;fill:none;"/><text fill="#000000" font-family="sans-serif" font-size="11" lengthAdjust="spacing" text-decoration="underline" textLength="106" x="1109" y="479.2754">type : ElementTypes</text><ellipse cx="1100" cy="488.5957" rx="3" ry="3" style="stroke:#038048;stroke-width:1.0;fill:none;"/><text fill="#000000" font-family="sans-serif" font-size="11" lengthAdjust="spacing" textLength="94" x="1109" y="492.2305">utils : UtilsService</text><polygon fill="none" points="1100,496.5508,1104,500.5508,1100,504.5508,1096,500.5508" style="stroke:#B38D22;stroke-width:1.0;"/><text fill="#000000" font-family="sans-serif" font-size="11" lengthAdjust="spacing" textLength="226" x="1109" y="505.1855">creator : CreateStrategy&lt;ModdleElement&gt;</text><polygon fill="none" points="1100,509.5059,1104,513.5059,1100,517.5059,1096,513.5059" style="stroke:#B38D22;stroke-width:1.0;"/><text fill="#000000" font-family="sans-serif" font-size="11" lengthAdjust="spacing" textLength="204" x="1109" y="518.1406">linker : LinkStrategy&lt;ModdleElement&gt;</text><line style="stroke:#A80036;stroke-width:1.5;" x1="1090" x2="1593" y1="524.4609" y2="524.4609"/><ellipse cx="1100" cy="535.4609" fill="#84BE84" rx="3" ry="3" style="stroke:#038048;stroke-width:1.0;"/><text fill="#000000" font-family="sans-serif" font-size="11" lengthAdjust="spacing" textLength="479" x="1109" y="539.0957">create(node: StatementNode&lt;ModdleElement&gt;, attrs: RecordOfAnyType) : ModdleElement</text><ellipse cx="1100" cy="548.416" fill="#84BE84" rx="3" ry="3" style="stroke:#038048;stroke-width:1.0;"/><text fill="#000000" font-family="sans-serif" font-size="11" lengthAdjust="spacing" textLength="338" x="1109" y="552.0508">link(node: StatementNode&lt;ModdleElement&gt;) : ModdleElement[]</text><!--MD5=[265f872defcdef5af0b8e83e2fbfff20]
class ProcessPropertiesElement--><rect codeLine="64" fill="#FEFECE" filter="url(#f4p3rh7b9xnl1)" height="203.4609" id="ProcessPropertiesElement" style="stroke:#A80036;stroke-width:1.5;" width="505" x="1629" y="342"/><ellipse cx="1802.75" cy="358" fill="#ADD1B2" rx="11" ry="11" style="stroke:#A80036;stroke-width:1.0;"/><path d="M1805.2231,364.1431 Q1804.6421,364.4419 1804.0029,364.5913 Q1803.3638,364.7407 1802.6582,364.7407 Q1800.1514,364.7407 1798.8315,363.0889 Q1797.5117,361.437 1797.5117,358.3159 Q1797.5117,355.1865 1798.8315,353.5347 Q1800.1514,351.8828 1802.6582,351.8828 Q1803.3638,351.8828 1804.0112,352.0322 Q1804.6587,352.1816 1805.2231,352.4805 L1805.2231,355.2031 Q1804.5923,354.6221 1803.9988,354.3523 Q1803.4053,354.0825 1802.7744,354.0825 Q1801.4297,354.0825 1800.7449,355.1492 Q1800.0601,356.2158 1800.0601,358.3159 Q1800.0601,360.4077 1800.7449,361.4744 Q1801.4297,362.541 1802.7744,362.541 Q1803.4053,362.541 1803.9988,362.2712 Q1804.5923,362.0015 1805.2231,361.4204 Z " fill="#000000"/><text fill="#000000" font-family="sans-serif" font-size="12" lengthAdjust="spacing" textLength="149" x="1823.25" y="362.5352">ProcessPropertiesElement</text><line style="stroke:#A80036;stroke-width:1.5;" x1="1630" x2="2133" y1="374" y2="374"/><ellipse cx="1640" cy="385" rx="3" ry="3" style="stroke:#038048;stroke-width:1.0;fill:none;"/><text fill="#000000" font-family="sans-serif" font-size="11" lengthAdjust="spacing" textLength="94" x="1649" y="388.6348">attributes : object</text><ellipse cx="1640" cy="397.9551" rx="3" ry="3" style="stroke:#038048;stroke-width:1.0;fill:none;"/><text fill="#000000" font-family="sans-serif" font-size="11" lengthAdjust="spacing" textLength="51" x="1649" y="401.5898">id : string</text><ellipse cx="1640" cy="410.9102" rx="3" ry="3" style="stroke:#038048;stroke-width:1.0;fill:none;"/><text fill="#000000" font-family="sans-serif" font-size="11" lengthAdjust="spacing" textLength="113" x="1649" y="414.5449">inputs : ElementInput</text><ellipse cx="1640" cy="423.8652" rx="3" ry="3" style="stroke:#038048;stroke-width:1.0;fill:none;"/><text fill="#000000" font-family="sans-serif" font-size="11" lengthAdjust="spacing" textLength="70" x="1649" y="427.5">name : string</text><ellipse cx="1640" cy="436.8203" rx="3" ry="3" style="stroke:#038048;stroke-width:1.0;fill:none;"/><text fill="#000000" font-family="sans-serif" font-size="11" lengthAdjust="spacing" textLength="83" x="1649" y="440.4551">outputs : string</text><ellipse cx="1640" cy="449.7754" rx="3" ry="3" style="stroke:#038048;stroke-width:1.0;fill:none;"/><text fill="#000000" font-family="sans-serif" font-size="11" lengthAdjust="spacing" textLength="58" x="1649" y="453.4102">tag : string</text><ellipse cx="1640" cy="462.7305" rx="3" ry="3" style="stroke:#038048;stroke-width:1.0;fill:none;"/><text fill="#000000" font-family="sans-serif" font-size="11" lengthAdjust="spacing" text-decoration="underline" textLength="106" x="1649" y="466.3652">type : ElementTypes</text><ellipse cx="1640" cy="475.6855" rx="3" ry="3" style="stroke:#038048;stroke-width:1.0;fill:none;"/><text fill="#000000" font-family="sans-serif" font-size="11" lengthAdjust="spacing" textLength="94" x="1649" y="479.3203">utils : UtilsService</text><polygon fill="none" points="1640,483.6406,1644,487.6406,1640,491.6406,1636,487.6406" style="stroke:#B38D22;stroke-width:1.0;"/><text fill="#000000" font-family="sans-serif" font-size="11" lengthAdjust="spacing" textLength="226" x="1649" y="492.2754">creator : CreateStrategy&lt;ModdleElement&gt;</text><polygon fill="none" points="1640,496.5957,1644,500.5957,1640,504.5957,1636,500.5957" style="stroke:#B38D22;stroke-width:1.0;"/><text fill="#000000" font-family="sans-serif" font-size="11" lengthAdjust="spacing" textLength="204" x="1649" y="505.2305">linker : LinkStrategy&lt;ModdleElement&gt;</text><line style="stroke:#A80036;stroke-width:1.5;" x1="1630" x2="2133" y1="511.5508" y2="511.5508"/><ellipse cx="1640" cy="522.5508" fill="#84BE84" rx="3" ry="3" style="stroke:#038048;stroke-width:1.0;"/><text fill="#000000" font-family="sans-serif" font-size="11" lengthAdjust="spacing" textLength="479" x="1649" y="526.1855">create(node: StatementNode&lt;ModdleElement&gt;, attrs: RecordOfAnyType) : ModdleElement</text><ellipse cx="1640" cy="535.5059" fill="#84BE84" rx="3" ry="3" style="stroke:#038048;stroke-width:1.0;"/><text fill="#000000" font-family="sans-serif" font-size="11" lengthAdjust="spacing" textLength="338" x="1649" y="539.1406">link(node: StatementNode&lt;ModdleElement&gt;) : ModdleElement[]</text><!--MD5=[aaf2781b5a03c36d8577bbaf26e0ee36]
class ProcessElement--><rect codeLine="79" fill="#FEFECE" filter="url(#f4p3rh7b9xnl1)" height="203.4609" id="ProcessElement" style="stroke:#A80036;stroke-width:1.5;" width="505" x="2169" y="342"/><ellipse cx="2372.25" cy="358" fill="#ADD1B2" rx="11" ry="11" style="stroke:#A80036;stroke-width:1.0;"/><path d="M2374.7231,364.1431 Q2374.1421,364.4419 2373.5029,364.5913 Q2372.8638,364.7407 2372.1582,364.7407 Q2369.6514,364.7407 2368.3315,363.0889 Q2367.0117,361.437 2367.0117,358.3159 Q2367.0117,355.1865 2368.3315,353.5347 Q2369.6514,351.8828 2372.1582,351.8828 Q2372.8638,351.8828 2373.5112,352.0322 Q2374.1587,352.1816 2374.7231,352.4805 L2374.7231,355.2031 Q2374.0923,354.6221 2373.4988,354.3523 Q2372.9053,354.0825 2372.2744,354.0825 Q2370.9297,354.0825 2370.2449,355.1492 Q2369.5601,356.2158 2369.5601,358.3159 Q2369.5601,360.4077 2370.2449,361.4744 Q2370.9297,362.541 2372.2744,362.541 Q2372.9053,362.541 2373.4988,362.2712 Q2374.0923,362.0015 2374.7231,361.4204 Z " fill="#000000"/><text fill="#000000" font-family="sans-serif" font-size="12" lengthAdjust="spacing" textLength="90" x="2392.75" y="362.5352">ProcessElement</text><line style="stroke:#A80036;stroke-width:1.5;" x1="2170" x2="2673" y1="374" y2="374"/><ellipse cx="2180" cy="385" rx="3" ry="3" style="stroke:#038048;stroke-width:1.0;fill:none;"/><text fill="#000000" font-family="sans-serif" font-size="11" lengthAdjust="spacing" textLength="94" x="2189" y="388.6348">attributes : object</text><ellipse cx="2180" cy="397.9551" rx="3" ry="3" style="stroke:#038048;stroke-width:1.0;fill:none;"/><text fill="#000000" font-family="sans-serif" font-size="11" lengthAdjust="spacing" textLength="51" x="2189" y="401.5898">id : string</text><ellipse cx="2180" cy="410.9102" rx="3" ry="3" style="stroke:#038048;stroke-width:1.0;fill:none;"/><text fill="#000000" font-family="sans-serif" font-size="11" lengthAdjust="spacing" textLength="113" x="2189" y="414.5449">inputs : ElementInput</text><ellipse cx="2180" cy="423.8652" rx="3" ry="3" style="stroke:#038048;stroke-width:1.0;fill:none;"/><text fill="#000000" font-family="sans-serif" font-size="11" lengthAdjust="spacing" textLength="70" x="2189" y="427.5">name : string</text><ellipse cx="2180" cy="436.8203" rx="3" ry="3" style="stroke:#038048;stroke-width:1.0;fill:none;"/><text fill="#000000" font-family="sans-serif" font-size="11" lengthAdjust="spacing" textLength="83" x="2189" y="440.4551">outputs : string</text><ellipse cx="2180" cy="449.7754" rx="3" ry="3" style="stroke:#038048;stroke-width:1.0;fill:none;"/><text fill="#000000" font-family="sans-serif" font-size="11" lengthAdjust="spacing" textLength="58" x="2189" y="453.4102">tag : string</text><ellipse cx="2180" cy="462.7305" rx="3" ry="3" style="stroke:#038048;stroke-width:1.0;fill:none;"/><text fill="#000000" font-family="sans-serif" font-size="11" lengthAdjust="spacing" text-decoration="underline" textLength="106" x="2189" y="466.3652">type : ElementTypes</text><ellipse cx="2180" cy="475.6855" rx="3" ry="3" style="stroke:#038048;stroke-width:1.0;fill:none;"/><text fill="#000000" font-family="sans-serif" font-size="11" lengthAdjust="spacing" textLength="94" x="2189" y="479.3203">utils : UtilsService</text><polygon fill="none" points="2180,483.6406,2184,487.6406,2180,491.6406,2176,487.6406" style="stroke:#B38D22;stroke-width:1.0;"/><text fill="#000000" font-family="sans-serif" font-size="11" lengthAdjust="spacing" textLength="226" x="2189" y="492.2754">creator : CreateStrategy&lt;ModdleElement&gt;</text><polygon fill="none" points="2180,496.5957,2184,500.5957,2180,504.5957,2176,500.5957" style="stroke:#B38D22;stroke-width:1.0;"/><text fill="#000000" font-family="sans-serif" font-size="11" lengthAdjust="spacing" textLength="204" x="2189" y="505.2305">linker : LinkStrategy&lt;ModdleElement&gt;</text><line style="stroke:#A80036;stroke-width:1.5;" x1="2170" x2="2673" y1="511.5508" y2="511.5508"/><ellipse cx="2180" cy="522.5508" fill="#84BE84" rx="3" ry="3" style="stroke:#038048;stroke-width:1.0;"/><text fill="#000000" font-family="sans-serif" font-size="11" lengthAdjust="spacing" textLength="479" x="2189" y="526.1855">create(node: StatementNode&lt;ModdleElement&gt;, attrs: RecordOfAnyType) : ModdleElement</text><ellipse cx="2180" cy="535.5059" fill="#84BE84" rx="3" ry="3" style="stroke:#038048;stroke-width:1.0;"/><text fill="#000000" font-family="sans-serif" font-size="11" lengthAdjust="spacing" textLength="338" x="2189" y="539.1406">link(node: StatementNode&lt;ModdleElement&gt;) : ModdleElement[]</text><!--MD5=[3c01fea783f5c1b9b51ddef878564734]
class ServiceTaskElement--><rect codeLine="94" fill="#FEFECE" filter="url(#f4p3rh7b9xnl1)" height="190.5059" id="ServiceTaskElement" style="stroke:#A80036;stroke-width:1.5;" width="505" x="2709" y="348"/><ellipse cx="2900.25" cy="364" fill="#A9DCDF" rx="11" ry="11" style="stroke:#A80036;stroke-width:1.0;"/><path d="M2900.1133,359.3481 L2898.9595,364.4199 L2901.2754,364.4199 Z M2898.6191,357.1069 L2901.6157,357.1069 L2904.9609,369.5 L2902.5122,369.5 L2901.7485,366.437 L2898.4697,366.437 L2897.7227,369.5 L2895.2739,369.5 Z " fill="#000000"/><text fill="#000000" font-family="sans-serif" font-size="12" font-style="italic" lengthAdjust="spacing" textLength="114" x="2920.75" y="368.5352">ServiceTaskElement</text><line style="stroke:#A80036;stroke-width:1.5;" x1="2710" x2="3213" y1="380" y2="380"/><ellipse cx="2720" cy="391" rx="3" ry="3" style="stroke:#038048;stroke-width:1.0;fill:none;"/><text fill="#000000" font-family="sans-serif" font-size="11" lengthAdjust="spacing" textLength="159" x="2729" y="394.6348">attributes : RecordOfAnyType</text><ellipse cx="2720" cy="403.9551" rx="3" ry="3" style="stroke:#038048;stroke-width:1.0;fill:none;"/><text fill="#000000" font-family="sans-serif" font-size="11" lengthAdjust="spacing" textLength="51" x="2729" y="407.5898">id : string</text><ellipse cx="2720" cy="416.9102" rx="3" ry="3" style="stroke:#038048;stroke-width:1.0;fill:none;"/><text fill="#000000" font-family="sans-serif" font-size="11" lengthAdjust="spacing" textLength="113" x="2729" y="420.5449">inputs : ElementInput</text><ellipse cx="2720" cy="429.8652" rx="3" ry="3" style="stroke:#038048;stroke-width:1.0;fill:none;"/><text fill="#000000" font-family="sans-serif" font-size="11" lengthAdjust="spacing" textLength="70" x="2729" y="433.5">name : string</text><ellipse cx="2720" cy="442.8203" rx="3" ry="3" style="stroke:#038048;stroke-width:1.0;fill:none;"/><text fill="#000000" font-family="sans-serif" font-size="11" lengthAdjust="spacing" textLength="83" x="2729" y="446.4551">outputs : string</text><ellipse cx="2720" cy="455.7754" rx="3" ry="3" style="stroke:#038048;stroke-width:1.0;fill:none;"/><text fill="#000000" font-family="sans-serif" font-size="11" lengthAdjust="spacing" textLength="58" x="2729" y="459.4102">tag : string</text><ellipse cx="2720" cy="468.7305" rx="3" ry="3" style="stroke:#038048;stroke-width:1.0;fill:none;"/><text fill="#000000" font-family="sans-serif" font-size="11" lengthAdjust="spacing" textLength="106" x="2729" y="472.3652">type : ElementTypes</text><polygon fill="none" points="2720,476.6855,2724,480.6855,2720,484.6855,2716,480.6855" style="stroke:#B38D22;stroke-width:1.0;"/><text fill="#000000" font-family="sans-serif" font-size="11" lengthAdjust="spacing" textLength="226" x="2729" y="485.3203">creator : CreateStrategy&lt;ModdleElement&gt;</text><polygon fill="none" points="2720,489.6406,2724,493.6406,2720,497.6406,2716,493.6406" style="stroke:#B38D22;stroke-width:1.0;"/><text fill="#000000" font-family="sans-serif" font-size="11" lengthAdjust="spacing" textLength="204" x="2729" y="498.2754">linker : LinkStrategy&lt;ModdleElement&gt;</text><line style="stroke:#A80036;stroke-width:1.5;" x1="2710" x2="3213" y1="504.5957" y2="504.5957"/><ellipse cx="2720" cy="515.5957" fill="#84BE84" rx="3" ry="3" style="stroke:#038048;stroke-width:1.0;"/><text fill="#000000" font-family="sans-serif" font-size="11" lengthAdjust="spacing" textLength="479" x="2729" y="519.2305">create(node: StatementNode&lt;ModdleElement&gt;, attrs: RecordOfAnyType) : ModdleElement</text><ellipse cx="2720" cy="528.5508" fill="#84BE84" rx="3" ry="3" style="stroke:#038048;stroke-width:1.0;"/><text fill="#000000" font-family="sans-serif" font-size="11" lengthAdjust="spacing" textLength="338" x="2729" y="532.1855">link(node: StatementNode&lt;ModdleElement&gt;) : ModdleElement[]</text><!--MD5=[8a244d3a1aa00a16b7caee19a09f4114]
reverse link WorkflowElement<ModdleElement> to BpmnElement--><path codeLine="17" d="M1611.5,51.27 C1611.5,62.85 1611.5,76.61 1611.5,90.75 " fill="none" id="WorkflowElement&lt;ModdleElement&gt;-backto-BpmnElement" style="stroke:#A80036;stroke-width:1.0;"/><polygon fill="none" points="1604.5,51.18,1611.5,31.18,1618.5,51.18,1604.5,51.18" style="stroke:#A80036;stroke-width:1.0;"/><!--MD5=[0f78ed75f77dcfe60270e2aed52366e0]
reverse link BpmnElement to EndElement--><path codeLine="32" d="M1338.92,198.53 C1118.15,217.44 800.7,255.35 531.5,329 C517.52,332.82 503.31,337.2 489.09,341.97 " fill="none" id="BpmnElement-backto-EndElement" style="stroke:#A80036;stroke-width:1.0;"/><polygon fill="none" points="1338.46,191.55,1358.97,196.84,1339.63,205.5,1338.46,191.55" style="stroke:#A80036;stroke-width:1.0;"/><!--MD5=[0d3e39020c8490d4eac8f1699a85bf6d]
reverse link BpmnElement to StartElement--><path codeLine="46" d="M1339.28,248.19 C1252.93,271.47 1157.56,299.26 1071.5,329 C1054.56,334.85 1037.16,341.25 1019.76,347.92 " fill="none" id="BpmnElement-backto-StartElement" style="stroke:#A80036;stroke-width:1.0;"/><polygon fill="none" points="1337.58,241.39,1358.71,242.98,1341.2,254.92,1337.58,241.39" style="stroke:#A80036;stroke-width:1.0;"/><!--MD5=[68a614104fe9d7d9374c93c24e619ae0]
reverse link BpmnElement to GatewayElement--><path codeLine="63" d="M1505.9,283.28 C1490.5,298.19 1474.57,313.62 1458.96,328.74 " fill="none" id="BpmnElement-backto-GatewayElement" style="stroke:#A80036;stroke-width:1.0;"/><polygon fill="none" points="1501.23,278.05,1520.47,269.17,1510.97,288.11,1501.23,278.05" style="stroke:#A80036;stroke-width:1.0;"/><!--MD5=[2a939948f222eacbe516086115eed77c]
reverse link BpmnElement to ProcessPropertiesElement--><path codeLine="78" d="M1717.12,283.29 C1736.92,302.47 1757.61,322.51 1777.36,341.64 " fill="none" id="BpmnElement-backto-ProcessPropertiesElement" style="stroke:#A80036;stroke-width:1.0;"/><polygon fill="none" points="1712.03,288.11,1702.53,269.17,1721.77,278.05,1712.03,288.11" style="stroke:#A80036;stroke-width:1.0;"/><!--MD5=[ee652908273f8934a8a26e31dfd50b9f]
reverse link BpmnElement to ProcessElement--><path codeLine="93" d="M1883.72,248.19 C1970.07,271.47 2065.44,299.26 2151.5,329 C2163.27,333.07 2175.27,337.4 2187.33,341.9 " fill="none" id="BpmnElement-backto-ProcessElement" style="stroke:#A80036;stroke-width:1.0;"/><polygon fill="none" points="1881.8,254.92,1864.29,242.98,1885.42,241.39,1881.8,254.92" style="stroke:#A80036;stroke-width:1.0;"/><!--MD5=[6d90ac4b981647947ccfaddad9c43b44]
reverse link BpmnElement to ServiceTaskElement--><path codeLine="107" d="M1884.08,198.53 C2104.85,217.44 2422.3,255.35 2691.5,329 C2711.12,334.37 2731.2,340.83 2751.12,347.91 " fill="none" id="BpmnElement-backto-ServiceTaskElement" style="stroke:#A80036;stroke-width:1.0;"/><polygon fill="none" points="1883.37,205.5,1864.03,196.84,1884.54,191.55,1883.37,205.5" style="stroke:#A80036;stroke-width:1.0;"/><!--MD5=[3f96c7e30cd00349d881d9f7cdd0a1d1]
@startuml
hide empty methods
hide empty fields
abstract class "BpmnElement" {
    +attributes : RecordOfAnyType
    +id : string
    +inputs : ElementInput
    +name : string
    +outputs : string
    +tag : string
    #creator : CreateStrategy<ModdleElement>
    #linker : LinkStrategy<ModdleElement>
    +create(node: StatementNode<ModdleElement>, attrs: RecordOfAnyType) : ModdleElement
    +link(node: StatementNode<ModdleElement>) : ModdleElement[]
}
class "WorkflowElement<ModdleElement>"
hide "WorkflowElement<ModdleElement>" circle
"WorkflowElement<ModdleElement>" <|- - "BpmnElement"
class "EndElement" {
    +attributes : object
    +id : string
    +inputs : ElementInput
    +name : string
    +outputs : string
    +statement : undefined | string
    +tag : string
    +utils : UtilsService
    #creator : CreateStrategy<ModdleElement>
    #linker : LinkStrategy<ModdleElement>
    +create(node: StatementNode<ModdleElement>, attrs: RecordOfAnyType) : ModdleElement
    +link(node: StatementNode<ModdleElement>) : ModdleElement[]
}
"BpmnElement" <|- - "EndElement"
class "StartElement" {
    +attributes : object
    +id : string
    +inputs : ElementInput
    +name : string
    +outputs : string
    +tag : string
    +utils : UtilsService
    #creator : CreateStrategy<ModdleElement>
    #linker : LinkStrategy<ModdleElement>
    +create(node: StatementNode<ModdleElement>, attrs: RecordOfAnyType) : ModdleElement
    +link(node: StatementNode<ModdleElement>) : ModdleElement[]
}
"BpmnElement" <|- - "StartElement"
class "GatewayElement" {
    +attributes : object
    +id : string
    +inputs : ElementInput
    +name : string
    +outputs : string
    +properties : object
    +statement : undefined | string
    +tag : string
    {static} +type : ElementTypes
    +utils : UtilsService
    #creator : CreateStrategy<ModdleElement>
    #linker : LinkStrategy<ModdleElement>
    +create(node: StatementNode<ModdleElement>, attrs: RecordOfAnyType) : ModdleElement
    +link(node: StatementNode<ModdleElement>) : ModdleElement[]
}
"BpmnElement" <|- - "GatewayElement"
class "ProcessPropertiesElement" {
    +attributes : object
    +id : string
    +inputs : ElementInput
    +name : string
    +outputs : string
    +tag : string
    {static} +type : ElementTypes
    +utils : UtilsService
    #creator : CreateStrategy<ModdleElement>
    #linker : LinkStrategy<ModdleElement>
    +create(node: StatementNode<ModdleElement>, attrs: RecordOfAnyType) : ModdleElement
    +link(node: StatementNode<ModdleElement>) : ModdleElement[]
}
"BpmnElement" <|- - "ProcessPropertiesElement"
class "ProcessElement" {
    +attributes : object
    +id : string
    +inputs : ElementInput
    +name : string
    +outputs : string
    +tag : string
    {static} +type : ElementTypes
    +utils : UtilsService
    #creator : CreateStrategy<ModdleElement>
    #linker : LinkStrategy<ModdleElement>
    +create(node: StatementNode<ModdleElement>, attrs: RecordOfAnyType) : ModdleElement
    +link(node: StatementNode<ModdleElement>) : ModdleElement[]
}
"BpmnElement" <|- - "ProcessElement"
abstract class "ServiceTaskElement" {
    +attributes : RecordOfAnyType
    +id : string
    +inputs : ElementInput
    +name : string
    +outputs : string
    +tag : string
    +type : ElementTypes
    #creator : CreateStrategy<ModdleElement>
    #linker : LinkStrategy<ModdleElement>
    +create(node: StatementNode<ModdleElement>, attrs: RecordOfAnyType) : ModdleElement
    +link(node: StatementNode<ModdleElement>) : ModdleElement[]
}
"BpmnElement" <|- - "ServiceTaskElement"
@enduml

PlantUML version 1.2021.14(Fri Nov 12 22:16:50 IST 2021)
(GPL source distribution)
Java Runtime: OpenJDK Runtime Environment
JVM: OpenJDK 64-Bit Server VM
Default Encoding: UTF-8
Language: en
Country: IN
--></g></svg>