<?xml version="1.0" encoding="UTF-8" standalone="no"?><svg xmlns="http://www.w3.org/2000/svg" xmlns:xlink="http://www.w3.org/1999/xlink" contentScriptType="application/ecmascript" contentStyleType="text/css" height="434px" preserveAspectRatio="none" style="width:833px;height:434px;background:#FFFFFF;" version="1.1" viewBox="0 0 833 434" width="833px" zoomAndPan="magnify"><defs><filter height="300%" id="f1qah6onr3tm20" width="300%" x="-1" y="-1"><feGaussianBlur result="blurOut" stdDeviation="2.0"/><feColorMatrix in="blurOut" result="blurOut2" type="matrix" values="0 0 0 0 0 0 0 0 0 0 0 0 0 0 0 0 0 0 .4 0"/><feOffset dx="4.0" dy="4.0" in="blurOut2" result="blurOut3"/><feBlend in="SourceGraphic" in2="blurOut3" mode="normal"/></filter></defs><g><!--MD5=[bf3701a08da1c1c4c51fdf1a4fe800f4]
class BpmnAction--><rect codeLine="3" fill="#FEFECE" filter="url(#f1qah6onr3tm20)" height="130.6855" id="BpmnAction" style="stroke:#A80036;stroke-width:1.5;" width="365" x="297.5" y="91"/><ellipse cx="441.75" cy="107" fill="#A9DCDF" rx="11" ry="11" style="stroke:#A80036;stroke-width:1.0;"/><path d="M441.6133,102.3481 L440.4595,107.4199 L442.7754,107.4199 Z M440.1191,100.1069 L443.1157,100.1069 L446.4609,112.5 L444.0122,112.5 L443.2485,109.437 L439.9697,109.437 L439.2227,112.5 L436.7739,112.5 Z " fill="#000000"/><text fill="#000000" font-family="sans-serif" font-size="12" font-style="italic" lengthAdjust="spacing" textLength="68" x="462.25" y="111.5352">BpmnAction</text><line style="stroke:#A80036;stroke-width:1.5;" x1="298.5" x2="661.5" y1="123" y2="123"/><ellipse cx="308.5" cy="134" rx="3" ry="3" style="stroke:#038048;stroke-width:1.0;fill:none;"/><text fill="#000000" font-family="sans-serif" font-size="11" lengthAdjust="spacing" textLength="339" x="317.5" y="137.6348">elements : Constructor&lt;WorkflowElement&lt;ModdleElement&gt;&gt;[]</text><ellipse cx="308.5" cy="146.9551" rx="3" ry="3" style="stroke:#038048;stroke-width:1.0;fill:none;"/><text fill="#000000" font-family="sans-serif" font-size="11" lengthAdjust="spacing" textLength="51" x="317.5" y="150.5898">id : string</text><ellipse cx="308.5" cy="159.9102" rx="3" ry="3" style="stroke:#038048;stroke-width:1.0;fill:none;"/><text fill="#000000" font-family="sans-serif" font-size="11" lengthAdjust="spacing" textLength="70" x="317.5" y="163.5449">name : string</text><ellipse cx="308.5" cy="172.8652" rx="3" ry="3" style="stroke:#038048;stroke-width:1.0;fill:none;"/><text fill="#000000" font-family="sans-serif" font-size="11" lengthAdjust="spacing" textLength="235" x="317.5" y="176.5">prompts : Constructor&lt;WorkflowPrompt&gt;[]</text><ellipse cx="308.5" cy="185.8203" rx="3" ry="3" style="stroke:#038048;stroke-width:1.0;fill:none;"/><text fill="#000000" font-family="sans-serif" font-size="11" lengthAdjust="spacing" textLength="177" x="317.5" y="189.4551">state : State&lt;RecordOfAnyType&gt;</text><ellipse cx="308.5" cy="198.7754" rx="3" ry="3" style="stroke:#038048;stroke-width:1.0;fill:none;"/><text fill="#000000" font-family="sans-serif" font-size="11" lengthAdjust="spacing" textLength="94" x="317.5" y="202.4102">statement : string</text><ellipse cx="308.5" cy="211.7305" rx="3" ry="3" style="stroke:#038048;stroke-width:1.0;fill:none;"/><text fill="#000000" font-family="sans-serif" font-size="11" lengthAdjust="spacing" textLength="92" x="317.5" y="215.3652">type : NodeTypes</text><!--MD5=[cc7025254d8d1e3b24456d02f4b9f599]
class WorkflowAction<ModdleElement>--><rect codeLine="12" fill="#FEFECE" filter="url(#f1qah6onr3tm20)" height="24.1328" id="WorkflowAction&lt;ModdleElement&gt;" style="stroke:#A80036;stroke-width:1.5;" width="202" x="379" y="7"/><text fill="#000000" font-family="sans-serif" font-size="12" lengthAdjust="spacing" textLength="196" x="382" y="23.6016">WorkflowAction&lt;ModdleElement&gt;</text><!--MD5=[ee134a26196b3e725d32e6bd8ea0bc57]
class ChangeColumnValueAction--><rect codeLine="15" fill="#FEFECE" filter="url(#f1qah6onr3tm20)" height="138.6855" id="ChangeColumnValueAction" style="stroke:#A80036;stroke-width:1.5;" width="336" x="7" y="282"/><ellipse cx="94.25" cy="298" fill="#ADD1B2" rx="11" ry="11" style="stroke:#A80036;stroke-width:1.0;"/><path d="M96.7231,304.1431 Q96.1421,304.4419 95.5029,304.5913 Q94.8638,304.7407 94.1582,304.7407 Q91.6514,304.7407 90.3315,303.0889 Q89.0117,301.437 89.0117,298.3159 Q89.0117,295.1865 90.3315,293.5347 Q91.6514,291.8828 94.1582,291.8828 Q94.8638,291.8828 95.5112,292.0322 Q96.1587,292.1816 96.7231,292.4805 L96.7231,295.2031 Q96.0923,294.6221 95.4988,294.3523 Q94.9053,294.0825 94.2744,294.0825 Q92.9297,294.0825 92.2449,295.1492 Q91.5601,296.2158 91.5601,298.3159 Q91.5601,300.4077 92.2449,301.4744 Q92.9297,302.541 94.2744,302.541 Q94.9053,302.541 95.4988,302.2712 Q96.0923,302.0015 96.7231,301.4204 Z " fill="#000000"/><text fill="#000000" font-family="sans-serif" font-size="12" lengthAdjust="spacing" textLength="153" x="114.75" y="302.5352">ChangeColumnValueAction</text><line style="stroke:#A80036;stroke-width:1.5;" x1="8" x2="342" y1="314" y2="314"/><ellipse cx="18" cy="325" rx="3" ry="3" style="stroke:#038048;stroke-width:1.0;fill:none;"/><text fill="#000000" font-family="sans-serif" font-size="11" lengthAdjust="spacing" textLength="214" x="27" y="328.6348">elements : typeof ChangeColumnValue[]</text><ellipse cx="18" cy="337.9551" rx="3" ry="3" style="stroke:#038048;stroke-width:1.0;fill:none;"/><text fill="#000000" font-family="sans-serif" font-size="11" lengthAdjust="spacing" textLength="51" x="27" y="341.5898">id : string</text><ellipse cx="18" cy="350.9102" rx="3" ry="3" style="stroke:#038048;stroke-width:1.0;fill:none;"/><text fill="#000000" font-family="sans-serif" font-size="11" lengthAdjust="spacing" textLength="70" x="27" y="354.5449">name : string</text><ellipse cx="18" cy="363.8652" rx="3" ry="3" style="stroke:#038048;stroke-width:1.0;fill:none;"/><text fill="#000000" font-family="sans-serif" font-size="11" lengthAdjust="spacing" textLength="177" x="27" y="367.5">state : State&lt;RecordOfAnyType&gt;</text><ellipse cx="18" cy="376.8203" rx="3" ry="3" style="stroke:#038048;stroke-width:1.0;fill:none;"/><text fill="#000000" font-family="sans-serif" font-size="11" lengthAdjust="spacing" textLength="94" x="27" y="380.4551">statement : string</text><ellipse cx="18" cy="389.7754" rx="3" ry="3" style="stroke:#038048;stroke-width:1.0;fill:none;"/><text fill="#000000" font-family="sans-serif" font-size="11" lengthAdjust="spacing" textLength="92" x="27" y="393.4102">type : NodeTypes</text><line style="stroke:#A80036;stroke-width:1.5;" x1="8" x2="342" y1="399.7305" y2="399.7305"/><ellipse cx="18" cy="410.7305" fill="#84BE84" rx="3" ry="3" style="stroke:#038048;stroke-width:1.0;"/><text fill="#000000" font-family="sans-serif" font-size="11" lengthAdjust="spacing" textLength="310" x="27" y="414.3652">prompts : (typeof ToColumnInput | typeof ToValueInput)[]</text><!--MD5=[7a28bf632047a4a6afea4541613498d9]
class ReadColumnValueAction--><rect codeLine="25" fill="#FEFECE" filter="url(#f1qah6onr3tm20)" height="130.6855" id="ReadColumnValueAction" style="stroke:#A80036;stroke-width:1.5;" width="203" x="378.5" y="286"/><ellipse cx="407.45" cy="302" fill="#ADD1B2" rx="11" ry="11" style="stroke:#A80036;stroke-width:1.0;"/><path d="M409.9231,308.1431 Q409.3421,308.4419 408.7029,308.5913 Q408.0638,308.7407 407.3582,308.7407 Q404.8514,308.7407 403.5315,307.0889 Q402.2117,305.437 402.2117,302.3159 Q402.2117,299.1865 403.5315,297.5347 Q404.8514,295.8828 407.3582,295.8828 Q408.0638,295.8828 408.7112,296.0322 Q409.3587,296.1816 409.9231,296.4805 L409.9231,299.2031 Q409.2923,298.6221 408.6988,298.3523 Q408.1053,298.0825 407.4744,298.0825 Q406.1297,298.0825 405.4449,299.1492 Q404.7601,300.2158 404.7601,302.3159 Q404.7601,304.4077 405.4449,305.4744 Q406.1297,306.541 407.4744,306.541 Q408.1053,306.541 408.6988,306.2712 Q409.2923,306.0015 409.9231,305.4204 Z " fill="#000000"/><text fill="#000000" font-family="sans-serif" font-size="12" lengthAdjust="spacing" textLength="140" x="424.55" y="306.5352">ReadColumnValueAction</text><line style="stroke:#A80036;stroke-width:1.5;" x1="379.5" x2="580.5" y1="318" y2="318"/><ellipse cx="389.5" cy="329" rx="3" ry="3" style="stroke:#038048;stroke-width:1.0;fill:none;"/><text fill="#000000" font-family="sans-serif" font-size="11" lengthAdjust="spacing" textLength="95" x="398.5" y="332.6348">elements : never[]</text><ellipse cx="389.5" cy="341.9551" rx="3" ry="3" style="stroke:#038048;stroke-width:1.0;fill:none;"/><text fill="#000000" font-family="sans-serif" font-size="11" lengthAdjust="spacing" textLength="51" x="398.5" y="345.5898">id : string</text><ellipse cx="389.5" cy="354.9102" rx="3" ry="3" style="stroke:#038048;stroke-width:1.0;fill:none;"/><text fill="#000000" font-family="sans-serif" font-size="11" lengthAdjust="spacing" textLength="70" x="398.5" y="358.5449">name : string</text><ellipse cx="389.5" cy="367.8652" rx="3" ry="3" style="stroke:#038048;stroke-width:1.0;fill:none;"/><text fill="#000000" font-family="sans-serif" font-size="11" lengthAdjust="spacing" textLength="93" x="398.5" y="371.5">prompts : never[]</text><ellipse cx="389.5" cy="380.8203" rx="3" ry="3" style="stroke:#038048;stroke-width:1.0;fill:none;"/><text fill="#000000" font-family="sans-serif" font-size="11" lengthAdjust="spacing" textLength="177" x="398.5" y="384.4551">state : State&lt;RecordOfAnyType&gt;</text><ellipse cx="389.5" cy="393.7754" rx="3" ry="3" style="stroke:#038048;stroke-width:1.0;fill:none;"/><text fill="#000000" font-family="sans-serif" font-size="11" lengthAdjust="spacing" textLength="94" x="398.5" y="397.4102">statement : string</text><ellipse cx="389.5" cy="406.7305" rx="3" ry="3" style="stroke:#038048;stroke-width:1.0;fill:none;"/><text fill="#000000" font-family="sans-serif" font-size="11" lengthAdjust="spacing" textLength="92" x="398.5" y="410.3652">type : NodeTypes</text><!--MD5=[0985d049a9a41cb11f8ca2cdabbf2d8f]
class SendEmailAction--><rect codeLine="35" fill="#FEFECE" filter="url(#f1qah6onr3tm20)" height="130.6855" id="SendEmailAction" style="stroke:#A80036;stroke-width:1.5;" width="203" x="616.5" y="286"/><ellipse cx="666.75" cy="302" fill="#ADD1B2" rx="11" ry="11" style="stroke:#A80036;stroke-width:1.0;"/><path d="M669.2231,308.1431 Q668.6421,308.4419 668.0029,308.5913 Q667.3638,308.7407 666.6582,308.7407 Q664.1514,308.7407 662.8315,307.0889 Q661.5117,305.437 661.5117,302.3159 Q661.5117,299.1865 662.8315,297.5347 Q664.1514,295.8828 666.6582,295.8828 Q667.3638,295.8828 668.0112,296.0322 Q668.6587,296.1816 669.2231,296.4805 L669.2231,299.2031 Q668.5923,298.6221 667.9988,298.3523 Q667.4053,298.0825 666.7744,298.0825 Q665.4297,298.0825 664.7449,299.1492 Q664.0601,300.2158 664.0601,302.3159 Q664.0601,304.4077 664.7449,305.4744 Q665.4297,306.541 666.7744,306.541 Q667.4053,306.541 667.9988,306.2712 Q668.5923,306.0015 669.2231,305.4204 Z " fill="#000000"/><text fill="#000000" font-family="sans-serif" font-size="12" lengthAdjust="spacing" textLength="94" x="687.25" y="306.5352">SendEmailAction</text><line style="stroke:#A80036;stroke-width:1.5;" x1="617.5" x2="818.5" y1="318" y2="318"/><ellipse cx="627.5" cy="329" rx="3" ry="3" style="stroke:#038048;stroke-width:1.0;fill:none;"/><text fill="#000000" font-family="sans-serif" font-size="11" lengthAdjust="spacing" textLength="156" x="636.5" y="332.6348">elements : typeof SendEmail[]</text><ellipse cx="627.5" cy="341.9551" rx="3" ry="3" style="stroke:#038048;stroke-width:1.0;fill:none;"/><text fill="#000000" font-family="sans-serif" font-size="11" lengthAdjust="spacing" textLength="51" x="636.5" y="345.5898">id : string</text><ellipse cx="627.5" cy="354.9102" rx="3" ry="3" style="stroke:#038048;stroke-width:1.0;fill:none;"/><text fill="#000000" font-family="sans-serif" font-size="11" lengthAdjust="spacing" textLength="70" x="636.5" y="358.5449">name : string</text><ellipse cx="627.5" cy="367.8652" rx="3" ry="3" style="stroke:#038048;stroke-width:1.0;fill:none;"/><text fill="#000000" font-family="sans-serif" font-size="11" lengthAdjust="spacing" textLength="170" x="636.5" y="371.5">prompts : typeof EmailToInput[]</text><ellipse cx="627.5" cy="380.8203" rx="3" ry="3" style="stroke:#038048;stroke-width:1.0;fill:none;"/><text fill="#000000" font-family="sans-serif" font-size="11" lengthAdjust="spacing" textLength="177" x="636.5" y="384.4551">state : State&lt;RecordOfAnyType&gt;</text><ellipse cx="627.5" cy="393.7754" rx="3" ry="3" style="stroke:#038048;stroke-width:1.0;fill:none;"/><text fill="#000000" font-family="sans-serif" font-size="11" lengthAdjust="spacing" textLength="94" x="636.5" y="397.4102">statement : string</text><ellipse cx="627.5" cy="406.7305" rx="3" ry="3" style="stroke:#038048;stroke-width:1.0;fill:none;"/><text fill="#000000" font-family="sans-serif" font-size="11" lengthAdjust="spacing" textLength="92" x="636.5" y="410.3652">type : NodeTypes</text><!--MD5=[855efaf52b196e66c5a33c2549cddcdf]
reverse link WorkflowAction<ModdleElement> to BpmnAction--><path codeLine="14" d="M480,51.19 C480,63.05 480,77.06 480,90.89 " fill="none" id="WorkflowAction&lt;ModdleElement&gt;-backto-BpmnAction" style="stroke:#A80036;stroke-width:1.0;"/><polygon fill="none" points="473,51.09,480,31.09,487,51.09,473,51.09" style="stroke:#A80036;stroke-width:1.0;"/><!--MD5=[1ece48e786828b62c6c4ce34ab0764ea]
reverse link BpmnAction to ChangeColumnValueAction--><path codeLine="24" d="M361.01,232.8 C335.44,248.97 308.56,265.98 283.43,281.89 " fill="none" id="BpmnAction-backto-ChangeColumnValueAction" style="stroke:#A80036;stroke-width:1.0;"/><polygon fill="none" points="357.37,226.81,378.02,222.03,364.86,238.64,357.37,226.81" style="stroke:#A80036;stroke-width:1.0;"/><!--MD5=[40a7c363a4866a6e2c6c862fd0de5e28]
reverse link BpmnAction to ReadColumnValueAction--><path codeLine="34" d="M480,242.25 C480,256.82 480,271.76 480,285.7 " fill="none" id="BpmnAction-backto-ReadColumnValueAction" style="stroke:#A80036;stroke-width:1.0;"/><polygon fill="none" points="473,242.03,480,222.03,487,242.03,473,242.03" style="stroke:#A80036;stroke-width:1.0;"/><!--MD5=[f8553c286de7118c8d47eb27f99c5410]
reverse link BpmnAction to SendEmailAction--><path codeLine="44" d="M575.27,234.75 C596.09,251.64 617.93,269.35 638.09,285.7 " fill="none" id="BpmnAction-backto-SendEmailAction" style="stroke:#A80036;stroke-width:1.0;"/><polygon fill="none" points="570.71,240.07,559.58,222.03,579.52,229.19,570.71,240.07" style="stroke:#A80036;stroke-width:1.0;"/><!--MD5=[5e968facb8d21aff84a042914b70fdeb]
@startuml
hide empty methods
hide empty fields
abstract class "BpmnAction" {
    +elements : Constructor<WorkflowElement<ModdleElement>>[]
    +id : string
    +name : string
    +prompts : Constructor<WorkflowPrompt>[]
    +state : State<RecordOfAnyType>
    +statement : string
    +type : NodeTypes
}
class "WorkflowAction<ModdleElement>"
hide "WorkflowAction<ModdleElement>" circle
"WorkflowAction<ModdleElement>" <|- - "BpmnAction"
class "ChangeColumnValueAction" {
    +elements : typeof ChangeColumnValue[]
    +id : string
    +name : string
    +prompts : (typeof ToColumnInput | typeof ToValueInput)[]
    +state : State<RecordOfAnyType>
    +statement : string
    +type : NodeTypes
}
"BpmnAction" <|- - "ChangeColumnValueAction"
class "ReadColumnValueAction" {
    +elements : never[]
    +id : string
    +name : string
    +prompts : never[]
    +state : State<RecordOfAnyType>
    +statement : string
    +type : NodeTypes
}
"BpmnAction" <|- - "ReadColumnValueAction"
class "SendEmailAction" {
    +elements : typeof SendEmail[]
    +id : string
    +name : string
    +prompts : typeof EmailToInput[]
    +state : State<RecordOfAnyType>
    +statement : string
    +type : NodeTypes
}
"BpmnAction" <|- - "SendEmailAction"
@enduml

PlantUML version 1.2021.14(Fri Nov 12 22:16:50 IST 2021)
(GPL source distribution)
Java Runtime: OpenJDK Runtime Environment
JVM: OpenJDK 64-Bit Server VM
Default Encoding: UTF-8
Language: en
Country: IN
--></g></svg>