<?xml version="1.0" encoding="UTF-8" standalone="no"?><svg xmlns="http://www.w3.org/2000/svg" xmlns:xlink="http://www.w3.org/1999/xlink" contentScriptType="application/ecmascript" contentStyleType="text/css" height="230px" preserveAspectRatio="none" style="width:402px;height:230px;background:#FFFFFF;" version="1.1" viewBox="0 0 402 230" width="402px" zoomAndPan="magnify"><defs><filter height="300%" id="fgxamz6u4ypyb" width="300%" x="-1" y="-1"><feGaussianBlur result="blurOut" stdDeviation="2.0"/><feColorMatrix in="blurOut" result="blurOut2" type="matrix" values="0 0 0 0 0 0 0 0 0 0 0 0 0 0 0 0 0 0 .4 0"/><feOffset dx="4.0" dy="4.0" in="blurOut2" result="blurOut3"/><feBlend in="SourceGraphic" in2="blurOut3" mode="normal"/></filter></defs><g><!--MD5=[898b281be043829a845ee9711a489e64]
class BpmnNodesService<E>--><rect codeLine="3" fill="#FEFECE" filter="url(#fgxamz6u4ypyb)" height="125.7305" id="BpmnNodesService&lt;E&gt;" style="stroke:#A80036;stroke-width:1.5;" width="381" x="7" y="91"/><ellipse cx="124.75" cy="107" fill="#ADD1B2" rx="11" ry="11" style="stroke:#A80036;stroke-width:1.0;"/><path d="M127.2231,113.1431 Q126.6421,113.4419 126.0029,113.5913 Q125.3638,113.7407 124.6582,113.7407 Q122.1514,113.7407 120.8315,112.0889 Q119.5117,110.437 119.5117,107.3159 Q119.5117,104.1865 120.8315,102.5347 Q122.1514,100.8828 124.6582,100.8828 Q125.3638,100.8828 126.0112,101.0322 Q126.6587,101.1816 127.2231,101.4805 L127.2231,104.2031 Q126.5923,103.6221 125.9988,103.3523 Q125.4053,103.0825 124.7744,103.0825 Q123.4297,103.0825 122.7449,104.1492 Q122.0601,105.2158 122.0601,107.3159 Q122.0601,109.4077 122.7449,110.4744 Q123.4297,111.541 124.7744,111.541 Q125.4053,111.541 125.9988,111.2712 Q126.5923,111.0015 127.2231,110.4204 Z " fill="#000000"/><text fill="#000000" font-family="sans-serif" font-size="12" lengthAdjust="spacing" textLength="137" x="145.25" y="111.5352">BpmnNodesService&lt;E&gt;</text><line style="stroke:#A80036;stroke-width:1.5;" x1="8" x2="387" y1="123" y2="123"/><ellipse cx="18" cy="134" rx="3" ry="3" style="stroke:#038048;stroke-width:1.0;fill:none;"/><text fill="#000000" font-family="sans-serif" font-size="11" lengthAdjust="spacing" textLength="318" x="27" y="137.6348">actions : Map&lt;string, Constructor&lt;WorkflowAction&lt;E&gt;&gt;&gt;</text><ellipse cx="18" cy="146.9551" rx="3" ry="3" style="stroke:#038048;stroke-width:1.0;fill:none;"/><text fill="#000000" font-family="sans-serif" font-size="11" lengthAdjust="spacing" textLength="308" x="27" y="150.5898">events : Map&lt;string, Constructor&lt;WorkflowEvent&lt;E&gt;&gt;&gt;</text><line style="stroke:#A80036;stroke-width:1.5;" x1="8" x2="387" y1="156.9102" y2="156.9102"/><ellipse cx="18" cy="167.9102" fill="#84BE84" rx="3" ry="3" style="stroke:#038048;stroke-width:1.0;"/><text fill="#000000" font-family="sans-serif" font-size="11" lengthAdjust="spacing" textLength="184" x="27" y="171.5449">getActions() : WorkflowNode&lt;E&gt;[]</text><ellipse cx="18" cy="180.8652" fill="#84BE84" rx="3" ry="3" style="stroke:#038048;stroke-width:1.0;"/><text fill="#000000" font-family="sans-serif" font-size="11" lengthAdjust="spacing" textLength="264" x="27" y="184.5">getEvents(trigger: boolean) : WorkflowNode&lt;E&gt;[]</text><ellipse cx="18" cy="193.8203" fill="#84BE84" rx="3" ry="3" style="stroke:#038048;stroke-width:1.0;"/><text fill="#000000" font-family="sans-serif" font-size="11" lengthAdjust="spacing" textLength="326" x="27" y="197.4551">getNodeByName(name: string, id: string) : WorkflowNode&lt;E&gt;</text><ellipse cx="18" cy="206.7754" fill="#84BE84" rx="3" ry="3" style="stroke:#038048;stroke-width:1.0;"/><text fill="#000000" font-family="sans-serif" font-size="11" lengthAdjust="spacing" textLength="355" x="27" y="210.4102">mapInputs(prompts: typeof WorkflowPrompt[]) : WorkflowPrompt[]</text><!--MD5=[ed9767b8364c15eca1364998a8782486]
class NodeService<E>--><rect codeLine="11" fill="#FEFECE" filter="url(#fgxamz6u4ypyb)" height="24.1328" id="NodeService&lt;E&gt;" style="stroke:#A80036;stroke-width:1.5;" width="104" x="145.5" y="7"/><text fill="#000000" font-family="sans-serif" font-size="12" lengthAdjust="spacing" textLength="98" x="148.5" y="23.6016">NodeService&lt;E&gt;</text><!--MD5=[38524955a76c636f3caa9df33c14597c]
reverse link NodeService<E> to BpmnNodesService<E>--><path codeLine="13" d="M197.5,51.5 C197.5,63.36 197.5,77.31 197.5,91 " fill="none" id="NodeService&lt;E&gt;-backto-BpmnNodesService&lt;E&gt;" style="stroke:#A80036;stroke-width:1.0;"/><polygon fill="none" points="190.5,51.34,197.5,31.34,204.5,51.34,190.5,51.34" style="stroke:#A80036;stroke-width:1.0;"/><!--MD5=[f30724dde9cd67a89f6a1c0723d2cd06]
@startuml
hide empty methods
hide empty fields
class "BpmnNodesService<E>" {
    +actions : Map<string, Constructor<WorkflowAction<E>>>
    +events : Map<string, Constructor<WorkflowEvent<E>>>
    +getActions() : WorkflowNode<E>[]
    +getEvents(trigger: boolean) : WorkflowNode<E>[]
    +getNodeByName(name: string, id: string) : WorkflowNode<E>
    +mapInputs(prompts: typeof WorkflowPrompt[]) : WorkflowPrompt[]
}
class "NodeService<E>"
hide "NodeService<E>" circle
"NodeService<E>" <|- - "BpmnNodesService<E>"
@enduml

PlantUML version 1.2021.14(Fri Nov 12 22:16:50 IST 2021)
(GPL source distribution)
Java Runtime: OpenJDK Runtime Environment
JVM: OpenJDK 64-Bit Server VM
Default Encoding: UTF-8
Language: en
Country: IN
--></g></svg>