<?xml version="1.0" encoding="UTF-8" standalone="no"?><svg xmlns="http://www.w3.org/2000/svg" xmlns:xlink="http://www.w3.org/1999/xlink" contentScriptType="application/ecmascript" contentStyleType="text/css" height="230px" preserveAspectRatio="none" style="width:639px;height:230px;background:#FFFFFF;" version="1.1" viewBox="0 0 639 230" width="639px" zoomAndPan="magnify"><defs><filter height="300%" id="figeweymrtv8w" width="300%" x="-1" y="-1"><feGaussianBlur result="blurOut" stdDeviation="2.0"/><feColorMatrix in="blurOut" result="blurOut2" type="matrix" values="0 0 0 0 0 0 0 0 0 0 0 0 0 0 0 0 0 0 .4 0"/><feOffset dx="4.0" dy="4.0" in="blurOut2" result="blurOut3"/><feBlend in="SourceGraphic" in2="blurOut3" mode="normal"/></filter></defs><g><!--MD5=[440716f0424457465c68233f137ae283]
class BpmnBuilderService--><rect codeLine="3" fill="#FEFECE" filter="url(#figeweymrtv8w)" height="125.7305" id="BpmnBuilderService" style="stroke:#A80036;stroke-width:1.5;" width="618" x="7" y="91"/><ellipse cx="255.25" cy="107" fill="#ADD1B2" rx="11" ry="11" style="stroke:#A80036;stroke-width:1.0;"/><path d="M257.7231,113.1431 Q257.1421,113.4419 256.5029,113.5913 Q255.8638,113.7407 255.1582,113.7407 Q252.6514,113.7407 251.3315,112.0889 Q250.0117,110.437 250.0117,107.3159 Q250.0117,104.1865 251.3315,102.5347 Q252.6514,100.8828 255.1582,100.8828 Q255.8638,100.8828 256.5112,101.0322 Q257.1587,101.1816 257.7231,101.4805 L257.7231,104.2031 Q257.0923,103.6221 256.4988,103.3523 Q255.9053,103.0825 255.2744,103.0825 Q253.9297,103.0825 253.2449,104.1492 Q252.5601,105.2158 252.5601,107.3159 Q252.5601,109.4077 253.2449,110.4744 Q253.9297,111.541 255.2744,111.541 Q255.9053,111.541 256.4988,111.2712 Q257.0923,111.0015 257.7231,110.4204 Z " fill="#000000"/><text fill="#000000" font-family="sans-serif" font-size="12" lengthAdjust="spacing" textLength="113" x="275.75" y="111.5352">BpmnBuilderService</text><line style="stroke:#A80036;stroke-width:1.5;" x1="8" x2="624" y1="123" y2="123"/><rect fill="none" height="6" style="stroke:#C82930;stroke-width:1.0;" width="6" x="15" y="131"/><text fill="#000000" font-family="sans-serif" font-size="11" lengthAdjust="spacing" textLength="113" x="27" y="137.6348">root : ModdleElement</text><line style="stroke:#A80036;stroke-width:1.5;" x1="8" x2="624" y1="143.9551" y2="143.9551"/><ellipse cx="18" cy="154.9551" fill="#84BE84" rx="3" ry="3" style="stroke:#038048;stroke-width:1.0;"/><text fill="#000000" font-family="sans-serif" font-size="11" lengthAdjust="spacing" textLength="452" x="27" y="158.5898">build(statement: Statement&lt;ModdleElement, RecordOfAnyType&gt;) : Promise&lt;string&gt;</text><ellipse cx="18" cy="167.9102" fill="#84BE84" rx="3" ry="3" style="stroke:#038048;stroke-width:1.0;"/><text fill="#000000" font-family="sans-serif" font-size="11" lengthAdjust="spacing" textLength="208" x="27" y="171.5449">restore(xml: string) : Promise&lt;object&gt;</text><rect fill="#F24D5C" height="6" style="stroke:#C82930;stroke-width:1.0;" width="6" x="15" y="177.8652"/><text fill="#000000" font-family="sans-serif" font-size="11" lengthAdjust="spacing" textLength="484" x="27" y="184.5">compareNode(node: WorkflowNode&lt;ModdleElement&gt;, elements: BpmnElement[]) : boolean</text><rect fill="#F24D5C" height="6" style="stroke:#C82930;stroke-width:1.0;" width="6" x="15" y="190.8203"/><text fill="#000000" font-family="sans-serif" font-size="11" lengthAdjust="spacing" textLength="316" x="27" y="197.4551">getProperties(element: ModdleElement) : RecordOfAnyType</text><rect fill="#F24D5C" height="6" style="stroke:#C82930;stroke-width:1.0;" width="6" x="15" y="203.7754"/><text fill="#000000" font-family="sans-serif" font-size="11" lengthAdjust="spacing" textLength="592" x="27" y="210.4102">saveProperties(state: StateMap&lt;RecordOfAnyType&gt;, node: StatementNode&lt;ModdleElement&gt;) : ModdleElement</text><!--MD5=[31549e25d226ae04b0bb8995334b5bce]
class BuilderService<ModdleElement, RecordOfAnyType>--><rect codeLine="11" fill="#FEFECE" filter="url(#figeweymrtv8w)" height="24.1328" id="BuilderService&lt;ModdleElement, RecordOfAnyType&gt;" style="stroke:#A80036;stroke-width:1.5;" width="307" x="162.5" y="7"/><text fill="#000000" font-family="sans-serif" font-size="12" lengthAdjust="spacing" textLength="301" x="165.5" y="23.6016">BuilderService&lt;ModdleElement, RecordOfAnyType&gt;</text><!--MD5=[1837b752aa225c05f7a62178d0610960]
reverse link BuilderService<ModdleElement, RecordOfAnyType> to BpmnBuilderService--><path codeLine="13" d="M316,51.5 C316,63.36 316,77.31 316,91 " fill="none" id="BuilderService&lt;ModdleElement, RecordOfAnyType&gt;-backto-BpmnBuilderService" style="stroke:#A80036;stroke-width:1.0;"/><polygon fill="none" points="309,51.34,316,31.34,323,51.34,309,51.34" style="stroke:#A80036;stroke-width:1.0;"/><!--MD5=[36d25621d14e0a19187d6bcad4138d19]
@startuml
hide empty methods
hide empty fields
class "BpmnBuilderService" {
    -root : ModdleElement
    +build(statement: Statement<ModdleElement, RecordOfAnyType>) : Promise<string>
    +restore(xml: string) : Promise<object>
    -compareNode(node: WorkflowNode<ModdleElement>, elements: BpmnElement[]) : boolean
    -getProperties(element: ModdleElement) : RecordOfAnyType
    -saveProperties(state: StateMap<RecordOfAnyType>, node: StatementNode<ModdleElement>) : ModdleElement
}
class "BuilderService<ModdleElement, RecordOfAnyType>"
hide "BuilderService<ModdleElement, RecordOfAnyType>" circle
"BuilderService<ModdleElement, RecordOfAnyType>" <|- - "BpmnBuilderService"
@enduml

PlantUML version 1.2021.14(Fri Nov 12 22:16:50 IST 2021)
(GPL source distribution)
Java Runtime: OpenJDK Runtime Environment
JVM: OpenJDK 64-Bit Server VM
Default Encoding: UTF-8
Language: en
Country: IN
--></g></svg>