<?xml version="1.0" encoding="UTF-8" standalone="no"?><svg xmlns="http://www.w3.org/2000/svg" xmlns:xlink="http://www.w3.org/1999/xlink" contentScriptType="application/ecmascript" contentStyleType="text/css" height="350px" preserveAspectRatio="none" style="width:386px;height:350px;background:#FFFFFF;" version="1.1" viewBox="0 0 386 350" width="386px" zoomAndPan="magnify"><defs><filter height="300%" id="f1szqwglcox7zn" width="300%" x="-1" y="-1"><feGaussianBlur result="blurOut" stdDeviation="2.0"/><feColorMatrix in="blurOut" result="blurOut2" type="matrix" values="0 0 0 0 0 0 0 0 0 0 0 0 0 0 0 0 0 0 .4 0"/><feOffset dx="4.0" dy="4.0" in="blurOut2" result="blurOut3"/><feBlend in="SourceGraphic" in2="blurOut3" mode="normal"/></filter></defs><g><!--MD5=[ee134a26196b3e725d32e6bd8ea0bc57]
class ChangeColumnValueAction--><rect codeLine="3" fill="#FEFECE" filter="url(#f1szqwglcox7zn)" height="138.6855" id="ChangeColumnValueAction" style="stroke:#A80036;stroke-width:1.5;" width="336" x="21.5" y="198"/><ellipse cx="108.75" cy="214" fill="#ADD1B2" rx="11" ry="11" style="stroke:#A80036;stroke-width:1.0;"/><path d="M111.2231,220.1431 Q110.6421,220.4419 110.0029,220.5913 Q109.3638,220.7407 108.6582,220.7407 Q106.1514,220.7407 104.8315,219.0889 Q103.5117,217.437 103.5117,214.3159 Q103.5117,211.1865 104.8315,209.5347 Q106.1514,207.8828 108.6582,207.8828 Q109.3638,207.8828 110.0112,208.0322 Q110.6587,208.1816 111.2231,208.4805 L111.2231,211.2031 Q110.5923,210.6221 109.9988,210.3523 Q109.4053,210.0825 108.7744,210.0825 Q107.4297,210.0825 106.7449,211.1492 Q106.0601,212.2158 106.0601,214.3159 Q106.0601,216.4077 106.7449,217.4744 Q107.4297,218.541 108.7744,218.541 Q109.4053,218.541 109.9988,218.2712 Q110.5923,218.0015 111.2231,217.4204 Z " fill="#000000"/><text fill="#000000" font-family="sans-serif" font-size="12" lengthAdjust="spacing" textLength="153" x="129.25" y="218.5352">ChangeColumnValueAction</text><line style="stroke:#A80036;stroke-width:1.5;" x1="22.5" x2="356.5" y1="230" y2="230"/><ellipse cx="32.5" cy="241" rx="3" ry="3" style="stroke:#038048;stroke-width:1.0;fill:none;"/><text fill="#000000" font-family="sans-serif" font-size="11" lengthAdjust="spacing" textLength="214" x="41.5" y="244.6348">elements : typeof ChangeColumnValue[]</text><ellipse cx="32.5" cy="253.9551" rx="3" ry="3" style="stroke:#038048;stroke-width:1.0;fill:none;"/><text fill="#000000" font-family="sans-serif" font-size="11" lengthAdjust="spacing" textLength="51" x="41.5" y="257.5898">id : string</text><ellipse cx="32.5" cy="266.9102" rx="3" ry="3" style="stroke:#038048;stroke-width:1.0;fill:none;"/><text fill="#000000" font-family="sans-serif" font-size="11" lengthAdjust="spacing" textLength="70" x="41.5" y="270.5449">name : string</text><ellipse cx="32.5" cy="279.8652" rx="3" ry="3" style="stroke:#038048;stroke-width:1.0;fill:none;"/><text fill="#000000" font-family="sans-serif" font-size="11" lengthAdjust="spacing" textLength="177" x="41.5" y="283.5">state : State&lt;RecordOfAnyType&gt;</text><ellipse cx="32.5" cy="292.8203" rx="3" ry="3" style="stroke:#038048;stroke-width:1.0;fill:none;"/><text fill="#000000" font-family="sans-serif" font-size="11" lengthAdjust="spacing" textLength="94" x="41.5" y="296.4551">statement : string</text><ellipse cx="32.5" cy="305.7754" rx="3" ry="3" style="stroke:#038048;stroke-width:1.0;fill:none;"/><text fill="#000000" font-family="sans-serif" font-size="11" lengthAdjust="spacing" textLength="92" x="41.5" y="309.4102">type : NodeTypes</text><line style="stroke:#A80036;stroke-width:1.5;" x1="22.5" x2="356.5" y1="315.7305" y2="315.7305"/><ellipse cx="32.5" cy="326.7305" fill="#84BE84" rx="3" ry="3" style="stroke:#038048;stroke-width:1.0;"/><text fill="#000000" font-family="sans-serif" font-size="11" lengthAdjust="spacing" textLength="310" x="41.5" y="330.3652">prompts : (typeof ToColumnInput | typeof ToValueInput)[]</text><!--MD5=[bf3701a08da1c1c4c51fdf1a4fe800f4]
class BpmnAction--><rect codeLine="12" fill="#FEFECE" filter="url(#f1szqwglcox7zn)" height="130.6855" id="BpmnAction" style="stroke:#A80036;stroke-width:1.5;" width="365" x="7" y="7"/><ellipse cx="151.25" cy="23" fill="#A9DCDF" rx="11" ry="11" style="stroke:#A80036;stroke-width:1.0;"/><path d="M151.1133,18.3481 L149.9595,23.4199 L152.2754,23.4199 Z M149.6191,16.1069 L152.6157,16.1069 L155.9609,28.5 L153.5122,28.5 L152.7485,25.437 L149.4697,25.437 L148.7227,28.5 L146.2739,28.5 Z " fill="#000000"/><text fill="#000000" font-family="sans-serif" font-size="12" font-style="italic" lengthAdjust="spacing" textLength="68" x="171.75" y="27.5352">BpmnAction</text><line style="stroke:#A80036;stroke-width:1.5;" x1="8" x2="371" y1="39" y2="39"/><ellipse cx="18" cy="50" rx="3" ry="3" style="stroke:#038048;stroke-width:1.0;fill:none;"/><text fill="#000000" font-family="sans-serif" font-size="11" lengthAdjust="spacing" textLength="339" x="27" y="53.6348">elements : Constructor&lt;WorkflowElement&lt;ModdleElement&gt;&gt;[]</text><ellipse cx="18" cy="62.9551" rx="3" ry="3" style="stroke:#038048;stroke-width:1.0;fill:none;"/><text fill="#000000" font-family="sans-serif" font-size="11" lengthAdjust="spacing" textLength="51" x="27" y="66.5898">id : string</text><ellipse cx="18" cy="75.9102" rx="3" ry="3" style="stroke:#038048;stroke-width:1.0;fill:none;"/><text fill="#000000" font-family="sans-serif" font-size="11" lengthAdjust="spacing" textLength="70" x="27" y="79.5449">name : string</text><ellipse cx="18" cy="88.8652" rx="3" ry="3" style="stroke:#038048;stroke-width:1.0;fill:none;"/><text fill="#000000" font-family="sans-serif" font-size="11" lengthAdjust="spacing" textLength="235" x="27" y="92.5">prompts : Constructor&lt;WorkflowPrompt&gt;[]</text><ellipse cx="18" cy="101.8203" rx="3" ry="3" style="stroke:#038048;stroke-width:1.0;fill:none;"/><text fill="#000000" font-family="sans-serif" font-size="11" lengthAdjust="spacing" textLength="177" x="27" y="105.4551">state : State&lt;RecordOfAnyType&gt;</text><ellipse cx="18" cy="114.7754" rx="3" ry="3" style="stroke:#038048;stroke-width:1.0;fill:none;"/><text fill="#000000" font-family="sans-serif" font-size="11" lengthAdjust="spacing" textLength="94" x="27" y="118.4102">statement : string</text><ellipse cx="18" cy="127.7305" rx="3" ry="3" style="stroke:#038048;stroke-width:1.0;fill:none;"/><text fill="#000000" font-family="sans-serif" font-size="11" lengthAdjust="spacing" textLength="92" x="27" y="131.3652">type : NodeTypes</text><!--MD5=[1ece48e786828b62c6c4ce34ab0764ea]
reverse link BpmnAction to ChangeColumnValueAction--><path codeLine="21" d="M189.5,158.34 C189.5,171.51 189.5,184.97 189.5,197.72 " fill="none" id="BpmnAction-backto-ChangeColumnValueAction" style="stroke:#A80036;stroke-width:1.0;"/><polygon fill="none" points="182.5,158.03,189.5,138.03,196.5,158.03,182.5,158.03" style="stroke:#A80036;stroke-width:1.0;"/><!--MD5=[b2f638734a99db4de9c3dbdb698033d3]
@startuml
hide empty methods
hide empty fields
class "ChangeColumnValueAction" {
    +elements : typeof ChangeColumnValue[]
    +id : string
    +name : string
    +prompts : (typeof ToColumnInput | typeof ToValueInput)[]
    +state : State<RecordOfAnyType>
    +statement : string
    +type : NodeTypes
}
abstract class "BpmnAction" {
    +elements : Constructor<WorkflowElement<ModdleElement>>[]
    +id : string
    +name : string
    +prompts : Constructor<WorkflowPrompt>[]
    +state : State<RecordOfAnyType>
    +statement : string
    +type : NodeTypes
}
"BpmnAction" <|- - "ChangeColumnValueAction"
@enduml

PlantUML version 1.2021.14(Fri Nov 12 22:16:50 IST 2021)
(GPL source distribution)
Java Runtime: OpenJDK Runtime Environment
JVM: OpenJDK 64-Bit Server VM
Default Encoding: UTF-8
Language: en
Country: IN
--></g></svg>