<?xml version="1.0" encoding="UTF-8" standalone="no"?><svg xmlns="http://www.w3.org/2000/svg" xmlns:xlink="http://www.w3.org/1999/xlink" contentScriptType="application/ecmascript" contentStyleType="text/css" height="546px" preserveAspectRatio="none" style="width:250px;height:546px;background:#FFFFFF;" version="1.1" viewBox="0 0 250 546" width="250px" zoomAndPan="magnify"><defs><filter height="300%" id="f1bxjiv6ym54ma" width="300%" x="-1" y="-1"><feGaussianBlur result="blurOut" stdDeviation="2.0"/><feColorMatrix in="blurOut" result="blurOut2" type="matrix" values="0 0 0 0 0 0 0 0 0 0 0 0 0 0 0 0 0 0 .4 0"/><feOffset dx="4.0" dy="4.0" in="blurOut2" result="blurOut3"/><feBlend in="SourceGraphic" in2="blurOut3" mode="normal"/></filter></defs><g><!--MD5=[378ab4299e603492cd46816264d48321]
class ColumnInput--><rect codeLine="3" fill="#FEFECE" filter="url(#f1bxjiv6ym54ma)" height="190.5059" id="ColumnInput" style="stroke:#A80036;stroke-width:1.5;" width="229" x="7" y="91"/><ellipse cx="81.25" cy="107" fill="#ADD1B2" rx="11" ry="11" style="stroke:#A80036;stroke-width:1.0;"/><path d="M83.7231,113.1431 Q83.1421,113.4419 82.5029,113.5913 Q81.8638,113.7407 81.1582,113.7407 Q78.6514,113.7407 77.3315,112.0889 Q76.0117,110.437 76.0117,107.3159 Q76.0117,104.1865 77.3315,102.5347 Q78.6514,100.8828 81.1582,100.8828 Q81.8638,100.8828 82.5112,101.0322 Q83.1587,101.1816 83.7231,101.4805 L83.7231,104.2031 Q83.0923,103.6221 82.4988,103.3523 Q81.9053,103.0825 81.2744,103.0825 Q79.9297,103.0825 79.2449,104.1492 Q78.5601,105.2158 78.5601,107.3159 Q78.5601,109.4077 79.2449,110.4744 Q79.9297,111.541 81.2744,111.541 Q81.9053,111.541 82.4988,111.2712 Q83.0923,111.0015 83.7231,110.4204 Z " fill="#000000"/><text fill="#000000" font-family="sans-serif" font-size="12" lengthAdjust="spacing" textLength="72" x="101.75" y="111.5352">ColumnInput</text><line style="stroke:#A80036;stroke-width:1.5;" x1="8" x2="235" y1="123" y2="123"/><ellipse cx="18" cy="134" rx="3" ry="3" style="stroke:#038048;stroke-width:1.0;fill:none;"/><text fill="#000000" font-family="sans-serif" font-size="11" lengthAdjust="spacing" textLength="88" x="27" y="137.6348">inputKey : string</text><ellipse cx="18" cy="146.9551" rx="3" ry="3" style="stroke:#038048;stroke-width:1.0;fill:none;"/><text fill="#000000" font-family="sans-serif" font-size="11" lengthAdjust="spacing" textLength="112" x="27" y="150.5898">listNameField : string</text><ellipse cx="18" cy="159.9102" rx="3" ry="3" style="stroke:#038048;stroke-width:1.0;fill:none;"/><text fill="#000000" font-family="sans-serif" font-size="11" lengthAdjust="spacing" textLength="111" x="27" y="163.5449">listValueField : string</text><ellipse cx="18" cy="172.8652" rx="3" ry="3" style="stroke:#038048;stroke-width:1.0;fill:none;"/><text fill="#000000" font-family="sans-serif" font-size="11" lengthAdjust="spacing" textLength="104" x="27" y="176.5">placeholder : string</text><ellipse cx="18" cy="185.8203" rx="3" ry="3" style="stroke:#038048;stroke-width:1.0;fill:none;"/><text fill="#000000" font-family="sans-serif" font-size="11" lengthAdjust="spacing" textLength="73" x="27" y="189.4551">prefix : string</text><ellipse cx="18" cy="198.7754" rx="3" ry="3" style="stroke:#038048;stroke-width:1.0;fill:none;"/><text fill="#000000" font-family="sans-serif" font-size="11" lengthAdjust="spacing" textLength="117" x="27" y="202.4102">prevchange : function</text><ellipse cx="18" cy="211.7305" rx="3" ry="3" style="stroke:#038048;stroke-width:1.0;fill:none;"/><text fill="#000000" font-family="sans-serif" font-size="11" lengthAdjust="spacing" textLength="72" x="27" y="215.3652">suffix : string</text><line style="stroke:#A80036;stroke-width:1.5;" x1="8" x2="235" y1="221.6855" y2="221.6855"/><ellipse cx="18" cy="232.6855" fill="#84BE84" rx="3" ry="3" style="stroke:#038048;stroke-width:1.0;"/><text fill="#000000" font-family="sans-serif" font-size="11" lengthAdjust="spacing" textLength="46" x="27" y="236.3203">getValue</text><text fill="#000000" font-family="sans-serif" font-size="11" lengthAdjust="spacing" text-decoration="line-through" textLength="62" x="73" y="236.3203">(state: State</text><text fill="#000000" font-family="sans-serif" font-size="11" lengthAdjust="spacing" text-decoration="line-through" textLength="65" x="135" y="236.3203">) : S[keyof S]</text><ellipse cx="18" cy="245.6406" fill="#84BE84" rx="3" ry="3" style="stroke:#038048;stroke-width:1.0;"/><text fill="#000000" font-family="sans-serif" font-size="11" lengthAdjust="spacing" textLength="76" x="27" y="249.2754">getValueName</text><text fill="#000000" font-family="sans-serif" font-size="11" lengthAdjust="spacing" text-decoration="line-through" textLength="62" x="103" y="249.2754">(state: State</text><text fill="#000000" font-family="sans-serif" font-size="11" lengthAdjust="spacing" text-decoration="line-through" textLength="65" x="165" y="249.2754">) : S[keyof S]</text><ellipse cx="18" cy="258.5957" fill="#84BE84" rx="3" ry="3" style="stroke:#038048;stroke-width:1.0;"/><text fill="#000000" font-family="sans-serif" font-size="11" lengthAdjust="spacing" textLength="41" x="27" y="262.2305">options</text><text fill="#000000" font-family="sans-serif" font-size="11" lengthAdjust="spacing" text-decoration="line-through" textLength="62" x="68" y="262.2305">(state: State</text><text fill="#000000" font-family="sans-serif" font-size="11" lengthAdjust="spacing" text-decoration="line-through" textLength="65" x="130" y="262.2305">) : S[keyof S]</text><ellipse cx="18" cy="271.5508" fill="#84BE84" rx="3" ry="3" style="stroke:#038048;stroke-width:1.0;"/><text fill="#000000" font-family="sans-serif" font-size="11" lengthAdjust="spacing" textLength="147" x="27" y="275.1855">typeFunction() : InputTypes</text><!--MD5=[9b76d782fd53f1d7bffc4c9bacc4a440]
class WorkflowPrompt--><rect codeLine="16" fill="#FEFECE" filter="url(#f1bxjiv6ym54ma)" height="24.1328" id="WorkflowPrompt" style="stroke:#A80036;stroke-width:1.5;" width="100" x="71.5" y="7"/><text fill="#000000" font-family="sans-serif" font-size="12" lengthAdjust="spacing" textLength="94" x="74.5" y="23.6016">WorkflowPrompt</text><!--MD5=[966227c266d5f61e5ca05bc518b4edd3]
class ToColumnInput--><rect codeLine="19" fill="#FEFECE" filter="url(#f1bxjiv6ym54ma)" height="190.5059" id="ToColumnInput" style="stroke:#A80036;stroke-width:1.5;" width="229" x="7" y="342"/><ellipse cx="73.75" cy="358" fill="#ADD1B2" rx="11" ry="11" style="stroke:#A80036;stroke-width:1.0;"/><path d="M76.2231,364.1431 Q75.6421,364.4419 75.0029,364.5913 Q74.3638,364.7407 73.6582,364.7407 Q71.1514,364.7407 69.8315,363.0889 Q68.5117,361.437 68.5117,358.3159 Q68.5117,355.1865 69.8315,353.5347 Q71.1514,351.8828 73.6582,351.8828 Q74.3638,351.8828 75.0112,352.0322 Q75.6587,352.1816 76.2231,352.4805 L76.2231,355.2031 Q75.5923,354.6221 74.9988,354.3523 Q74.4053,354.0825 73.7744,354.0825 Q72.4297,354.0825 71.7449,355.1492 Q71.0601,356.2158 71.0601,358.3159 Q71.0601,360.4077 71.7449,361.4744 Q72.4297,362.541 73.7744,362.541 Q74.4053,362.541 74.9988,362.2712 Q75.5923,362.0015 76.2231,361.4204 Z " fill="#000000"/><text fill="#000000" font-family="sans-serif" font-size="12" lengthAdjust="spacing" textLength="87" x="94.25" y="362.5352">ToColumnInput</text><line style="stroke:#A80036;stroke-width:1.5;" x1="8" x2="235" y1="374" y2="374"/><ellipse cx="18" cy="385" rx="3" ry="3" style="stroke:#038048;stroke-width:1.0;fill:none;"/><text fill="#000000" font-family="sans-serif" font-size="11" lengthAdjust="spacing" textLength="88" x="27" y="388.6348">inputKey : string</text><ellipse cx="18" cy="397.9551" rx="3" ry="3" style="stroke:#038048;stroke-width:1.0;fill:none;"/><text fill="#000000" font-family="sans-serif" font-size="11" lengthAdjust="spacing" textLength="112" x="27" y="401.5898">listNameField : string</text><ellipse cx="18" cy="410.9102" rx="3" ry="3" style="stroke:#038048;stroke-width:1.0;fill:none;"/><text fill="#000000" font-family="sans-serif" font-size="11" lengthAdjust="spacing" textLength="111" x="27" y="414.5449">listValueField : string</text><ellipse cx="18" cy="423.8652" rx="3" ry="3" style="stroke:#038048;stroke-width:1.0;fill:none;"/><text fill="#000000" font-family="sans-serif" font-size="11" lengthAdjust="spacing" textLength="104" x="27" y="427.5">placeholder : string</text><ellipse cx="18" cy="436.8203" rx="3" ry="3" style="stroke:#038048;stroke-width:1.0;fill:none;"/><text fill="#000000" font-family="sans-serif" font-size="11" lengthAdjust="spacing" textLength="73" x="27" y="440.4551">prefix : string</text><ellipse cx="18" cy="449.7754" rx="3" ry="3" style="stroke:#038048;stroke-width:1.0;fill:none;"/><text fill="#000000" font-family="sans-serif" font-size="11" lengthAdjust="spacing" textLength="117" x="27" y="453.4102">prevchange : function</text><ellipse cx="18" cy="462.7305" rx="3" ry="3" style="stroke:#038048;stroke-width:1.0;fill:none;"/><text fill="#000000" font-family="sans-serif" font-size="11" lengthAdjust="spacing" textLength="72" x="27" y="466.3652">suffix : string</text><line style="stroke:#A80036;stroke-width:1.5;" x1="8" x2="235" y1="472.6855" y2="472.6855"/><ellipse cx="18" cy="483.6855" fill="#84BE84" rx="3" ry="3" style="stroke:#038048;stroke-width:1.0;"/><text fill="#000000" font-family="sans-serif" font-size="11" lengthAdjust="spacing" textLength="46" x="27" y="487.3203">getValue</text><text fill="#000000" font-family="sans-serif" font-size="11" lengthAdjust="spacing" text-decoration="line-through" textLength="62" x="73" y="487.3203">(state: State</text><text fill="#000000" font-family="sans-serif" font-size="11" lengthAdjust="spacing" text-decoration="line-through" textLength="65" x="135" y="487.3203">) : S[keyof S]</text><ellipse cx="18" cy="496.6406" fill="#84BE84" rx="3" ry="3" style="stroke:#038048;stroke-width:1.0;"/><text fill="#000000" font-family="sans-serif" font-size="11" lengthAdjust="spacing" textLength="76" x="27" y="500.2754">getValueName</text><text fill="#000000" font-family="sans-serif" font-size="11" lengthAdjust="spacing" text-decoration="line-through" textLength="62" x="103" y="500.2754">(state: State</text><text fill="#000000" font-family="sans-serif" font-size="11" lengthAdjust="spacing" text-decoration="line-through" textLength="65" x="165" y="500.2754">) : S[keyof S]</text><ellipse cx="18" cy="509.5957" fill="#84BE84" rx="3" ry="3" style="stroke:#038048;stroke-width:1.0;"/><text fill="#000000" font-family="sans-serif" font-size="11" lengthAdjust="spacing" textLength="41" x="27" y="513.2305">options</text><text fill="#000000" font-family="sans-serif" font-size="11" lengthAdjust="spacing" text-decoration="line-through" textLength="62" x="68" y="513.2305">(state: State</text><text fill="#000000" font-family="sans-serif" font-size="11" lengthAdjust="spacing" text-decoration="line-through" textLength="65" x="130" y="513.2305">) : S[keyof S]</text><ellipse cx="18" cy="522.5508" fill="#84BE84" rx="3" ry="3" style="stroke:#038048;stroke-width:1.0;"/><text fill="#000000" font-family="sans-serif" font-size="11" lengthAdjust="spacing" textLength="147" x="27" y="526.1855">typeFunction() : InputTypes</text><!--MD5=[1cbd53daa399185468e150154c6090d2]
reverse link WorkflowPrompt to ColumnInput--><path codeLine="18" d="M121.5,51.21 C121.5,62.82 121.5,76.67 121.5,90.99 " fill="none" id="WorkflowPrompt-backto-ColumnInput" style="stroke:#A80036;stroke-width:1.0;"/><polygon fill="none" points="114.5,51.12,121.5,31.12,128.5,51.12,114.5,51.12" style="stroke:#A80036;stroke-width:1.0;"/><!--MD5=[ada544014c0940298ab550cb996f6b27]
reverse link ColumnInput to ToColumnInput--><path codeLine="32" d="M121.5,302.75 C121.5,315.87 121.5,329.12 121.5,341.92 " fill="none" id="ColumnInput-backto-ToColumnInput" style="stroke:#A80036;stroke-width:1.0;"/><polygon fill="none" points="114.5,302.35,121.5,282.35,128.5,302.35,114.5,302.35" style="stroke:#A80036;stroke-width:1.0;"/><!--MD5=[14bc065be02743e9d82f24580dcfe7ce]
@startuml
hide empty methods
hide empty fields
class "ColumnInput" {
    +inputKey : string
    +listNameField : string
    +listValueField : string
    +placeholder : string
    +prefix : string
    +prevchange : function
    +suffix : string
    +getValue<S>(state: State<S>) : S[keyof S]
    +getValueName<S>(state: State<S>) : S[keyof S]
    +options<S>(state: State<S>) : S[keyof S]
    +typeFunction() : InputTypes
}
class "WorkflowPrompt"
hide "WorkflowPrompt" circle
"WorkflowPrompt" <|- - "ColumnInput"
class "ToColumnInput" {
    +inputKey : string
    +listNameField : string
    +listValueField : string
    +placeholder : string
    +prefix : string
    +prevchange : function
    +suffix : string
    +getValue<S>(state: State<S>) : S[keyof S]
    +getValueName<S>(state: State<S>) : S[keyof S]
    +options<S>(state: State<S>) : S[keyof S]
    +typeFunction() : InputTypes
}
"ColumnInput" <|- - "ToColumnInput"
@enduml

PlantUML version 1.2021.14(Fri Nov 12 22:16:50 IST 2021)
(GPL source distribution)
Java Runtime: OpenJDK Runtime Environment
JVM: OpenJDK 64-Bit Server VM
Default Encoding: UTF-8
Language: en
Country: IN
--></g></svg>