<?xml version="1.0" encoding="UTF-8" standalone="no"?><svg xmlns="http://www.w3.org/2000/svg" xmlns:xlink="http://www.w3.org/1999/xlink" contentScriptType="application/ecmascript" contentStyleType="text/css" height="295px" preserveAspectRatio="none" style="width:298px;height:295px;background:#FFFFFF;" version="1.1" viewBox="0 0 298 295" width="298px" zoomAndPan="magnify"><defs><filter height="300%" id="funer5rmfbsj2" width="300%" x="-1" y="-1"><feGaussianBlur result="blurOut" stdDeviation="2.0"/><feColorMatrix in="blurOut" result="blurOut2" type="matrix" values="0 0 0 0 0 0 0 0 0 0 0 0 0 0 0 0 0 0 .4 0"/><feOffset dx="4.0" dy="4.0" in="blurOut2" result="blurOut3"/><feBlend in="SourceGraphic" in2="blurOut3" mode="normal"/></filter></defs><g><!--MD5=[ee434b82e92df69de3322b82691f9b20]
class ConditionInput--><rect codeLine="3" fill="#FEFECE" filter="url(#funer5rmfbsj2)" height="190.5059" id="ConditionInput" style="stroke:#A80036;stroke-width:1.5;" width="277" x="7" y="91"/><ellipse cx="99.75" cy="107" fill="#ADD1B2" rx="11" ry="11" style="stroke:#A80036;stroke-width:1.0;"/><path d="M102.2231,113.1431 Q101.6421,113.4419 101.0029,113.5913 Q100.3638,113.7407 99.6582,113.7407 Q97.1514,113.7407 95.8315,112.0889 Q94.5117,110.437 94.5117,107.3159 Q94.5117,104.1865 95.8315,102.5347 Q97.1514,100.8828 99.6582,100.8828 Q100.3638,100.8828 101.0112,101.0322 Q101.6587,101.1816 102.2231,101.4805 L102.2231,104.2031 Q101.5923,103.6221 100.9988,103.3523 Q100.4053,103.0825 99.7744,103.0825 Q98.4297,103.0825 97.7449,104.1492 Q97.0601,105.2158 97.0601,107.3159 Q97.0601,109.4077 97.7449,110.4744 Q98.4297,111.541 99.7744,111.541 Q100.4053,111.541 100.9988,111.2712 Q101.5923,111.0015 102.2231,110.4204 Z " fill="#000000"/><text fill="#000000" font-family="sans-serif" font-size="12" lengthAdjust="spacing" textLength="83" x="120.25" y="111.5352">ConditionInput</text><line style="stroke:#A80036;stroke-width:1.5;" x1="8" x2="283" y1="123" y2="123"/><ellipse cx="18" cy="134" rx="3" ry="3" style="stroke:#038048;stroke-width:1.0;fill:none;"/><text fill="#000000" font-family="sans-serif" font-size="11" lengthAdjust="spacing" textLength="88" x="27" y="137.6348">inputKey : string</text><ellipse cx="18" cy="146.9551" rx="3" ry="3" style="stroke:#038048;stroke-width:1.0;fill:none;"/><text fill="#000000" font-family="sans-serif" font-size="11" lengthAdjust="spacing" textLength="112" x="27" y="150.5898">listNameField : string</text><ellipse cx="18" cy="159.9102" rx="3" ry="3" style="stroke:#038048;stroke-width:1.0;fill:none;"/><text fill="#000000" font-family="sans-serif" font-size="11" lengthAdjust="spacing" textLength="111" x="27" y="163.5449">listValueField : string</text><ellipse cx="18" cy="172.8652" rx="3" ry="3" style="stroke:#038048;stroke-width:1.0;fill:none;"/><text fill="#000000" font-family="sans-serif" font-size="11" lengthAdjust="spacing" textLength="104" x="27" y="176.5">placeholder : string</text><ellipse cx="18" cy="185.8203" rx="3" ry="3" style="stroke:#038048;stroke-width:1.0;fill:none;"/><text fill="#000000" font-family="sans-serif" font-size="11" lengthAdjust="spacing" textLength="73" x="27" y="189.4551">prefix : string</text><ellipse cx="18" cy="198.7754" rx="3" ry="3" style="stroke:#038048;stroke-width:1.0;fill:none;"/><text fill="#000000" font-family="sans-serif" font-size="11" lengthAdjust="spacing" textLength="73" x="27" y="202.4102">suffix : object</text><line style="stroke:#A80036;stroke-width:1.5;" x1="8" x2="283" y1="208.7305" y2="208.7305"/><ellipse cx="18" cy="219.7305" fill="#84BE84" rx="3" ry="3" style="stroke:#038048;stroke-width:1.0;"/><text fill="#000000" font-family="sans-serif" font-size="11" lengthAdjust="spacing" textLength="46" x="27" y="223.3652">getValue</text><text fill="#000000" font-family="sans-serif" font-size="11" lengthAdjust="spacing" text-decoration="line-through" textLength="62" x="73" y="223.3652">(state: State</text><text fill="#000000" font-family="sans-serif" font-size="11" lengthAdjust="spacing" text-decoration="line-through" textLength="65" x="135" y="223.3652">) : S[keyof S]</text><ellipse cx="18" cy="232.6855" fill="#84BE84" rx="3" ry="3" style="stroke:#038048;stroke-width:1.0;"/><text fill="#000000" font-family="sans-serif" font-size="11" lengthAdjust="spacing" textLength="76" x="27" y="236.3203">getValueName</text><text fill="#000000" font-family="sans-serif" font-size="11" lengthAdjust="spacing" text-decoration="line-through" textLength="62" x="103" y="236.3203">(state: State</text><text fill="#000000" font-family="sans-serif" font-size="11" lengthAdjust="spacing" text-decoration="line-through" textLength="65" x="165" y="236.3203">) : S[keyof S]</text><ellipse cx="18" cy="245.6406" fill="#84BE84" rx="3" ry="3" style="stroke:#038048;stroke-width:1.0;"/><text fill="#000000" font-family="sans-serif" font-size="11" lengthAdjust="spacing" textLength="251" x="27" y="249.2754">options(state: State&lt;RecordOfAnyType&gt;) : any</text><ellipse cx="18" cy="258.5957" fill="#84BE84" rx="3" ry="3" style="stroke:#038048;stroke-width:1.0;"/><text fill="#000000" font-family="sans-serif" font-size="11" lengthAdjust="spacing" textLength="63" x="27" y="262.2305">prevchange</text><text fill="#000000" font-family="sans-serif" font-size="11" lengthAdjust="spacing" text-decoration="line-through" textLength="62" x="90" y="262.2305">(state: State</text><text fill="#000000" font-family="sans-serif" font-size="11" lengthAdjust="spacing" text-decoration="line-through" textLength="36" x="152" y="262.2305">) : void</text><ellipse cx="18" cy="271.5508" fill="#84BE84" rx="3" ry="3" style="stroke:#038048;stroke-width:1.0;"/><text fill="#000000" font-family="sans-serif" font-size="11" lengthAdjust="spacing" textLength="147" x="27" y="275.1855">typeFunction() : InputTypes</text><!--MD5=[9b76d782fd53f1d7bffc4c9bacc4a440]
class WorkflowPrompt--><rect codeLine="16" fill="#FEFECE" filter="url(#funer5rmfbsj2)" height="24.1328" id="WorkflowPrompt" style="stroke:#A80036;stroke-width:1.5;" width="100" x="95.5" y="7"/><text fill="#000000" font-family="sans-serif" font-size="12" lengthAdjust="spacing" textLength="94" x="98.5" y="23.6016">WorkflowPrompt</text><!--MD5=[15821b86d5df5dbd9cab4bac76416a7d]
reverse link WorkflowPrompt to ConditionInput--><path codeLine="18" d="M145.5,51.21 C145.5,62.82 145.5,76.67 145.5,90.99 " fill="none" id="WorkflowPrompt-backto-ConditionInput" style="stroke:#A80036;stroke-width:1.0;"/><polygon fill="none" points="138.5,51.12,145.5,31.12,152.5,51.12,138.5,51.12" style="stroke:#A80036;stroke-width:1.0;"/><!--MD5=[e8cfe91d65fbfb7ac40c4055185effab]
@startuml
hide empty methods
hide empty fields
class "ConditionInput" {
    +inputKey : string
    +listNameField : string
    +listValueField : string
    +placeholder : string
    +prefix : string
    +suffix : object
    +getValue<S>(state: State<S>) : S[keyof S]
    +getValueName<S>(state: State<S>) : S[keyof S]
    +options(state: State<RecordOfAnyType>) : any
    +prevchange<S>(state: State<S>) : void
    +typeFunction() : InputTypes
}
class "WorkflowPrompt"
hide "WorkflowPrompt" circle
"WorkflowPrompt" <|- - "ConditionInput"
@enduml

PlantUML version 1.2021.14(Fri Nov 12 22:16:50 IST 2021)
(GPL source distribution)
Java Runtime: OpenJDK Runtime Environment
JVM: OpenJDK 64-Bit Server VM
Default Encoding: UTF-8
Language: en
Country: IN
--></g></svg>