<?xml version="1.0" encoding="UTF-8" standalone="no"?><svg xmlns="http://www.w3.org/2000/svg" xmlns:xlink="http://www.w3.org/1999/xlink" contentScriptType="application/ecmascript" contentStyleType="text/css" height="186px" preserveAspectRatio="none" style="width:779px;height:186px;background:#FFFFFF;" version="1.1" viewBox="0 0 779 186" width="779px" zoomAndPan="magnify"><defs><filter height="300%" id="f10uv2dc88v5v7" width="300%" x="-1" y="-1"><feGaussianBlur result="blurOut" stdDeviation="2.0"/><feColorMatrix in="blurOut" result="blurOut2" type="matrix" values="0 0 0 0 0 0 0 0 0 0 0 0 0 0 0 0 0 0 .4 0"/><feOffset dx="4.0" dy="4.0" in="blurOut2" result="blurOut3"/><feBlend in="SourceGraphic" in2="blurOut3" mode="normal"/></filter></defs><g><!--MD5=[002e40bfadf139b6e01a6e67d2ee78fe]
class CreatePropertyStrategy--><rect codeLine="3" fill="#FEFECE" filter="url(#f10uv2dc88v5v7)" height="52.9551" id="CreatePropertyStrategy" style="stroke:#A80036;stroke-width:1.5;" width="758" x="7" y="120"/><ellipse cx="315.25" cy="136" fill="#ADD1B2" rx="11" ry="11" style="stroke:#A80036;stroke-width:1.0;"/><path d="M317.7231,142.1431 Q317.1421,142.4419 316.5029,142.5913 Q315.8638,142.7407 315.1582,142.7407 Q312.6514,142.7407 311.3315,141.0889 Q310.0117,139.437 310.0117,136.3159 Q310.0117,133.1865 311.3315,131.5347 Q312.6514,129.8828 315.1582,129.8828 Q315.8638,129.8828 316.5112,130.0322 Q317.1587,130.1816 317.7231,130.4805 L317.7231,133.2031 Q317.0923,132.6221 316.4988,132.3523 Q315.9053,132.0825 315.2744,132.0825 Q313.9297,132.0825 313.2449,133.1492 Q312.5601,134.2158 312.5601,136.3159 Q312.5601,138.4077 313.2449,139.4744 Q313.9297,140.541 315.2744,140.541 Q315.9053,140.541 316.4988,140.2712 Q317.0923,140.0015 317.7231,139.4204 Z " fill="#000000"/><text fill="#000000" font-family="sans-serif" font-size="12" lengthAdjust="spacing" textLength="133" x="335.75" y="140.5352">CreatePropertyStrategy</text><line style="stroke:#A80036;stroke-width:1.5;" x1="8" x2="764" y1="152" y2="152"/><ellipse cx="18" cy="163" fill="#84BE84" rx="3" ry="3" style="stroke:#038048;stroke-width:1.0;"/><text fill="#000000" font-family="sans-serif" font-size="11" lengthAdjust="spacing" textLength="732" x="27" y="166.6348">execute(element: WorkflowElement&lt;ModdleElement&gt;, node: StatementNode&lt;ModdleElement&gt;, attrs: RecordOfAnyType) : ModdleElement</text><!--MD5=[afb66b4242c9c20f36d06fa8aedadae5]
class CreateStrategy<ModdleElement>--><rect codeLine="6" fill="#FEFECE" filter="url(#f10uv2dc88v5v7)" height="52.9551" id="CreateStrategy&lt;ModdleElement&gt;" style="stroke:#A80036;stroke-width:1.5;" width="758" x="7" y="7"/><ellipse cx="285.25" cy="23" fill="#B4A7E5" rx="11" ry="11" style="stroke:#A80036;stroke-width:1.0;"/><path d="M281.6777,19.2651 L281.6777,17.1069 L289.0571,17.1069 L289.0571,19.2651 L286.5918,19.2651 L286.5918,27.3418 L289.0571,27.3418 L289.0571,29.5 L281.6777,29.5 L281.6777,27.3418 L284.1431,27.3418 L284.1431,19.2651 Z " fill="#000000"/><text fill="#000000" font-family="sans-serif" font-size="12" font-style="italic" lengthAdjust="spacing" textLength="193" x="305.75" y="27.5352">CreateStrategy&lt;ModdleElement&gt;</text><line style="stroke:#A80036;stroke-width:1.5;" x1="8" x2="764" y1="39" y2="39"/><ellipse cx="18" cy="50" fill="#84BE84" rx="3" ry="3" style="stroke:#038048;stroke-width:1.0;"/><text fill="#000000" font-family="sans-serif" font-size="11" lengthAdjust="spacing" textLength="732" x="27" y="53.6348">execute(element: WorkflowElement&lt;ModdleElement&gt;, node: StatementNode&lt;ModdleElement&gt;, attrs: RecordOfAnyType) : ModdleElement</text><!--MD5=[bafe90ae07662760071fd8097a7179f8]
reverse link CreateStrategy<ModdleElement> to CreatePropertyStrategy--><path codeLine="9" d="M386,80.34 C386,93.85 386,108.15 386,119.89 " fill="none" id="CreateStrategy&lt;ModdleElement&gt;-backto-CreatePropertyStrategy" style="stroke:#A80036;stroke-width:1.0;stroke-dasharray:7.0,7.0;"/><polygon fill="none" points="379,80.24,386,60.24,393,80.24,379,80.24" style="stroke:#A80036;stroke-width:1.0;"/><!--MD5=[fe84dc7a2df399aa5e9c21497530c92e]
@startuml
hide empty methods
hide empty fields
class "CreatePropertyStrategy" {
    +execute(element: WorkflowElement<ModdleElement>, node: StatementNode<ModdleElement>, attrs: RecordOfAnyType) : ModdleElement
}
interface "CreateStrategy<ModdleElement>" {
    +execute(element: WorkflowElement<ModdleElement>, node: StatementNode<ModdleElement>, attrs: RecordOfAnyType) : ModdleElement
}
"CreateStrategy<ModdleElement>" <|.. "CreatePropertyStrategy"
@enduml

PlantUML version 1.2021.14(Fri Nov 12 22:16:50 IST 2021)
(GPL source distribution)
Java Runtime: OpenJDK Runtime Environment
JVM: OpenJDK 64-Bit Server VM
Default Encoding: UTF-8
Language: en
Country: IN
--></g></svg>