<?xml version="1.0" encoding="UTF-8" standalone="no"?><svg xmlns="http://www.w3.org/2000/svg" xmlns:xlink="http://www.w3.org/1999/xlink" contentScriptType="application/ecmascript" contentStyleType="text/css" height="238px" preserveAspectRatio="none" style="width:2886px;height:238px;background:#FFFFFF;" version="1.1" viewBox="0 0 2886 238" width="2886px" zoomAndPan="magnify"><defs><filter height="300%" id="f1ihyjspynb73g" width="300%" x="-1" y="-1"><feGaussianBlur result="blurOut" stdDeviation="2.0"/><feColorMatrix in="blurOut" result="blurOut2" type="matrix" values="0 0 0 0 0 0 0 0 0 0 0 0 0 0 0 0 0 0 .4 0"/><feOffset dx="4.0" dy="4.0" in="blurOut2" result="blurOut3"/><feBlend in="SourceGraphic" in2="blurOut3" mode="normal"/></filter></defs><g><!--MD5=[97522221517c0417594c86ffc7863ccc]
class CreateStrategy<E>--><rect codeLine="3" fill="#FEFECE" filter="url(#f1ihyjspynb73g)" height="52.9551" id="CreateStrategy&lt;E&gt;" style="stroke:#A80036;stroke-width:1.5;" width="533" x="1188" y="7"/><ellipse cx="1394.75" cy="23" fill="#B4A7E5" rx="11" ry="11" style="stroke:#A80036;stroke-width:1.0;"/><path d="M1391.1777,19.2651 L1391.1777,17.1069 L1398.5571,17.1069 L1398.5571,19.2651 L1396.0918,19.2651 L1396.0918,27.3418 L1398.5571,27.3418 L1398.5571,29.5 L1391.1777,29.5 L1391.1777,27.3418 L1393.6431,27.3418 L1393.6431,19.2651 Z " fill="#000000"/><text fill="#000000" font-family="sans-serif" font-size="12" font-style="italic" lengthAdjust="spacing" textLength="111" x="1415.25" y="27.5352">CreateStrategy&lt;E&gt;</text><line style="stroke:#A80036;stroke-width:1.5;" x1="1189" x2="1720" y1="39" y2="39"/><ellipse cx="1199" cy="50" fill="#84BE84" rx="3" ry="3" style="stroke:#038048;stroke-width:1.0;"/><text fill="#000000" font-family="sans-serif" font-size="11" lengthAdjust="spacing" textLength="507" x="1208" y="53.6348">execute(element: WorkflowElement&lt;E&gt;, node: StatementNode&lt;E&gt;, attrs: RecordOfAnyType) : E</text><!--MD5=[9ce17a3614ba775b4d57c0323df513c3]
class CreateBasicStrategy--><rect codeLine="6" fill="#FEFECE" filter="url(#f1ihyjspynb73g)" height="52.9551" id="CreateBasicStrategy" style="stroke:#A80036;stroke-width:1.5;" width="689" x="7" y="146"/><ellipse cx="290.75" cy="162" fill="#ADD1B2" rx="11" ry="11" style="stroke:#A80036;stroke-width:1.0;"/><path d="M293.2231,168.1431 Q292.6421,168.4419 292.0029,168.5913 Q291.3638,168.7407 290.6582,168.7407 Q288.1514,168.7407 286.8315,167.0889 Q285.5117,165.437 285.5117,162.3159 Q285.5117,159.1865 286.8315,157.5347 Q288.1514,155.8828 290.6582,155.8828 Q291.3638,155.8828 292.0112,156.0322 Q292.6587,156.1816 293.2231,156.4805 L293.2231,159.2031 Q292.5923,158.6221 291.9988,158.3523 Q291.4053,158.0825 290.7744,158.0825 Q289.4297,158.0825 288.7449,159.1492 Q288.0601,160.2158 288.0601,162.3159 Q288.0601,164.4077 288.7449,165.4744 Q289.4297,166.541 290.7744,166.541 Q291.4053,166.541 291.9988,166.2712 Q292.5923,166.0015 293.2231,165.4204 Z " fill="#000000"/><text fill="#000000" font-family="sans-serif" font-size="12" lengthAdjust="spacing" textLength="113" x="311.25" y="166.5352">CreateBasicStrategy</text><line style="stroke:#A80036;stroke-width:1.5;" x1="8" x2="695" y1="178" y2="178"/><ellipse cx="18" cy="189" fill="#84BE84" rx="3" ry="3" style="stroke:#038048;stroke-width:1.0;"/><text fill="#000000" font-family="sans-serif" font-size="11" lengthAdjust="spacing" textLength="663" x="27" y="192.6348">execute(element: WorkflowElement&lt;ModdleElement&gt;, node: BpmnStatementNode, attrs: RecordOfAnyType) : ModdleElement</text><!--MD5=[c9ddd8695a2bc81eb1ed905e91ebf8f1]
class CreateGatewayStrategy--><rect codeLine="10" fill="#FEFECE" filter="url(#f1ihyjspynb73g)" height="52.9551" id="CreateGatewayStrategy" style="stroke:#A80036;stroke-width:1.5;" width="689" x="731" y="146"/><ellipse cx="1004.75" cy="162" fill="#ADD1B2" rx="11" ry="11" style="stroke:#A80036;stroke-width:1.0;"/><path d="M1007.2231,168.1431 Q1006.6421,168.4419 1006.0029,168.5913 Q1005.3638,168.7407 1004.6582,168.7407 Q1002.1514,168.7407 1000.8315,167.0889 Q999.5117,165.437 999.5117,162.3159 Q999.5117,159.1865 1000.8315,157.5347 Q1002.1514,155.8828 1004.6582,155.8828 Q1005.3638,155.8828 1006.0112,156.0322 Q1006.6587,156.1816 1007.2231,156.4805 L1007.2231,159.2031 Q1006.5923,158.6221 1005.9988,158.3523 Q1005.4053,158.0825 1004.7744,158.0825 Q1003.4297,158.0825 1002.7449,159.1492 Q1002.0601,160.2158 1002.0601,162.3159 Q1002.0601,164.4077 1002.7449,165.4744 Q1003.4297,166.541 1004.7744,166.541 Q1005.4053,166.541 1005.9988,166.2712 Q1006.5923,166.0015 1007.2231,165.4204 Z " fill="#000000"/><text fill="#000000" font-family="sans-serif" font-size="12" lengthAdjust="spacing" textLength="133" x="1025.25" y="166.5352">CreateGatewayStrategy</text><line style="stroke:#A80036;stroke-width:1.5;" x1="732" x2="1419" y1="178" y2="178"/><ellipse cx="742" cy="189" fill="#84BE84" rx="3" ry="3" style="stroke:#038048;stroke-width:1.0;"/><text fill="#000000" font-family="sans-serif" font-size="11" lengthAdjust="spacing" textLength="663" x="751" y="192.6348">execute(element: WorkflowElement&lt;ModdleElement&gt;, node: BpmnStatementNode, attrs: RecordOfAnyType) : ModdleElement</text><!--MD5=[002e40bfadf139b6e01a6e67d2ee78fe]
class CreatePropertyStrategy--><rect codeLine="14" fill="#FEFECE" filter="url(#f1ihyjspynb73g)" height="52.9551" id="CreatePropertyStrategy" style="stroke:#A80036;stroke-width:1.5;" width="758" x="1455.5" y="146"/><ellipse cx="1763.75" cy="162" fill="#ADD1B2" rx="11" ry="11" style="stroke:#A80036;stroke-width:1.0;"/><path d="M1766.2231,168.1431 Q1765.6421,168.4419 1765.0029,168.5913 Q1764.3638,168.7407 1763.6582,168.7407 Q1761.1514,168.7407 1759.8315,167.0889 Q1758.5117,165.437 1758.5117,162.3159 Q1758.5117,159.1865 1759.8315,157.5347 Q1761.1514,155.8828 1763.6582,155.8828 Q1764.3638,155.8828 1765.0112,156.0322 Q1765.6587,156.1816 1766.2231,156.4805 L1766.2231,159.2031 Q1765.5923,158.6221 1764.9988,158.3523 Q1764.4053,158.0825 1763.7744,158.0825 Q1762.4297,158.0825 1761.7449,159.1492 Q1761.0601,160.2158 1761.0601,162.3159 Q1761.0601,164.4077 1761.7449,165.4744 Q1762.4297,166.541 1763.7744,166.541 Q1764.4053,166.541 1764.9988,166.2712 Q1765.5923,166.0015 1766.2231,165.4204 Z " fill="#000000"/><text fill="#000000" font-family="sans-serif" font-size="12" lengthAdjust="spacing" textLength="133" x="1784.25" y="166.5352">CreatePropertyStrategy</text><line style="stroke:#A80036;stroke-width:1.5;" x1="1456.5" x2="2212.5" y1="178" y2="178"/><ellipse cx="1466.5" cy="189" fill="#84BE84" rx="3" ry="3" style="stroke:#038048;stroke-width:1.0;"/><text fill="#000000" font-family="sans-serif" font-size="11" lengthAdjust="spacing" textLength="732" x="1475.5" y="192.6348">execute(element: WorkflowElement&lt;ModdleElement&gt;, node: StatementNode&lt;ModdleElement&gt;, attrs: RecordOfAnyType) : ModdleElement</text><!--MD5=[b75d7a4bf995636456de7b3513f138c6]
class CreateTaskStrategy--><rect codeLine="18" fill="#FEFECE" filter="url(#f1ihyjspynb73g)" height="104.7754" id="CreateTaskStrategy" style="stroke:#A80036;stroke-width:1.5;" width="623" x="2249" y="120"/><ellipse cx="2500.25" cy="136" fill="#ADD1B2" rx="11" ry="11" style="stroke:#A80036;stroke-width:1.0;"/><path d="M2502.7231,142.1431 Q2502.1421,142.4419 2501.5029,142.5913 Q2500.8638,142.7407 2500.1582,142.7407 Q2497.6514,142.7407 2496.3315,141.0889 Q2495.0117,139.437 2495.0117,136.3159 Q2495.0117,133.1865 2496.3315,131.5347 Q2497.6514,129.8828 2500.1582,129.8828 Q2500.8638,129.8828 2501.5112,130.0322 Q2502.1587,130.1816 2502.7231,130.4805 L2502.7231,133.2031 Q2502.0923,132.6221 2501.4988,132.3523 Q2500.9053,132.0825 2500.2744,132.0825 Q2498.9297,132.0825 2498.2449,133.1492 Q2497.5601,134.2158 2497.5601,136.3159 Q2497.5601,138.4077 2498.2449,139.4744 Q2498.9297,140.541 2500.2744,140.541 Q2500.9053,140.541 2501.4988,140.2712 Q2502.0923,140.0015 2502.7231,139.4204 Z " fill="#000000"/><text fill="#000000" font-family="sans-serif" font-size="12" lengthAdjust="spacing" textLength="112" x="2520.75" y="140.5352">CreateTaskStrategy</text><line style="stroke:#A80036;stroke-width:1.5;" x1="2250" x2="2871" y1="152" y2="152"/><ellipse cx="2260" cy="163" fill="#84BE84" rx="3" ry="3" style="stroke:#038048;stroke-width:1.0;"/><text fill="#000000" font-family="sans-serif" font-size="11" lengthAdjust="spacing" textLength="545" x="2269" y="166.6348">execute(element: BpmnElement, node: BpmnStatementNode, attrs: RecordOfAnyType) : ModdleElement</text><ellipse cx="2260" cy="175.9551" fill="#84BE84" rx="3" ry="3" style="stroke:#038048;stroke-width:1.0;"/><text fill="#000000" font-family="sans-serif" font-size="11" lengthAdjust="spacing" textLength="597" x="2269" y="179.5898">getInputFromPrev(element: WorkflowElement&lt;ModdleElement&gt;, node: BpmnStatementNode) : undefined | string</text><rect fill="#F24D5C" height="6" style="stroke:#C82930;stroke-width:1.0;" width="6" x="2257" y="185.9102"/><text fill="#000000" font-family="sans-serif" font-size="11" lengthAdjust="spacing" textLength="406" x="2269" y="192.5449">createJsonScript(element: BpmnElement, node: BpmnStatementNode) : string</text><rect fill="#F24D5C" height="6" style="stroke:#C82930;stroke-width:1.0;" width="6" x="2257" y="198.8652"/><text fill="#000000" font-family="sans-serif" font-size="11" lengthAdjust="spacing" textLength="396" x="2269" y="205.5">input(element: BpmnElement, node: BpmnStatementNode) : ModdleElement</text><rect fill="#F24D5C" height="6" style="stroke:#C82930;stroke-width:1.0;" width="6" x="2257" y="211.8203"/><text fill="#000000" font-family="sans-serif" font-size="11" lengthAdjust="spacing" textLength="254" x="2269" y="218.4551">output(element: BpmnElement) : ModdleElement</text><!--MD5=[a3833811a97d6f1a9be6fd3ce61ade88]
reverse link CreateStrategy<E> to CreateBasicStrategy--><path codeLine="9" d="M1199.53,62.24 C1056.54,78.21 874.96,99.2 713.5,120 C651.8,127.95 584.29,137.36 524.46,145.94 " fill="none" id="CreateStrategy&lt;E&gt;-backto-CreateBasicStrategy" style="stroke:#A80036;stroke-width:1.0;stroke-dasharray:7.0,7.0;"/><polygon fill="none" points="1198.8,55.27,1219.45,60.02,1200.35,69.19,1198.8,55.27" style="stroke:#A80036;stroke-width:1.0;"/><!--MD5=[4e0ca0fe1b04b02a33daa06483ab9ad9]
reverse link CreateStrategy<E> to CreateGatewayStrategy--><path codeLine="13" d="M1364.61,66.99 C1297.84,91.13 1208.03,123.59 1146.32,145.9 " fill="none" id="CreateStrategy&lt;E&gt;-backto-CreateGatewayStrategy" style="stroke:#A80036;stroke-width:1.0;stroke-dasharray:7.0,7.0;"/><polygon fill="none" points="1362.47,60.32,1383.66,60.11,1367.23,73.49,1362.47,60.32" style="stroke:#A80036;stroke-width:1.0;"/><!--MD5=[3d7f136ef3d8494db3395ef53a983667]
reverse link CreateStrategy<E> to CreatePropertyStrategy--><path codeLine="17" d="M1544.63,66.99 C1611.57,91.13 1701.62,123.59 1763.5,145.9 " fill="none" id="CreateStrategy&lt;E&gt;-backto-CreatePropertyStrategy" style="stroke:#A80036;stroke-width:1.0;stroke-dasharray:7.0,7.0;"/><polygon fill="none" points="1541.97,73.48,1525.53,60.11,1546.72,60.31,1541.97,73.48" style="stroke:#A80036;stroke-width:1.0;"/><!--MD5=[ac5e959356fc7ee0cacda97f0c54610d]
reverse link CreateStrategy<E> to CreateTaskStrategy--><path codeLine="25" d="M1733.6,62.1 C1881.73,77.53 2066.72,98.05 2231.5,120 C2237.23,120.76 2243.02,121.55 2248.84,122.34 " fill="none" id="CreateStrategy&lt;E&gt;-backto-CreateTaskStrategy" style="stroke:#A80036;stroke-width:1.0;stroke-dasharray:7.0,7.0;"/><polygon fill="none" points="1732.59,69.03,1713.42,60,1734.03,55.1,1732.59,69.03" style="stroke:#A80036;stroke-width:1.0;"/><!--MD5=[e6725720775f5f0de3866a0c8cfeac83]
@startuml
hide empty methods
hide empty fields
interface "CreateStrategy<E>" {
    +execute(element: WorkflowElement<E>, node: StatementNode<E>, attrs: RecordOfAnyType) : E
}
class "CreateBasicStrategy" {
    +execute(element: WorkflowElement<ModdleElement>, node: BpmnStatementNode, attrs: RecordOfAnyType) : ModdleElement
}
"CreateStrategy<E>" <|.. "CreateBasicStrategy"
class "CreateGatewayStrategy" {
    +execute(element: WorkflowElement<ModdleElement>, node: BpmnStatementNode, attrs: RecordOfAnyType) : ModdleElement
}
"CreateStrategy<E>" <|.. "CreateGatewayStrategy"
class "CreatePropertyStrategy" {
    +execute(element: WorkflowElement<ModdleElement>, node: StatementNode<ModdleElement>, attrs: RecordOfAnyType) : ModdleElement
}
"CreateStrategy<E>" <|.. "CreatePropertyStrategy"
class "CreateTaskStrategy" {
    +execute(element: BpmnElement, node: BpmnStatementNode, attrs: RecordOfAnyType) : ModdleElement
    +getInputFromPrev(element: WorkflowElement<ModdleElement>, node: BpmnStatementNode) : undefined | string
    -createJsonScript(element: BpmnElement, node: BpmnStatementNode) : string
    -input(element: BpmnElement, node: BpmnStatementNode) : ModdleElement
    -output(element: BpmnElement) : ModdleElement
}
"CreateStrategy<E>" <|.. "CreateTaskStrategy"
@enduml

PlantUML version 1.2021.14(Fri Nov 12 22:16:50 IST 2021)
(GPL source distribution)
Java Runtime: OpenJDK Runtime Environment
JVM: OpenJDK 64-Bit Server VM
Default Encoding: UTF-8
Language: en
Country: IN
--></g></svg>