<?xml version="1.0" encoding="UTF-8" standalone="no"?><svg xmlns="http://www.w3.org/2000/svg" xmlns:xlink="http://www.w3.org/1999/xlink" contentScriptType="application/ecmascript" contentStyleType="text/css" height="238px" preserveAspectRatio="none" style="width:779px;height:238px;background:#FFFFFF;" version="1.1" viewBox="0 0 779 238" width="779px" zoomAndPan="magnify"><defs><filter height="300%" id="f59yh58tfq5v6" width="300%" x="-1" y="-1"><feGaussianBlur result="blurOut" stdDeviation="2.0"/><feColorMatrix in="blurOut" result="blurOut2" type="matrix" values="0 0 0 0 0 0 0 0 0 0 0 0 0 0 0 0 0 0 .4 0"/><feOffset dx="4.0" dy="4.0" in="blurOut2" result="blurOut3"/><feBlend in="SourceGraphic" in2="blurOut3" mode="normal"/></filter></defs><g><!--MD5=[b75d7a4bf995636456de7b3513f138c6]
class CreateTaskStrategy--><rect codeLine="3" fill="#FEFECE" filter="url(#f59yh58tfq5v6)" height="104.7754" id="CreateTaskStrategy" style="stroke:#A80036;stroke-width:1.5;" width="623" x="74.5" y="120"/><ellipse cx="325.75" cy="136" fill="#ADD1B2" rx="11" ry="11" style="stroke:#A80036;stroke-width:1.0;"/><path d="M328.2231,142.1431 Q327.6421,142.4419 327.0029,142.5913 Q326.3638,142.7407 325.6582,142.7407 Q323.1514,142.7407 321.8315,141.0889 Q320.5117,139.437 320.5117,136.3159 Q320.5117,133.1865 321.8315,131.5347 Q323.1514,129.8828 325.6582,129.8828 Q326.3638,129.8828 327.0112,130.0322 Q327.6587,130.1816 328.2231,130.4805 L328.2231,133.2031 Q327.5923,132.6221 326.9988,132.3523 Q326.4053,132.0825 325.7744,132.0825 Q324.4297,132.0825 323.7449,133.1492 Q323.0601,134.2158 323.0601,136.3159 Q323.0601,138.4077 323.7449,139.4744 Q324.4297,140.541 325.7744,140.541 Q326.4053,140.541 326.9988,140.2712 Q327.5923,140.0015 328.2231,139.4204 Z " fill="#000000"/><text fill="#000000" font-family="sans-serif" font-size="12" lengthAdjust="spacing" textLength="112" x="346.25" y="140.5352">CreateTaskStrategy</text><line style="stroke:#A80036;stroke-width:1.5;" x1="75.5" x2="696.5" y1="152" y2="152"/><ellipse cx="85.5" cy="163" fill="#84BE84" rx="3" ry="3" style="stroke:#038048;stroke-width:1.0;"/><text fill="#000000" font-family="sans-serif" font-size="11" lengthAdjust="spacing" textLength="545" x="94.5" y="166.6348">execute(element: BpmnElement, node: BpmnStatementNode, attrs: RecordOfAnyType) : ModdleElement</text><ellipse cx="85.5" cy="175.9551" fill="#84BE84" rx="3" ry="3" style="stroke:#038048;stroke-width:1.0;"/><text fill="#000000" font-family="sans-serif" font-size="11" lengthAdjust="spacing" textLength="597" x="94.5" y="179.5898">getInputFromPrev(element: WorkflowElement&lt;ModdleElement&gt;, node: BpmnStatementNode) : undefined | string</text><rect fill="#F24D5C" height="6" style="stroke:#C82930;stroke-width:1.0;" width="6" x="82.5" y="185.9102"/><text fill="#000000" font-family="sans-serif" font-size="11" lengthAdjust="spacing" textLength="406" x="94.5" y="192.5449">createJsonScript(element: BpmnElement, node: BpmnStatementNode) : string</text><rect fill="#F24D5C" height="6" style="stroke:#C82930;stroke-width:1.0;" width="6" x="82.5" y="198.8652"/><text fill="#000000" font-family="sans-serif" font-size="11" lengthAdjust="spacing" textLength="396" x="94.5" y="205.5">input(element: BpmnElement, node: BpmnStatementNode) : ModdleElement</text><rect fill="#F24D5C" height="6" style="stroke:#C82930;stroke-width:1.0;" width="6" x="82.5" y="211.8203"/><text fill="#000000" font-family="sans-serif" font-size="11" lengthAdjust="spacing" textLength="254" x="94.5" y="218.4551">output(element: BpmnElement) : ModdleElement</text><!--MD5=[afb66b4242c9c20f36d06fa8aedadae5]
class CreateStrategy<ModdleElement>--><rect codeLine="10" fill="#FEFECE" filter="url(#f59yh58tfq5v6)" height="52.9551" id="CreateStrategy&lt;ModdleElement&gt;" style="stroke:#A80036;stroke-width:1.5;" width="758" x="7" y="7"/><ellipse cx="285.25" cy="23" fill="#B4A7E5" rx="11" ry="11" style="stroke:#A80036;stroke-width:1.0;"/><path d="M281.6777,19.2651 L281.6777,17.1069 L289.0571,17.1069 L289.0571,19.2651 L286.5918,19.2651 L286.5918,27.3418 L289.0571,27.3418 L289.0571,29.5 L281.6777,29.5 L281.6777,27.3418 L284.1431,27.3418 L284.1431,19.2651 Z " fill="#000000"/><text fill="#000000" font-family="sans-serif" font-size="12" font-style="italic" lengthAdjust="spacing" textLength="193" x="305.75" y="27.5352">CreateStrategy&lt;ModdleElement&gt;</text><line style="stroke:#A80036;stroke-width:1.5;" x1="8" x2="764" y1="39" y2="39"/><ellipse cx="18" cy="50" fill="#84BE84" rx="3" ry="3" style="stroke:#038048;stroke-width:1.0;"/><text fill="#000000" font-family="sans-serif" font-size="11" lengthAdjust="spacing" textLength="732" x="27" y="53.6348">execute(element: WorkflowElement&lt;ModdleElement&gt;, node: StatementNode&lt;ModdleElement&gt;, attrs: RecordOfAnyType) : ModdleElement</text><!--MD5=[d361aa318b2f53c763d028e3b7d8f7b2]
reverse link CreateStrategy<ModdleElement> to CreateTaskStrategy--><path codeLine="13" d="M386,80.62 C386,93.19 386,106.88 386,119.74 " fill="none" id="CreateStrategy&lt;ModdleElement&gt;-backto-CreateTaskStrategy" style="stroke:#A80036;stroke-width:1.0;stroke-dasharray:7.0,7.0;"/><polygon fill="none" points="379,80.27,386,60.27,393,80.27,379,80.27" style="stroke:#A80036;stroke-width:1.0;"/><!--MD5=[542ad1c64b9d295cc585995bf74f021c]
@startuml
hide empty methods
hide empty fields
class "CreateTaskStrategy" {
    +execute(element: BpmnElement, node: BpmnStatementNode, attrs: RecordOfAnyType) : ModdleElement
    +getInputFromPrev(element: WorkflowElement<ModdleElement>, node: BpmnStatementNode) : undefined | string
    -createJsonScript(element: BpmnElement, node: BpmnStatementNode) : string
    -input(element: BpmnElement, node: BpmnStatementNode) : ModdleElement
    -output(element: BpmnElement) : ModdleElement
}
interface "CreateStrategy<ModdleElement>" {
    +execute(element: WorkflowElement<ModdleElement>, node: StatementNode<ModdleElement>, attrs: RecordOfAnyType) : ModdleElement
}
"CreateStrategy<ModdleElement>" <|.. "CreateTaskStrategy"
@enduml

PlantUML version 1.2021.14(Fri Nov 12 22:16:50 IST 2021)
(GPL source distribution)
Java Runtime: OpenJDK Runtime Environment
JVM: OpenJDK 64-Bit Server VM
Default Encoding: UTF-8
Language: en
Country: IN
--></g></svg>