<?xml version="1.0" encoding="UTF-8" standalone="no"?><svg xmlns="http://www.w3.org/2000/svg" xmlns:xlink="http://www.w3.org/1999/xlink" contentScriptType="application/ecmascript" contentStyleType="text/css" height="186px" preserveAspectRatio="none" style="width:779px;height:186px;background:#FFFFFF;" version="1.1" viewBox="0 0 779 186" width="779px" zoomAndPan="magnify"><defs><filter height="300%" id="f1p6v5uj91rvp" width="300%" x="-1" y="-1"><feGaussianBlur result="blurOut" stdDeviation="2.0"/><feColorMatrix in="blurOut" result="blurOut2" type="matrix" values="0 0 0 0 0 0 0 0 0 0 0 0 0 0 0 0 0 0 .4 0"/><feOffset dx="4.0" dy="4.0" in="blurOut2" result="blurOut3"/><feBlend in="SourceGraphic" in2="blurOut3" mode="normal"/></filter></defs><g><!--MD5=[9ce17a3614ba775b4d57c0323df513c3]
class CreateBasicStrategy--><rect codeLine="3" fill="#FEFECE" filter="url(#f1p6v5uj91rvp)" height="52.9551" id="CreateBasicStrategy" style="stroke:#A80036;stroke-width:1.5;" width="689" x="41.5" y="120"/><ellipse cx="325.25" cy="136" fill="#ADD1B2" rx="11" ry="11" style="stroke:#A80036;stroke-width:1.0;"/><path d="M327.7231,142.1431 Q327.1421,142.4419 326.5029,142.5913 Q325.8638,142.7407 325.1582,142.7407 Q322.6514,142.7407 321.3315,141.0889 Q320.0117,139.437 320.0117,136.3159 Q320.0117,133.1865 321.3315,131.5347 Q322.6514,129.8828 325.1582,129.8828 Q325.8638,129.8828 326.5112,130.0322 Q327.1587,130.1816 327.7231,130.4805 L327.7231,133.2031 Q327.0923,132.6221 326.4988,132.3523 Q325.9053,132.0825 325.2744,132.0825 Q323.9297,132.0825 323.2449,133.1492 Q322.5601,134.2158 322.5601,136.3159 Q322.5601,138.4077 323.2449,139.4744 Q323.9297,140.541 325.2744,140.541 Q325.9053,140.541 326.4988,140.2712 Q327.0923,140.0015 327.7231,139.4204 Z " fill="#000000"/><text fill="#000000" font-family="sans-serif" font-size="12" lengthAdjust="spacing" textLength="113" x="345.75" y="140.5352">CreateBasicStrategy</text><line style="stroke:#A80036;stroke-width:1.5;" x1="42.5" x2="729.5" y1="152" y2="152"/><ellipse cx="52.5" cy="163" fill="#84BE84" rx="3" ry="3" style="stroke:#038048;stroke-width:1.0;"/><text fill="#000000" font-family="sans-serif" font-size="11" lengthAdjust="spacing" textLength="663" x="61.5" y="166.6348">execute(element: WorkflowElement&lt;ModdleElement&gt;, node: BpmnStatementNode, attrs: RecordOfAnyType) : ModdleElement</text><!--MD5=[afb66b4242c9c20f36d06fa8aedadae5]
class CreateStrategy<ModdleElement>--><rect codeLine="6" fill="#FEFECE" filter="url(#f1p6v5uj91rvp)" height="52.9551" id="CreateStrategy&lt;ModdleElement&gt;" style="stroke:#A80036;stroke-width:1.5;" width="758" x="7" y="7"/><ellipse cx="285.25" cy="23" fill="#B4A7E5" rx="11" ry="11" style="stroke:#A80036;stroke-width:1.0;"/><path d="M281.6777,19.2651 L281.6777,17.1069 L289.0571,17.1069 L289.0571,19.2651 L286.5918,19.2651 L286.5918,27.3418 L289.0571,27.3418 L289.0571,29.5 L281.6777,29.5 L281.6777,27.3418 L284.1431,27.3418 L284.1431,19.2651 Z " fill="#000000"/><text fill="#000000" font-family="sans-serif" font-size="12" font-style="italic" lengthAdjust="spacing" textLength="193" x="305.75" y="27.5352">CreateStrategy&lt;ModdleElement&gt;</text><line style="stroke:#A80036;stroke-width:1.5;" x1="8" x2="764" y1="39" y2="39"/><ellipse cx="18" cy="50" fill="#84BE84" rx="3" ry="3" style="stroke:#038048;stroke-width:1.0;"/><text fill="#000000" font-family="sans-serif" font-size="11" lengthAdjust="spacing" textLength="732" x="27" y="53.6348">execute(element: WorkflowElement&lt;ModdleElement&gt;, node: StatementNode&lt;ModdleElement&gt;, attrs: RecordOfAnyType) : ModdleElement</text><!--MD5=[18955fe74e19f032a75fe48d98e4a75b]
reverse link CreateStrategy<ModdleElement> to CreateBasicStrategy--><path codeLine="9" d="M386,80.34 C386,93.85 386,108.15 386,119.89 " fill="none" id="CreateStrategy&lt;ModdleElement&gt;-backto-CreateBasicStrategy" style="stroke:#A80036;stroke-width:1.0;stroke-dasharray:7.0,7.0;"/><polygon fill="none" points="379,80.24,386,60.24,393,80.24,379,80.24" style="stroke:#A80036;stroke-width:1.0;"/><!--MD5=[0fa8c96e51667e496dc643a0710b8ef6]
@startuml
hide empty methods
hide empty fields
class "CreateBasicStrategy" {
    +execute(element: WorkflowElement<ModdleElement>, node: BpmnStatementNode, attrs: RecordOfAnyType) : ModdleElement
}
interface "CreateStrategy<ModdleElement>" {
    +execute(element: WorkflowElement<ModdleElement>, node: StatementNode<ModdleElement>, attrs: RecordOfAnyType) : ModdleElement
}
"CreateStrategy<ModdleElement>" <|.. "CreateBasicStrategy"
@enduml

PlantUML version 1.2021.14(Fri Nov 12 22:16:50 IST 2021)
(GPL source distribution)
Java Runtime: OpenJDK Runtime Environment
JVM: OpenJDK 64-Bit Server VM
Default Encoding: UTF-8
Language: en
Country: IN
--></g></svg>