<?xml version="1.0" encoding="UTF-8" standalone="no"?><svg xmlns="http://www.w3.org/2000/svg" xmlns:xlink="http://www.w3.org/1999/xlink" contentScriptType="application/ecmascript" contentStyleType="text/css" height="256px" preserveAspectRatio="none" style="width:250px;height:256px;background:#FFFFFF;" version="1.1" viewBox="0 0 250 256" width="250px" zoomAndPan="magnify"><defs><filter height="300%" id="f5lh2juecy5xc" width="300%" x="-1" y="-1"><feGaussianBlur result="blurOut" stdDeviation="2.0"/><feColorMatrix in="blurOut" result="blurOut2" type="matrix" values="0 0 0 0 0 0 0 0 0 0 0 0 0 0 0 0 0 0 .4 0"/><feOffset dx="4.0" dy="4.0" in="blurOut2" result="blurOut3"/><feBlend in="SourceGraphic" in2="blurOut3" mode="normal"/></filter></defs><g><!--MD5=[81e8b887e4ba9661a1e2ee68c531db1d]
class EmailSubjectInput--><rect codeLine="3" fill="#FEFECE" filter="url(#f5lh2juecy5xc)" height="151.6406" id="EmailSubjectInput" style="stroke:#A80036;stroke-width:1.5;" width="229" x="7" y="91"/><ellipse cx="66.25" cy="107" fill="#ADD1B2" rx="11" ry="11" style="stroke:#A80036;stroke-width:1.0;"/><path d="M68.7231,113.1431 Q68.1421,113.4419 67.5029,113.5913 Q66.8638,113.7407 66.1582,113.7407 Q63.6514,113.7407 62.3315,112.0889 Q61.0117,110.437 61.0117,107.3159 Q61.0117,104.1865 62.3315,102.5347 Q63.6514,100.8828 66.1582,100.8828 Q66.8638,100.8828 67.5112,101.0322 Q68.1587,101.1816 68.7231,101.4805 L68.7231,104.2031 Q68.0923,103.6221 67.4988,103.3523 Q66.9053,103.0825 66.2744,103.0825 Q64.9297,103.0825 64.2449,104.1492 Q63.5601,105.2158 63.5601,107.3159 Q63.5601,109.4077 64.2449,110.4744 Q64.9297,111.541 66.2744,111.541 Q66.9053,111.541 67.4988,111.2712 Q68.0923,111.0015 68.7231,110.4204 Z " fill="#000000"/><text fill="#000000" font-family="sans-serif" font-size="12" lengthAdjust="spacing" textLength="102" x="86.75" y="111.5352">EmailSubjectInput</text><line style="stroke:#A80036;stroke-width:1.5;" x1="8" x2="235" y1="123" y2="123"/><ellipse cx="18" cy="134" rx="3" ry="3" style="stroke:#038048;stroke-width:1.0;fill:none;"/><text fill="#000000" font-family="sans-serif" font-size="11" lengthAdjust="spacing" textLength="88" x="27" y="137.6348">inputKey : string</text><ellipse cx="18" cy="146.9551" rx="3" ry="3" style="stroke:#038048;stroke-width:1.0;fill:none;"/><text fill="#000000" font-family="sans-serif" font-size="11" lengthAdjust="spacing" textLength="104" x="27" y="150.5898">placeholder : string</text><ellipse cx="18" cy="159.9102" rx="3" ry="3" style="stroke:#038048;stroke-width:1.0;fill:none;"/><text fill="#000000" font-family="sans-serif" font-size="11" lengthAdjust="spacing" textLength="73" x="27" y="163.5449">prefix : string</text><ellipse cx="18" cy="172.8652" rx="3" ry="3" style="stroke:#038048;stroke-width:1.0;fill:none;"/><text fill="#000000" font-family="sans-serif" font-size="11" lengthAdjust="spacing" textLength="117" x="27" y="176.5">prevchange : function</text><ellipse cx="18" cy="185.8203" rx="3" ry="3" style="stroke:#038048;stroke-width:1.0;fill:none;"/><text fill="#000000" font-family="sans-serif" font-size="11" lengthAdjust="spacing" textLength="72" x="27" y="189.4551">suffix : string</text><line style="stroke:#A80036;stroke-width:1.5;" x1="8" x2="235" y1="195.7754" y2="195.7754"/><ellipse cx="18" cy="206.7754" fill="#84BE84" rx="3" ry="3" style="stroke:#038048;stroke-width:1.0;"/><text fill="#000000" font-family="sans-serif" font-size="11" lengthAdjust="spacing" textLength="46" x="27" y="210.4102">getValue</text><text fill="#000000" font-family="sans-serif" font-size="11" lengthAdjust="spacing" text-decoration="line-through" textLength="62" x="73" y="210.4102">(state: State</text><text fill="#000000" font-family="sans-serif" font-size="11" lengthAdjust="spacing" text-decoration="line-through" textLength="65" x="135" y="210.4102">) : S[keyof S]</text><ellipse cx="18" cy="219.7305" fill="#84BE84" rx="3" ry="3" style="stroke:#038048;stroke-width:1.0;"/><text fill="#000000" font-family="sans-serif" font-size="11" lengthAdjust="spacing" textLength="76" x="27" y="223.3652">getValueName</text><text fill="#000000" font-family="sans-serif" font-size="11" lengthAdjust="spacing" text-decoration="line-through" textLength="62" x="103" y="223.3652">(state: State</text><text fill="#000000" font-family="sans-serif" font-size="11" lengthAdjust="spacing" text-decoration="line-through" textLength="65" x="165" y="223.3652">) : S[keyof S]</text><ellipse cx="18" cy="232.6855" fill="#84BE84" rx="3" ry="3" style="stroke:#038048;stroke-width:1.0;"/><text fill="#000000" font-family="sans-serif" font-size="11" lengthAdjust="spacing" textLength="147" x="27" y="236.3203">typeFunction() : InputTypes</text><!--MD5=[9b76d782fd53f1d7bffc4c9bacc4a440]
class WorkflowPrompt--><rect codeLine="13" fill="#FEFECE" filter="url(#f5lh2juecy5xc)" height="24.1328" id="WorkflowPrompt" style="stroke:#A80036;stroke-width:1.5;" width="100" x="71.5" y="7"/><text fill="#000000" font-family="sans-serif" font-size="12" lengthAdjust="spacing" textLength="94" x="74.5" y="23.6016">WorkflowPrompt</text><!--MD5=[6f48367e2e866333261521eb59acb2ae]
reverse link WorkflowPrompt to EmailSubjectInput--><path codeLine="15" d="M121.5,51.78 C121.5,63.41 121.5,77.12 121.5,90.92 " fill="none" id="WorkflowPrompt-backto-EmailSubjectInput" style="stroke:#A80036;stroke-width:1.0;"/><polygon fill="none" points="114.5,51.46,121.5,31.46,128.5,51.46,114.5,51.46" style="stroke:#A80036;stroke-width:1.0;"/><!--MD5=[cf621700cc67fd729f45883099f40f20]
@startuml
hide empty methods
hide empty fields
class "EmailSubjectInput" {
    +inputKey : string
    +placeholder : string
    +prefix : string
    +prevchange : function
    +suffix : string
    +getValue<S>(state: State<S>) : S[keyof S]
    +getValueName<S>(state: State<S>) : S[keyof S]
    +typeFunction() : InputTypes
}
class "WorkflowPrompt"
hide "WorkflowPrompt" circle
"WorkflowPrompt" <|- - "EmailSubjectInput"
@enduml

PlantUML version 1.2021.14(Fri Nov 12 22:16:50 IST 2021)
(GPL source distribution)
Java Runtime: OpenJDK Runtime Environment
JVM: OpenJDK 64-Bit Server VM
Default Encoding: UTF-8
Language: en
Country: IN
--></g></svg>