<?xml version="1.0" encoding="UTF-8" standalone="no"?><svg xmlns="http://www.w3.org/2000/svg" xmlns:xlink="http://www.w3.org/1999/xlink" contentScriptType="application/ecmascript" contentStyleType="text/css" height="462px" preserveAspectRatio="none" style="width:528px;height:462px;background:#FFFFFF;" version="1.1" viewBox="0 0 528 462" width="528px" zoomAndPan="magnify"><defs><filter height="300%" id="f1klodsvcqgxfs" width="300%" x="-1" y="-1"><feGaussianBlur result="blurOut" stdDeviation="2.0"/><feColorMatrix in="blurOut" result="blurOut2" type="matrix" values="0 0 0 0 0 0 0 0 0 0 0 0 0 0 0 0 0 0 .4 0"/><feOffset dx="4.0" dy="4.0" in="blurOut2" result="blurOut3"/><feBlend in="SourceGraphic" in2="blurOut3" mode="normal"/></filter></defs><g><!--MD5=[0fc90aac9203d387d41da27d381133d8]
class EndElement--><rect codeLine="3" fill="#FEFECE" filter="url(#f1klodsvcqgxfs)" height="203.4609" id="EndElement" style="stroke:#A80036;stroke-width:1.5;" width="505" x="9" y="245"/><ellipse cx="223.25" cy="261" fill="#ADD1B2" rx="11" ry="11" style="stroke:#A80036;stroke-width:1.0;"/><path d="M225.7231,267.1431 Q225.1421,267.4419 224.5029,267.5913 Q223.8638,267.7407 223.1582,267.7407 Q220.6514,267.7407 219.3315,266.0889 Q218.0117,264.437 218.0117,261.3159 Q218.0117,258.1865 219.3315,256.5347 Q220.6514,254.8828 223.1582,254.8828 Q223.8638,254.8828 224.5112,255.0322 Q225.1587,255.1816 225.7231,255.4805 L225.7231,258.2031 Q225.0923,257.6221 224.4988,257.3523 Q223.9053,257.0825 223.2744,257.0825 Q221.9297,257.0825 221.2449,258.1492 Q220.5601,259.2158 220.5601,261.3159 Q220.5601,263.4077 221.2449,264.4744 Q221.9297,265.541 223.2744,265.541 Q223.9053,265.541 224.4988,265.2712 Q225.0923,265.0015 225.7231,264.4204 Z " fill="#000000"/><text fill="#000000" font-family="sans-serif" font-size="12" lengthAdjust="spacing" textLength="68" x="243.75" y="265.5352">EndElement</text><line style="stroke:#A80036;stroke-width:1.5;" x1="10" x2="513" y1="277" y2="277"/><ellipse cx="20" cy="288" rx="3" ry="3" style="stroke:#038048;stroke-width:1.0;fill:none;"/><text fill="#000000" font-family="sans-serif" font-size="11" lengthAdjust="spacing" textLength="94" x="29" y="291.6348">attributes : object</text><ellipse cx="20" cy="300.9551" rx="3" ry="3" style="stroke:#038048;stroke-width:1.0;fill:none;"/><text fill="#000000" font-family="sans-serif" font-size="11" lengthAdjust="spacing" textLength="51" x="29" y="304.5898">id : string</text><ellipse cx="20" cy="313.9102" rx="3" ry="3" style="stroke:#038048;stroke-width:1.0;fill:none;"/><text fill="#000000" font-family="sans-serif" font-size="11" lengthAdjust="spacing" textLength="113" x="29" y="317.5449">inputs : ElementInput</text><ellipse cx="20" cy="326.8652" rx="3" ry="3" style="stroke:#038048;stroke-width:1.0;fill:none;"/><text fill="#000000" font-family="sans-serif" font-size="11" lengthAdjust="spacing" textLength="70" x="29" y="330.5">name : string</text><ellipse cx="20" cy="339.8203" rx="3" ry="3" style="stroke:#038048;stroke-width:1.0;fill:none;"/><text fill="#000000" font-family="sans-serif" font-size="11" lengthAdjust="spacing" textLength="83" x="29" y="343.4551">outputs : string</text><ellipse cx="20" cy="352.7754" rx="3" ry="3" style="stroke:#038048;stroke-width:1.0;fill:none;"/><text fill="#000000" font-family="sans-serif" font-size="11" lengthAdjust="spacing" textLength="158" x="29" y="356.4102">statement : undefined | string</text><ellipse cx="20" cy="365.7305" rx="3" ry="3" style="stroke:#038048;stroke-width:1.0;fill:none;"/><text fill="#000000" font-family="sans-serif" font-size="11" lengthAdjust="spacing" textLength="58" x="29" y="369.3652">tag : string</text><ellipse cx="20" cy="378.6855" rx="3" ry="3" style="stroke:#038048;stroke-width:1.0;fill:none;"/><text fill="#000000" font-family="sans-serif" font-size="11" lengthAdjust="spacing" textLength="94" x="29" y="382.3203">utils : UtilsService</text><polygon fill="none" points="20,386.6406,24,390.6406,20,394.6406,16,390.6406" style="stroke:#B38D22;stroke-width:1.0;"/><text fill="#000000" font-family="sans-serif" font-size="11" lengthAdjust="spacing" textLength="226" x="29" y="395.2754">creator : CreateStrategy&lt;ModdleElement&gt;</text><polygon fill="none" points="20,399.5957,24,403.5957,20,407.5957,16,403.5957" style="stroke:#B38D22;stroke-width:1.0;"/><text fill="#000000" font-family="sans-serif" font-size="11" lengthAdjust="spacing" textLength="204" x="29" y="408.2305">linker : LinkStrategy&lt;ModdleElement&gt;</text><line style="stroke:#A80036;stroke-width:1.5;" x1="10" x2="513" y1="414.5508" y2="414.5508"/><ellipse cx="20" cy="425.5508" fill="#84BE84" rx="3" ry="3" style="stroke:#038048;stroke-width:1.0;"/><text fill="#000000" font-family="sans-serif" font-size="11" lengthAdjust="spacing" textLength="479" x="29" y="429.1855">create(node: StatementNode&lt;ModdleElement&gt;, attrs: RecordOfAnyType) : ModdleElement</text><ellipse cx="20" cy="438.5059" fill="#84BE84" rx="3" ry="3" style="stroke:#038048;stroke-width:1.0;"/><text fill="#000000" font-family="sans-serif" font-size="11" lengthAdjust="spacing" textLength="338" x="29" y="442.1406">link(node: StatementNode&lt;ModdleElement&gt;) : ModdleElement[]</text><!--MD5=[67972b1c6d4722e1308be96bcf302a89]
class BpmnElement--><rect codeLine="17" fill="#FEFECE" filter="url(#f1klodsvcqgxfs)" height="177.5508" id="BpmnElement" style="stroke:#A80036;stroke-width:1.5;" width="505" x="9" y="7"/><ellipse cx="217.75" cy="23" fill="#A9DCDF" rx="11" ry="11" style="stroke:#A80036;stroke-width:1.0;"/><path d="M217.6133,18.3481 L216.4595,23.4199 L218.7754,23.4199 Z M216.1191,16.1069 L219.1157,16.1069 L222.4609,28.5 L220.0122,28.5 L219.2485,25.437 L215.9697,25.437 L215.2227,28.5 L212.7739,28.5 Z " fill="#000000"/><text fill="#000000" font-family="sans-serif" font-size="12" font-style="italic" lengthAdjust="spacing" textLength="79" x="238.25" y="27.5352">BpmnElement</text><line style="stroke:#A80036;stroke-width:1.5;" x1="10" x2="513" y1="39" y2="39"/><ellipse cx="20" cy="50" rx="3" ry="3" style="stroke:#038048;stroke-width:1.0;fill:none;"/><text fill="#000000" font-family="sans-serif" font-size="11" lengthAdjust="spacing" textLength="159" x="29" y="53.6348">attributes : RecordOfAnyType</text><ellipse cx="20" cy="62.9551" rx="3" ry="3" style="stroke:#038048;stroke-width:1.0;fill:none;"/><text fill="#000000" font-family="sans-serif" font-size="11" lengthAdjust="spacing" textLength="51" x="29" y="66.5898">id : string</text><ellipse cx="20" cy="75.9102" rx="3" ry="3" style="stroke:#038048;stroke-width:1.0;fill:none;"/><text fill="#000000" font-family="sans-serif" font-size="11" lengthAdjust="spacing" textLength="113" x="29" y="79.5449">inputs : ElementInput</text><ellipse cx="20" cy="88.8652" rx="3" ry="3" style="stroke:#038048;stroke-width:1.0;fill:none;"/><text fill="#000000" font-family="sans-serif" font-size="11" lengthAdjust="spacing" textLength="70" x="29" y="92.5">name : string</text><ellipse cx="20" cy="101.8203" rx="3" ry="3" style="stroke:#038048;stroke-width:1.0;fill:none;"/><text fill="#000000" font-family="sans-serif" font-size="11" lengthAdjust="spacing" textLength="83" x="29" y="105.4551">outputs : string</text><ellipse cx="20" cy="114.7754" rx="3" ry="3" style="stroke:#038048;stroke-width:1.0;fill:none;"/><text fill="#000000" font-family="sans-serif" font-size="11" lengthAdjust="spacing" textLength="58" x="29" y="118.4102">tag : string</text><polygon fill="none" points="20,122.7305,24,126.7305,20,130.7305,16,126.7305" style="stroke:#B38D22;stroke-width:1.0;"/><text fill="#000000" font-family="sans-serif" font-size="11" lengthAdjust="spacing" textLength="226" x="29" y="131.3652">creator : CreateStrategy&lt;ModdleElement&gt;</text><polygon fill="none" points="20,135.6855,24,139.6855,20,143.6855,16,139.6855" style="stroke:#B38D22;stroke-width:1.0;"/><text fill="#000000" font-family="sans-serif" font-size="11" lengthAdjust="spacing" textLength="204" x="29" y="144.3203">linker : LinkStrategy&lt;ModdleElement&gt;</text><line style="stroke:#A80036;stroke-width:1.5;" x1="10" x2="513" y1="150.6406" y2="150.6406"/><ellipse cx="20" cy="161.6406" fill="#84BE84" rx="3" ry="3" style="stroke:#038048;stroke-width:1.0;"/><text fill="#000000" font-family="sans-serif" font-size="11" lengthAdjust="spacing" textLength="479" x="29" y="165.2754">create(node: StatementNode&lt;ModdleElement&gt;, attrs: RecordOfAnyType) : ModdleElement</text><ellipse cx="20" cy="174.5957" fill="#84BE84" rx="3" ry="3" style="stroke:#038048;stroke-width:1.0;"/><text fill="#000000" font-family="sans-serif" font-size="11" lengthAdjust="spacing" textLength="338" x="29" y="178.2305">link(node: StatementNode&lt;ModdleElement&gt;) : ModdleElement[]</text><!--MD5=[0f78ed75f77dcfe60270e2aed52366e0]
reverse link BpmnElement to EndElement--><path codeLine="29" d="M261.5,205.53 C261.5,218.57 261.5,231.84 261.5,244.77 " fill="none" id="BpmnElement-backto-EndElement" style="stroke:#A80036;stroke-width:1.0;"/><polygon fill="none" points="254.5,205.31,261.5,185.31,268.5,205.31,254.5,205.31" style="stroke:#A80036;stroke-width:1.0;"/><!--MD5=[2645d8ffea29de80810a0562d80a02f6]
@startuml
hide empty methods
hide empty fields
class "EndElement" {
    +attributes : object
    +id : string
    +inputs : ElementInput
    +name : string
    +outputs : string
    +statement : undefined | string
    +tag : string
    +utils : UtilsService
    #creator : CreateStrategy<ModdleElement>
    #linker : LinkStrategy<ModdleElement>
    +create(node: StatementNode<ModdleElement>, attrs: RecordOfAnyType) : ModdleElement
    +link(node: StatementNode<ModdleElement>) : ModdleElement[]
}
abstract class "BpmnElement" {
    +attributes : RecordOfAnyType
    +id : string
    +inputs : ElementInput
    +name : string
    +outputs : string
    +tag : string
    #creator : CreateStrategy<ModdleElement>
    #linker : LinkStrategy<ModdleElement>
    +create(node: StatementNode<ModdleElement>, attrs: RecordOfAnyType) : ModdleElement
    +link(node: StatementNode<ModdleElement>) : ModdleElement[]
}
"BpmnElement" <|- - "EndElement"
@enduml

PlantUML version 1.2021.14(Fri Nov 12 22:16:50 IST 2021)
(GPL source distribution)
Java Runtime: OpenJDK Runtime Environment
JVM: OpenJDK 64-Bit Server VM
Default Encoding: UTF-8
Language: en
Country: IN
--></g></svg>