<?xml version="1.0" encoding="UTF-8" standalone="no"?><svg xmlns="http://www.w3.org/2000/svg" xmlns:xlink="http://www.w3.org/1999/xlink" contentScriptType="application/ecmascript" contentStyleType="text/css" height="264px" preserveAspectRatio="none" style="width:652px;height:264px;background:#FFFFFF;" version="1.1" viewBox="0 0 652 264" width="652px" zoomAndPan="magnify"><defs><filter height="300%" id="f10kmnzvjx2503" width="300%" x="-1" y="-1"><feGaussianBlur result="blurOut" stdDeviation="2.0"/><feColorMatrix in="blurOut" result="blurOut2" type="matrix" values="0 0 0 0 0 0 0 0 0 0 0 0 0 0 0 0 0 0 .4 0"/><feOffset dx="4.0" dy="4.0" in="blurOut2" result="blurOut3"/><feBlend in="SourceGraphic" in2="blurOut3" mode="normal"/></filter></defs><g><!--MD5=[56ebfb2e99653edfb993a6d89fa37924]
class GatewayLinkStrategy--><rect codeLine="3" fill="#FEFECE" filter="url(#f10kmnzvjx2503)" height="130.6855" id="GatewayLinkStrategy" style="stroke:#A80036;stroke-width:1.5;" width="562" x="41.5" y="120"/><ellipse cx="259.25" cy="136" fill="#ADD1B2" rx="11" ry="11" style="stroke:#A80036;stroke-width:1.0;"/><path d="M261.7231,142.1431 Q261.1421,142.4419 260.5029,142.5913 Q259.8638,142.7407 259.1582,142.7407 Q256.6514,142.7407 255.3315,141.0889 Q254.0117,139.437 254.0117,136.3159 Q254.0117,133.1865 255.3315,131.5347 Q256.6514,129.8828 259.1582,129.8828 Q259.8638,129.8828 260.5112,130.0322 Q261.1587,130.1816 261.7231,130.4805 L261.7231,133.2031 Q261.0923,132.6221 260.4988,132.3523 Q259.9053,132.0825 259.2744,132.0825 Q257.9297,132.0825 257.2449,133.1492 Q256.5601,134.2158 256.5601,136.3159 Q256.5601,138.4077 257.2449,139.4744 Q257.9297,140.541 259.2744,140.541 Q259.9053,140.541 260.4988,140.2712 Q261.0923,140.0015 261.7231,139.4204 Z " fill="#000000"/><text fill="#000000" font-family="sans-serif" font-size="12" lengthAdjust="spacing" textLength="118" x="279.75" y="140.5352">GatewayLinkStrategy</text><line style="stroke:#A80036;stroke-width:1.5;" x1="42.5" x2="602.5" y1="152" y2="152"/><ellipse cx="52.5" cy="163" fill="#84BE84" rx="3" ry="3" style="stroke:#038048;stroke-width:1.0;"/><text fill="#000000" font-family="sans-serif" font-size="11" lengthAdjust="spacing" textLength="536" x="61.5" y="166.6348">execute(element: WorkflowElement&lt;ModdleElement&gt;, node: BpmnStatementNode) : ModdleElement[]</text><rect fill="#F24D5C" height="6" style="stroke:#C82930;stroke-width:1.0;" width="6" x="49.5" y="172.9551"/><text fill="#000000" font-family="sans-serif" font-size="11" lengthAdjust="spacing" textLength="325" x="61.5" y="179.5898">createEndLink(node: BpmnStatementNode) : ModdleElement[]</text><rect fill="#F24D5C" height="6" style="stroke:#C82930;stroke-width:1.0;" width="6" x="49.5" y="185.9102"/><text fill="#000000" font-family="sans-serif" font-size="11" lengthAdjust="spacing" textLength="468" x="61.5" y="192.5449">createLinkAttrs(id: string, from: ModdleElement, to: ModdleElement) : RecordOfAnyType</text><rect fill="#F24D5C" height="6" style="stroke:#C82930;stroke-width:1.0;" width="6" x="49.5" y="198.8652"/><text fill="#000000" font-family="sans-serif" font-size="11" lengthAdjust="spacing" textLength="322" x="61.5" y="205.5">createMainLink(node: BpmnStatementNode) : ModdleElement</text><rect fill="#F24D5C" height="6" style="stroke:#C82930;stroke-width:1.0;" width="6" x="49.5" y="211.8203"/><text fill="#000000" font-family="sans-serif" font-size="11" lengthAdjust="spacing" textLength="334" x="61.5" y="218.4551">createScript(node: BpmnStatementNode, flowId: string) : object</text><rect fill="#F24D5C" height="6" style="stroke:#C82930;stroke-width:1.0;" width="6" x="49.5" y="224.7754"/><text fill="#000000" font-family="sans-serif" font-size="11" lengthAdjust="spacing" textLength="263" x="61.5" y="231.4102">getCondition(node: BpmnStatementNode) : string</text><rect fill="#F24D5C" height="6" style="stroke:#C82930;stroke-width:1.0;" width="6" x="49.5" y="237.7305"/><text fill="#000000" font-family="sans-serif" font-size="11" lengthAdjust="spacing" textLength="400" x="61.5" y="244.3652">getLastNodeWithOutput(node: BpmnStatementNode) : BpmnStatementNode</text><!--MD5=[d152fecd85031f2e2d4cf80c5b993ec7]
class LinkStrategy<ModdleElement>--><rect codeLine="12" fill="#FEFECE" filter="url(#f10kmnzvjx2503)" height="52.9551" id="LinkStrategy&lt;ModdleElement&gt;" style="stroke:#A80036;stroke-width:1.5;" width="631" x="7" y="7"/><ellipse cx="229.25" cy="23" fill="#B4A7E5" rx="11" ry="11" style="stroke:#A80036;stroke-width:1.0;"/><path d="M225.6777,19.2651 L225.6777,17.1069 L233.0571,17.1069 L233.0571,19.2651 L230.5918,19.2651 L230.5918,27.3418 L233.0571,27.3418 L233.0571,29.5 L225.6777,29.5 L225.6777,27.3418 L228.1431,27.3418 L228.1431,19.2651 Z " fill="#000000"/><text fill="#000000" font-family="sans-serif" font-size="12" font-style="italic" lengthAdjust="spacing" textLength="178" x="249.75" y="27.5352">LinkStrategy&lt;ModdleElement&gt;</text><line style="stroke:#A80036;stroke-width:1.5;" x1="8" x2="637" y1="39" y2="39"/><ellipse cx="18" cy="50" fill="#84BE84" rx="3" ry="3" style="stroke:#038048;stroke-width:1.0;"/><text fill="#000000" font-family="sans-serif" font-size="11" lengthAdjust="spacing" textLength="605" x="27" y="53.6348">execute(element: WorkflowElement&lt;ModdleElement&gt;, node: StatementNode&lt;ModdleElement&gt;) : ModdleElement[]</text><!--MD5=[6dd93ac296bb9e5f49148e9085099ecd]
reverse link LinkStrategy<ModdleElement> to GatewayLinkStrategy--><path codeLine="15" d="M322.5,80.32 C322.5,92.75 322.5,106.45 322.5,119.72 " fill="none" id="LinkStrategy&lt;ModdleElement&gt;-backto-GatewayLinkStrategy" style="stroke:#A80036;stroke-width:1.0;stroke-dasharray:7.0,7.0;"/><polygon fill="none" points="315.5,80.29,322.5,60.29,329.5,80.29,315.5,80.29" style="stroke:#A80036;stroke-width:1.0;"/><!--MD5=[2077b8c43a981126eceb55044c485d25]
@startuml
hide empty methods
hide empty fields
class "GatewayLinkStrategy" {
    +execute(element: WorkflowElement<ModdleElement>, node: BpmnStatementNode) : ModdleElement[]
    -createEndLink(node: BpmnStatementNode) : ModdleElement[]
    -createLinkAttrs(id: string, from: ModdleElement, to: ModdleElement) : RecordOfAnyType
    -createMainLink(node: BpmnStatementNode) : ModdleElement
    -createScript(node: BpmnStatementNode, flowId: string) : object
    -getCondition(node: BpmnStatementNode) : string
    -getLastNodeWithOutput(node: BpmnStatementNode) : BpmnStatementNode
}
interface "LinkStrategy<ModdleElement>" {
    +execute(element: WorkflowElement<ModdleElement>, node: StatementNode<ModdleElement>) : ModdleElement[]
}
"LinkStrategy<ModdleElement>" <|.. "GatewayLinkStrategy"
@enduml

PlantUML version 1.2021.14(Fri Nov 12 22:16:50 IST 2021)
(GPL source distribution)
Java Runtime: OpenJDK Runtime Environment
JVM: OpenJDK 64-Bit Server VM
Default Encoding: UTF-8
Language: en
Country: IN
--></g></svg>