<?xml version="1.0" encoding="UTF-8" standalone="no"?><svg xmlns="http://www.w3.org/2000/svg" xmlns:xlink="http://www.w3.org/1999/xlink" contentScriptType="application/ecmascript" contentStyleType="text/css" height="488px" preserveAspectRatio="none" style="width:528px;height:488px;background:#FFFFFF;" version="1.1" viewBox="0 0 528 488" width="528px" zoomAndPan="magnify"><defs><filter height="300%" id="f1owynrsdf0hub" width="300%" x="-1" y="-1"><feGaussianBlur result="blurOut" stdDeviation="2.0"/><feColorMatrix in="blurOut" result="blurOut2" type="matrix" values="0 0 0 0 0 0 0 0 0 0 0 0 0 0 0 0 0 0 .4 0"/><feOffset dx="4.0" dy="4.0" in="blurOut2" result="blurOut3"/><feBlend in="SourceGraphic" in2="blurOut3" mode="normal"/></filter></defs><g><!--MD5=[ec9b473fc88c52a1101890973b8d83df]
class GatewayElement--><rect codeLine="3" fill="#FEFECE" filter="url(#f1owynrsdf0hub)" height="229.3711" id="GatewayElement" style="stroke:#A80036;stroke-width:1.5;" width="505" x="9" y="245"/><ellipse cx="209.75" cy="261" fill="#ADD1B2" rx="11" ry="11" style="stroke:#A80036;stroke-width:1.0;"/><path d="M212.2231,267.1431 Q211.6421,267.4419 211.0029,267.5913 Q210.3638,267.7407 209.6582,267.7407 Q207.1514,267.7407 205.8315,266.0889 Q204.5117,264.437 204.5117,261.3159 Q204.5117,258.1865 205.8315,256.5347 Q207.1514,254.8828 209.6582,254.8828 Q210.3638,254.8828 211.0112,255.0322 Q211.6587,255.1816 212.2231,255.4805 L212.2231,258.2031 Q211.5923,257.6221 210.9988,257.3523 Q210.4053,257.0825 209.7744,257.0825 Q208.4297,257.0825 207.7449,258.1492 Q207.0601,259.2158 207.0601,261.3159 Q207.0601,263.4077 207.7449,264.4744 Q208.4297,265.541 209.7744,265.541 Q210.4053,265.541 210.9988,265.2712 Q211.5923,265.0015 212.2231,264.4204 Z " fill="#000000"/><text fill="#000000" font-family="sans-serif" font-size="12" lengthAdjust="spacing" textLength="95" x="230.25" y="265.5352">GatewayElement</text><line style="stroke:#A80036;stroke-width:1.5;" x1="10" x2="513" y1="277" y2="277"/><ellipse cx="20" cy="288" rx="3" ry="3" style="stroke:#038048;stroke-width:1.0;fill:none;"/><text fill="#000000" font-family="sans-serif" font-size="11" lengthAdjust="spacing" textLength="94" x="29" y="291.6348">attributes : object</text><ellipse cx="20" cy="300.9551" rx="3" ry="3" style="stroke:#038048;stroke-width:1.0;fill:none;"/><text fill="#000000" font-family="sans-serif" font-size="11" lengthAdjust="spacing" textLength="51" x="29" y="304.5898">id : string</text><ellipse cx="20" cy="313.9102" rx="3" ry="3" style="stroke:#038048;stroke-width:1.0;fill:none;"/><text fill="#000000" font-family="sans-serif" font-size="11" lengthAdjust="spacing" textLength="113" x="29" y="317.5449">inputs : ElementInput</text><ellipse cx="20" cy="326.8652" rx="3" ry="3" style="stroke:#038048;stroke-width:1.0;fill:none;"/><text fill="#000000" font-family="sans-serif" font-size="11" lengthAdjust="spacing" textLength="70" x="29" y="330.5">name : string</text><ellipse cx="20" cy="339.8203" rx="3" ry="3" style="stroke:#038048;stroke-width:1.0;fill:none;"/><text fill="#000000" font-family="sans-serif" font-size="11" lengthAdjust="spacing" textLength="83" x="29" y="343.4551">outputs : string</text><ellipse cx="20" cy="352.7754" rx="3" ry="3" style="stroke:#038048;stroke-width:1.0;fill:none;"/><text fill="#000000" font-family="sans-serif" font-size="11" lengthAdjust="spacing" textLength="98" x="29" y="356.4102">properties : object</text><ellipse cx="20" cy="365.7305" rx="3" ry="3" style="stroke:#038048;stroke-width:1.0;fill:none;"/><text fill="#000000" font-family="sans-serif" font-size="11" lengthAdjust="spacing" textLength="158" x="29" y="369.3652">statement : undefined | string</text><ellipse cx="20" cy="378.6855" rx="3" ry="3" style="stroke:#038048;stroke-width:1.0;fill:none;"/><text fill="#000000" font-family="sans-serif" font-size="11" lengthAdjust="spacing" textLength="58" x="29" y="382.3203">tag : string</text><ellipse cx="20" cy="391.6406" rx="3" ry="3" style="stroke:#038048;stroke-width:1.0;fill:none;"/><text fill="#000000" font-family="sans-serif" font-size="11" lengthAdjust="spacing" text-decoration="underline" textLength="106" x="29" y="395.2754">type : ElementTypes</text><ellipse cx="20" cy="404.5957" rx="3" ry="3" style="stroke:#038048;stroke-width:1.0;fill:none;"/><text fill="#000000" font-family="sans-serif" font-size="11" lengthAdjust="spacing" textLength="94" x="29" y="408.2305">utils : UtilsService</text><polygon fill="none" points="20,412.5508,24,416.5508,20,420.5508,16,416.5508" style="stroke:#B38D22;stroke-width:1.0;"/><text fill="#000000" font-family="sans-serif" font-size="11" lengthAdjust="spacing" textLength="226" x="29" y="421.1855">creator : CreateStrategy&lt;ModdleElement&gt;</text><polygon fill="none" points="20,425.5059,24,429.5059,20,433.5059,16,429.5059" style="stroke:#B38D22;stroke-width:1.0;"/><text fill="#000000" font-family="sans-serif" font-size="11" lengthAdjust="spacing" textLength="204" x="29" y="434.1406">linker : LinkStrategy&lt;ModdleElement&gt;</text><line style="stroke:#A80036;stroke-width:1.5;" x1="10" x2="513" y1="440.4609" y2="440.4609"/><ellipse cx="20" cy="451.4609" fill="#84BE84" rx="3" ry="3" style="stroke:#038048;stroke-width:1.0;"/><text fill="#000000" font-family="sans-serif" font-size="11" lengthAdjust="spacing" textLength="479" x="29" y="455.0957">create(node: StatementNode&lt;ModdleElement&gt;, attrs: RecordOfAnyType) : ModdleElement</text><ellipse cx="20" cy="464.416" fill="#84BE84" rx="3" ry="3" style="stroke:#038048;stroke-width:1.0;"/><text fill="#000000" font-family="sans-serif" font-size="11" lengthAdjust="spacing" textLength="338" x="29" y="468.0508">link(node: StatementNode&lt;ModdleElement&gt;) : ModdleElement[]</text><!--MD5=[67972b1c6d4722e1308be96bcf302a89]
class BpmnElement--><rect codeLine="19" fill="#FEFECE" filter="url(#f1owynrsdf0hub)" height="177.5508" id="BpmnElement" style="stroke:#A80036;stroke-width:1.5;" width="505" x="9" y="7"/><ellipse cx="217.75" cy="23" fill="#A9DCDF" rx="11" ry="11" style="stroke:#A80036;stroke-width:1.0;"/><path d="M217.6133,18.3481 L216.4595,23.4199 L218.7754,23.4199 Z M216.1191,16.1069 L219.1157,16.1069 L222.4609,28.5 L220.0122,28.5 L219.2485,25.437 L215.9697,25.437 L215.2227,28.5 L212.7739,28.5 Z " fill="#000000"/><text fill="#000000" font-family="sans-serif" font-size="12" font-style="italic" lengthAdjust="spacing" textLength="79" x="238.25" y="27.5352">BpmnElement</text><line style="stroke:#A80036;stroke-width:1.5;" x1="10" x2="513" y1="39" y2="39"/><ellipse cx="20" cy="50" rx="3" ry="3" style="stroke:#038048;stroke-width:1.0;fill:none;"/><text fill="#000000" font-family="sans-serif" font-size="11" lengthAdjust="spacing" textLength="159" x="29" y="53.6348">attributes : RecordOfAnyType</text><ellipse cx="20" cy="62.9551" rx="3" ry="3" style="stroke:#038048;stroke-width:1.0;fill:none;"/><text fill="#000000" font-family="sans-serif" font-size="11" lengthAdjust="spacing" textLength="51" x="29" y="66.5898">id : string</text><ellipse cx="20" cy="75.9102" rx="3" ry="3" style="stroke:#038048;stroke-width:1.0;fill:none;"/><text fill="#000000" font-family="sans-serif" font-size="11" lengthAdjust="spacing" textLength="113" x="29" y="79.5449">inputs : ElementInput</text><ellipse cx="20" cy="88.8652" rx="3" ry="3" style="stroke:#038048;stroke-width:1.0;fill:none;"/><text fill="#000000" font-family="sans-serif" font-size="11" lengthAdjust="spacing" textLength="70" x="29" y="92.5">name : string</text><ellipse cx="20" cy="101.8203" rx="3" ry="3" style="stroke:#038048;stroke-width:1.0;fill:none;"/><text fill="#000000" font-family="sans-serif" font-size="11" lengthAdjust="spacing" textLength="83" x="29" y="105.4551">outputs : string</text><ellipse cx="20" cy="114.7754" rx="3" ry="3" style="stroke:#038048;stroke-width:1.0;fill:none;"/><text fill="#000000" font-family="sans-serif" font-size="11" lengthAdjust="spacing" textLength="58" x="29" y="118.4102">tag : string</text><polygon fill="none" points="20,122.7305,24,126.7305,20,130.7305,16,126.7305" style="stroke:#B38D22;stroke-width:1.0;"/><text fill="#000000" font-family="sans-serif" font-size="11" lengthAdjust="spacing" textLength="226" x="29" y="131.3652">creator : CreateStrategy&lt;ModdleElement&gt;</text><polygon fill="none" points="20,135.6855,24,139.6855,20,143.6855,16,139.6855" style="stroke:#B38D22;stroke-width:1.0;"/><text fill="#000000" font-family="sans-serif" font-size="11" lengthAdjust="spacing" textLength="204" x="29" y="144.3203">linker : LinkStrategy&lt;ModdleElement&gt;</text><line style="stroke:#A80036;stroke-width:1.5;" x1="10" x2="513" y1="150.6406" y2="150.6406"/><ellipse cx="20" cy="161.6406" fill="#84BE84" rx="3" ry="3" style="stroke:#038048;stroke-width:1.0;"/><text fill="#000000" font-family="sans-serif" font-size="11" lengthAdjust="spacing" textLength="479" x="29" y="165.2754">create(node: StatementNode&lt;ModdleElement&gt;, attrs: RecordOfAnyType) : ModdleElement</text><ellipse cx="20" cy="174.5957" fill="#84BE84" rx="3" ry="3" style="stroke:#038048;stroke-width:1.0;"/><text fill="#000000" font-family="sans-serif" font-size="11" lengthAdjust="spacing" textLength="338" x="29" y="178.2305">link(node: StatementNode&lt;ModdleElement&gt;) : ModdleElement[]</text><!--MD5=[68a614104fe9d7d9374c93c24e619ae0]
reverse link BpmnElement to GatewayElement--><path codeLine="31" d="M261.5,205.3 C261.5,218.32 261.5,231.65 261.5,244.74 " fill="none" id="BpmnElement-backto-GatewayElement" style="stroke:#A80036;stroke-width:1.0;"/><polygon fill="none" points="254.5,205.17,261.5,185.17,268.5,205.17,254.5,205.17" style="stroke:#A80036;stroke-width:1.0;"/><!--MD5=[5f018def6bbe8ff8f030536ab3f4961b]
@startuml
hide empty methods
hide empty fields
class "GatewayElement" {
    +attributes : object
    +id : string
    +inputs : ElementInput
    +name : string
    +outputs : string
    +properties : object
    +statement : undefined | string
    +tag : string
    {static} +type : ElementTypes
    +utils : UtilsService
    #creator : CreateStrategy<ModdleElement>
    #linker : LinkStrategy<ModdleElement>
    +create(node: StatementNode<ModdleElement>, attrs: RecordOfAnyType) : ModdleElement
    +link(node: StatementNode<ModdleElement>) : ModdleElement[]
}
abstract class "BpmnElement" {
    +attributes : RecordOfAnyType
    +id : string
    +inputs : ElementInput
    +name : string
    +outputs : string
    +tag : string
    #creator : CreateStrategy<ModdleElement>
    #linker : LinkStrategy<ModdleElement>
    +create(node: StatementNode<ModdleElement>, attrs: RecordOfAnyType) : ModdleElement
    +link(node: StatementNode<ModdleElement>) : ModdleElement[]
}
"BpmnElement" <|- - "GatewayElement"
@enduml

PlantUML version 1.2021.14(Fri Nov 12 22:16:50 IST 2021)
(GPL source distribution)
Java Runtime: OpenJDK Runtime Environment
JVM: OpenJDK 64-Bit Server VM
Default Encoding: UTF-8
Language: en
Country: IN
--></g></svg>