<?xml version="1.0" encoding="UTF-8" standalone="no"?><svg xmlns="http://www.w3.org/2000/svg" xmlns:xlink="http://www.w3.org/1999/xlink" contentScriptType="application/ecmascript" contentStyleType="text/css" height="264px" preserveAspectRatio="none" style="width:1395px;height:264px;background:#FFFFFF;" version="1.1" viewBox="0 0 1395 264" width="1395px" zoomAndPan="magnify"><defs><filter height="300%" id="f1p35rt4hkiuoq" width="300%" x="-1" y="-1"><feGaussianBlur result="blurOut" stdDeviation="2.0"/><feColorMatrix in="blurOut" result="blurOut2" type="matrix" values="0 0 0 0 0 0 0 0 0 0 0 0 0 0 0 0 0 0 .4 0"/><feOffset dx="4.0" dy="4.0" in="blurOut2" result="blurOut3"/><feBlend in="SourceGraphic" in2="blurOut3" mode="normal"/></filter></defs><g><!--MD5=[6995e006784c47f003fddcbc7d3a03bf]
class LinkStrategy<E>--><rect codeLine="3" fill="#FEFECE" filter="url(#f1p35rt4hkiuoq)" height="52.9551" id="LinkStrategy&lt;E&gt;" style="stroke:#A80036;stroke-width:1.5;" width="406" x="688" y="7"/><ellipse cx="838.75" cy="23" fill="#B4A7E5" rx="11" ry="11" style="stroke:#A80036;stroke-width:1.0;"/><path d="M835.1777,19.2651 L835.1777,17.1069 L842.5571,17.1069 L842.5571,19.2651 L840.0918,19.2651 L840.0918,27.3418 L842.5571,27.3418 L842.5571,29.5 L835.1777,29.5 L835.1777,27.3418 L837.6431,27.3418 L837.6431,19.2651 Z " fill="#000000"/><text fill="#000000" font-family="sans-serif" font-size="12" font-style="italic" lengthAdjust="spacing" textLength="96" x="859.25" y="27.5352">LinkStrategy&lt;E&gt;</text><line style="stroke:#A80036;stroke-width:1.5;" x1="689" x2="1093" y1="39" y2="39"/><ellipse cx="699" cy="50" fill="#84BE84" rx="3" ry="3" style="stroke:#038048;stroke-width:1.0;"/><text fill="#000000" font-family="sans-serif" font-size="11" lengthAdjust="spacing" textLength="380" x="708" y="53.6348">execute(element: WorkflowElement&lt;E&gt;, node: StatementNode&lt;E&gt;) : E[]</text><!--MD5=[e8a28ab46df1e46f71c2ab960f1fa6a2]
class BasicLinkStrategy--><rect codeLine="6" fill="#FEFECE" filter="url(#f1p35rt4hkiuoq)" height="52.9551" id="BasicLinkStrategy" style="stroke:#A80036;stroke-width:1.5;" width="568" x="7" y="159"/><ellipse cx="237.75" cy="175" fill="#ADD1B2" rx="11" ry="11" style="stroke:#A80036;stroke-width:1.0;"/><path d="M240.2231,181.1431 Q239.6421,181.4419 239.0029,181.5913 Q238.3638,181.7407 237.6582,181.7407 Q235.1514,181.7407 233.8315,180.0889 Q232.5117,178.437 232.5117,175.3159 Q232.5117,172.1865 233.8315,170.5347 Q235.1514,168.8828 237.6582,168.8828 Q238.3638,168.8828 239.0112,169.0322 Q239.6587,169.1816 240.2231,169.4805 L240.2231,172.2031 Q239.5923,171.6221 238.9988,171.3523 Q238.4053,171.0825 237.7744,171.0825 Q236.4297,171.0825 235.7449,172.1492 Q235.0601,173.2158 235.0601,175.3159 Q235.0601,177.4077 235.7449,178.4744 Q236.4297,179.541 237.7744,179.541 Q238.4053,179.541 238.9988,179.2712 Q239.5923,179.0015 240.2231,178.4204 Z " fill="#000000"/><text fill="#000000" font-family="sans-serif" font-size="12" lengthAdjust="spacing" textLength="98" x="258.25" y="179.5352">BasicLinkStrategy</text><line style="stroke:#A80036;stroke-width:1.5;" x1="8" x2="574" y1="191" y2="191"/><ellipse cx="18" cy="202" fill="#84BE84" rx="3" ry="3" style="stroke:#038048;stroke-width:1.0;"/><text fill="#000000" font-family="sans-serif" font-size="11" lengthAdjust="spacing" textLength="542" x="27" y="205.6348">execute(_element: WorkflowElement&lt;ModdleElement&gt;, node: BpmnStatementNode) : ModdleElement[]</text><!--MD5=[56ebfb2e99653edfb993a6d89fa37924]
class GatewayLinkStrategy--><rect codeLine="10" fill="#FEFECE" filter="url(#f1p35rt4hkiuoq)" height="130.6855" id="GatewayLinkStrategy" style="stroke:#A80036;stroke-width:1.5;" width="562" x="610" y="120"/><ellipse cx="827.75" cy="136" fill="#ADD1B2" rx="11" ry="11" style="stroke:#A80036;stroke-width:1.0;"/><path d="M830.2231,142.1431 Q829.6421,142.4419 829.0029,142.5913 Q828.3638,142.7407 827.6582,142.7407 Q825.1514,142.7407 823.8315,141.0889 Q822.5117,139.437 822.5117,136.3159 Q822.5117,133.1865 823.8315,131.5347 Q825.1514,129.8828 827.6582,129.8828 Q828.3638,129.8828 829.0112,130.0322 Q829.6587,130.1816 830.2231,130.4805 L830.2231,133.2031 Q829.5923,132.6221 828.9988,132.3523 Q828.4053,132.0825 827.7744,132.0825 Q826.4297,132.0825 825.7449,133.1492 Q825.0601,134.2158 825.0601,136.3159 Q825.0601,138.4077 825.7449,139.4744 Q826.4297,140.541 827.7744,140.541 Q828.4053,140.541 828.9988,140.2712 Q829.5923,140.0015 830.2231,139.4204 Z " fill="#000000"/><text fill="#000000" font-family="sans-serif" font-size="12" lengthAdjust="spacing" textLength="118" x="848.25" y="140.5352">GatewayLinkStrategy</text><line style="stroke:#A80036;stroke-width:1.5;" x1="611" x2="1171" y1="152" y2="152"/><ellipse cx="621" cy="163" fill="#84BE84" rx="3" ry="3" style="stroke:#038048;stroke-width:1.0;"/><text fill="#000000" font-family="sans-serif" font-size="11" lengthAdjust="spacing" textLength="536" x="630" y="166.6348">execute(element: WorkflowElement&lt;ModdleElement&gt;, node: BpmnStatementNode) : ModdleElement[]</text><rect fill="#F24D5C" height="6" style="stroke:#C82930;stroke-width:1.0;" width="6" x="618" y="172.9551"/><text fill="#000000" font-family="sans-serif" font-size="11" lengthAdjust="spacing" textLength="325" x="630" y="179.5898">createEndLink(node: BpmnStatementNode) : ModdleElement[]</text><rect fill="#F24D5C" height="6" style="stroke:#C82930;stroke-width:1.0;" width="6" x="618" y="185.9102"/><text fill="#000000" font-family="sans-serif" font-size="11" lengthAdjust="spacing" textLength="468" x="630" y="192.5449">createLinkAttrs(id: string, from: ModdleElement, to: ModdleElement) : RecordOfAnyType</text><rect fill="#F24D5C" height="6" style="stroke:#C82930;stroke-width:1.0;" width="6" x="618" y="198.8652"/><text fill="#000000" font-family="sans-serif" font-size="11" lengthAdjust="spacing" textLength="322" x="630" y="205.5">createMainLink(node: BpmnStatementNode) : ModdleElement</text><rect fill="#F24D5C" height="6" style="stroke:#C82930;stroke-width:1.0;" width="6" x="618" y="211.8203"/><text fill="#000000" font-family="sans-serif" font-size="11" lengthAdjust="spacing" textLength="334" x="630" y="218.4551">createScript(node: BpmnStatementNode, flowId: string) : object</text><rect fill="#F24D5C" height="6" style="stroke:#C82930;stroke-width:1.0;" width="6" x="618" y="224.7754"/><text fill="#000000" font-family="sans-serif" font-size="11" lengthAdjust="spacing" textLength="263" x="630" y="231.4102">getCondition(node: BpmnStatementNode) : string</text><rect fill="#F24D5C" height="6" style="stroke:#C82930;stroke-width:1.0;" width="6" x="618" y="237.7305"/><text fill="#000000" font-family="sans-serif" font-size="11" lengthAdjust="spacing" textLength="400" x="630" y="244.3652">getLastNodeWithOutput(node: BpmnStatementNode) : BpmnStatementNode</text><!--MD5=[9fe76076e638bc816c6e2223129f89f8]
class NoLinkStrategy--><rect codeLine="20" fill="#FEFECE" filter="url(#f1p35rt4hkiuoq)" height="52.9551" id="NoLinkStrategy" style="stroke:#A80036;stroke-width:1.5;" width="174" x="1207" y="159"/><ellipse cx="1247.65" cy="175" fill="#ADD1B2" rx="11" ry="11" style="stroke:#A80036;stroke-width:1.0;"/><path d="M1250.1231,181.1431 Q1249.5421,181.4419 1248.9029,181.5913 Q1248.2638,181.7407 1247.5582,181.7407 Q1245.0514,181.7407 1243.7315,180.0889 Q1242.4117,178.437 1242.4117,175.3159 Q1242.4117,172.1865 1243.7315,170.5347 Q1245.0514,168.8828 1247.5582,168.8828 Q1248.2638,168.8828 1248.9112,169.0322 Q1249.5587,169.1816 1250.1231,169.4805 L1250.1231,172.2031 Q1249.4923,171.6221 1248.8988,171.3523 Q1248.3053,171.0825 1247.6744,171.0825 Q1246.3297,171.0825 1245.6449,172.1492 Q1244.9601,173.2158 1244.9601,175.3159 Q1244.9601,177.4077 1245.6449,178.4744 Q1246.3297,179.541 1247.6744,179.541 Q1248.3053,179.541 1248.8988,179.2712 Q1249.4923,179.0015 1250.1231,178.4204 Z " fill="#000000"/><text fill="#000000" font-family="sans-serif" font-size="12" lengthAdjust="spacing" textLength="85" x="1267.35" y="179.5352">NoLinkStrategy</text><line style="stroke:#A80036;stroke-width:1.5;" x1="1208" x2="1380" y1="191" y2="191"/><ellipse cx="1218" cy="202" fill="#84BE84" rx="3" ry="3" style="stroke:#038048;stroke-width:1.0;"/><text fill="#000000" font-family="sans-serif" font-size="11" lengthAdjust="spacing" textLength="148" x="1227" y="205.6348">execute() : ModdleElement[]</text><!--MD5=[6c690d59ae919a8638c43235ae971118]
reverse link LinkStrategy<E> to BasicLinkStrategy--><path codeLine="9" d="M769.18,64.96 C658.54,92.61 497.21,132.95 393.16,158.96 " fill="none" id="LinkStrategy&lt;E&gt;-backto-BasicLinkStrategy" style="stroke:#A80036;stroke-width:1.0;stroke-dasharray:7.0,7.0;"/><polygon fill="none" points="767.78,58.09,788.88,60.03,771.17,71.67,767.78,58.09" style="stroke:#A80036;stroke-width:1.0;"/><!--MD5=[3b46811abc1b3947d1e11bd22393c111]
reverse link LinkStrategy<E> to GatewayLinkStrategy--><path codeLine="19" d="M891,80.32 C891,92.75 891,106.45 891,119.72 " fill="none" id="LinkStrategy&lt;E&gt;-backto-GatewayLinkStrategy" style="stroke:#A80036;stroke-width:1.0;stroke-dasharray:7.0,7.0;"/><polygon fill="none" points="884,80.29,891,60.29,898,80.29,884,80.29" style="stroke:#A80036;stroke-width:1.0;"/><!--MD5=[ebf50762720f66fe02afef45e71ebe78]
reverse link LinkStrategy<E> to NoLinkStrategy--><path codeLine="23" d="M1027.8,65.1 C1079.72,78.91 1138.67,97.27 1190,120 C1213.9,130.58 1238.84,145.88 1258.3,158.93 " fill="none" id="LinkStrategy&lt;E&gt;-backto-NoLinkStrategy" style="stroke:#A80036;stroke-width:1.0;stroke-dasharray:7.0,7.0;"/><polygon fill="none" points="1025.88,71.84,1008.28,60.04,1029.4,58.28,1025.88,71.84" style="stroke:#A80036;stroke-width:1.0;"/><!--MD5=[f9da28b5351daa14fedeeeef5d4a5743]
@startuml
hide empty methods
hide empty fields
interface "LinkStrategy<E>" {
    +execute(element: WorkflowElement<E>, node: StatementNode<E>) : E[]
}
class "BasicLinkStrategy" {
    +execute(_element: WorkflowElement<ModdleElement>, node: BpmnStatementNode) : ModdleElement[]
}
"LinkStrategy<E>" <|.. "BasicLinkStrategy"
class "GatewayLinkStrategy" {
    +execute(element: WorkflowElement<ModdleElement>, node: BpmnStatementNode) : ModdleElement[]
    -createEndLink(node: BpmnStatementNode) : ModdleElement[]
    -createLinkAttrs(id: string, from: ModdleElement, to: ModdleElement) : RecordOfAnyType
    -createMainLink(node: BpmnStatementNode) : ModdleElement
    -createScript(node: BpmnStatementNode, flowId: string) : object
    -getCondition(node: BpmnStatementNode) : string
    -getLastNodeWithOutput(node: BpmnStatementNode) : BpmnStatementNode
}
"LinkStrategy<E>" <|.. "GatewayLinkStrategy"
class "NoLinkStrategy" {
    +execute() : ModdleElement[]
}
"LinkStrategy<E>" <|.. "NoLinkStrategy"
@enduml

PlantUML version 1.2021.14(Fri Nov 12 22:16:50 IST 2021)
(GPL source distribution)
Java Runtime: OpenJDK Runtime Environment
JVM: OpenJDK 64-Bit Server VM
Default Encoding: UTF-8
Language: en
Country: IN
--></g></svg>