<?xml version="1.0" encoding="UTF-8" standalone="no"?><svg xmlns="http://www.w3.org/2000/svg" xmlns:xlink="http://www.w3.org/1999/xlink" contentScriptType="application/ecmascript" contentStyleType="text/css" height="186px" preserveAspectRatio="none" style="width:652px;height:186px;background:#FFFFFF;" version="1.1" viewBox="0 0 652 186" width="652px" zoomAndPan="magnify"><defs><filter height="300%" id="freqqn3yafelr" width="300%" x="-1" y="-1"><feGaussianBlur result="blurOut" stdDeviation="2.0"/><feColorMatrix in="blurOut" result="blurOut2" type="matrix" values="0 0 0 0 0 0 0 0 0 0 0 0 0 0 0 0 0 0 .4 0"/><feOffset dx="4.0" dy="4.0" in="blurOut2" result="blurOut3"/><feBlend in="SourceGraphic" in2="blurOut3" mode="normal"/></filter></defs><g><!--MD5=[9fe76076e638bc816c6e2223129f89f8]
class NoLinkStrategy--><rect codeLine="3" fill="#FEFECE" filter="url(#freqqn3yafelr)" height="52.9551" id="NoLinkStrategy" style="stroke:#A80036;stroke-width:1.5;" width="174" x="235.5" y="120"/><ellipse cx="276.15" cy="136" fill="#ADD1B2" rx="11" ry="11" style="stroke:#A80036;stroke-width:1.0;"/><path d="M278.6231,142.1431 Q278.0421,142.4419 277.4029,142.5913 Q276.7638,142.7407 276.0582,142.7407 Q273.5514,142.7407 272.2315,141.0889 Q270.9117,139.437 270.9117,136.3159 Q270.9117,133.1865 272.2315,131.5347 Q273.5514,129.8828 276.0582,129.8828 Q276.7638,129.8828 277.4112,130.0322 Q278.0587,130.1816 278.6231,130.4805 L278.6231,133.2031 Q277.9923,132.6221 277.3988,132.3523 Q276.8053,132.0825 276.1744,132.0825 Q274.8297,132.0825 274.1449,133.1492 Q273.4601,134.2158 273.4601,136.3159 Q273.4601,138.4077 274.1449,139.4744 Q274.8297,140.541 276.1744,140.541 Q276.8053,140.541 277.3988,140.2712 Q277.9923,140.0015 278.6231,139.4204 Z " fill="#000000"/><text fill="#000000" font-family="sans-serif" font-size="12" lengthAdjust="spacing" textLength="85" x="295.85" y="140.5352">NoLinkStrategy</text><line style="stroke:#A80036;stroke-width:1.5;" x1="236.5" x2="408.5" y1="152" y2="152"/><ellipse cx="246.5" cy="163" fill="#84BE84" rx="3" ry="3" style="stroke:#038048;stroke-width:1.0;"/><text fill="#000000" font-family="sans-serif" font-size="11" lengthAdjust="spacing" textLength="148" x="255.5" y="166.6348">execute() : ModdleElement[]</text><!--MD5=[d152fecd85031f2e2d4cf80c5b993ec7]
class LinkStrategy<ModdleElement>--><rect codeLine="6" fill="#FEFECE" filter="url(#freqqn3yafelr)" height="52.9551" id="LinkStrategy&lt;ModdleElement&gt;" style="stroke:#A80036;stroke-width:1.5;" width="631" x="7" y="7"/><ellipse cx="229.25" cy="23" fill="#B4A7E5" rx="11" ry="11" style="stroke:#A80036;stroke-width:1.0;"/><path d="M225.6777,19.2651 L225.6777,17.1069 L233.0571,17.1069 L233.0571,19.2651 L230.5918,19.2651 L230.5918,27.3418 L233.0571,27.3418 L233.0571,29.5 L225.6777,29.5 L225.6777,27.3418 L228.1431,27.3418 L228.1431,19.2651 Z " fill="#000000"/><text fill="#000000" font-family="sans-serif" font-size="12" font-style="italic" lengthAdjust="spacing" textLength="178" x="249.75" y="27.5352">LinkStrategy&lt;ModdleElement&gt;</text><line style="stroke:#A80036;stroke-width:1.5;" x1="8" x2="637" y1="39" y2="39"/><ellipse cx="18" cy="50" fill="#84BE84" rx="3" ry="3" style="stroke:#038048;stroke-width:1.0;"/><text fill="#000000" font-family="sans-serif" font-size="11" lengthAdjust="spacing" textLength="605" x="27" y="53.6348">execute(element: WorkflowElement&lt;ModdleElement&gt;, node: StatementNode&lt;ModdleElement&gt;) : ModdleElement[]</text><!--MD5=[cc57d974949f70d59490504f85536b28]
reverse link LinkStrategy<ModdleElement> to NoLinkStrategy--><path codeLine="9" d="M322.5,80.34 C322.5,93.85 322.5,108.15 322.5,119.89 " fill="none" id="LinkStrategy&lt;ModdleElement&gt;-backto-NoLinkStrategy" style="stroke:#A80036;stroke-width:1.0;stroke-dasharray:7.0,7.0;"/><polygon fill="none" points="315.5,80.24,322.5,60.24,329.5,80.24,315.5,80.24" style="stroke:#A80036;stroke-width:1.0;"/><!--MD5=[e74e4825914351a889ad9030d3071f55]
@startuml
hide empty methods
hide empty fields
class "NoLinkStrategy" {
    +execute() : ModdleElement[]
}
interface "LinkStrategy<ModdleElement>" {
    +execute(element: WorkflowElement<ModdleElement>, node: StatementNode<ModdleElement>) : ModdleElement[]
}
"LinkStrategy<ModdleElement>" <|.. "NoLinkStrategy"
@enduml

PlantUML version 1.2021.14(Fri Nov 12 22:16:50 IST 2021)
(GPL source distribution)
Java Runtime: OpenJDK Runtime Environment
JVM: OpenJDK 64-Bit Server VM
Default Encoding: UTF-8
Language: en
Country: IN
--></g></svg>