<?xml version="1.0" encoding="UTF-8" standalone="no"?><svg xmlns="http://www.w3.org/2000/svg" xmlns:xlink="http://www.w3.org/1999/xlink" contentScriptType="application/ecmascript" contentStyleType="text/css" height="389px" preserveAspectRatio="none" style="width:592px;height:389px;background:#FFFFFF;" version="1.1" viewBox="0 0 592 389" width="592px" zoomAndPan="magnify"><defs><filter height="300%" id="f1w5pn6bp52gzb" width="300%" x="-1" y="-1"><feGaussianBlur result="blurOut" stdDeviation="2.0"/><feColorMatrix in="blurOut" result="blurOut2" type="matrix" values="0 0 0 0 0 0 0 0 0 0 0 0 0 0 0 0 0 0 .4 0"/><feOffset dx="4.0" dy="4.0" in="blurOut2" result="blurOut3"/><feBlend in="SourceGraphic" in2="blurOut3" mode="normal"/></filter></defs><g><!--MD5=[09118b8e865e953a861def2268184359]
class OnChangeEvent--><rect codeLine="3" fill="#FEFECE" filter="url(#f1w5pn6bp52gzb)" height="164.5957" id="OnChangeEvent" style="stroke:#A80036;stroke-width:1.5;" width="571" x="7" y="211"/><ellipse cx="243.25" cy="227" fill="#ADD1B2" rx="11" ry="11" style="stroke:#A80036;stroke-width:1.0;"/><path d="M245.7231,233.1431 Q245.1421,233.4419 244.5029,233.5913 Q243.8638,233.7407 243.1582,233.7407 Q240.6514,233.7407 239.3315,232.0889 Q238.0117,230.437 238.0117,227.3159 Q238.0117,224.1865 239.3315,222.5347 Q240.6514,220.8828 243.1582,220.8828 Q243.8638,220.8828 244.5112,221.0322 Q245.1587,221.1816 245.7231,221.4805 L245.7231,224.2031 Q245.0923,223.6221 244.4988,223.3523 Q243.9053,223.0825 243.2744,223.0825 Q241.9297,223.0825 241.2449,224.1492 Q240.5601,225.2158 240.5601,227.3159 Q240.5601,229.4077 241.2449,230.4744 Q241.9297,231.541 243.2744,231.541 Q243.9053,231.541 244.4988,231.2712 Q245.0923,231.0015 245.7231,230.4204 Z " fill="#000000"/><text fill="#000000" font-family="sans-serif" font-size="12" lengthAdjust="spacing" textLength="90" x="263.75" y="231.5352">OnChangeEvent</text><line style="stroke:#A80036;stroke-width:1.5;" x1="8" x2="577" y1="243" y2="243"/><ellipse cx="18" cy="254" rx="3" ry="3" style="stroke:#038048;stroke-width:1.0;fill:none;"/><text fill="#000000" font-family="sans-serif" font-size="11" lengthAdjust="spacing" textLength="51" x="27" y="257.6348">id : string</text><ellipse cx="18" cy="266.9551" rx="3" ry="3" style="stroke:#038048;stroke-width:1.0;fill:none;"/><text fill="#000000" font-family="sans-serif" font-size="11" lengthAdjust="spacing" textLength="70" x="27" y="270.5898">name : string</text><ellipse cx="18" cy="279.9102" rx="3" ry="3" style="stroke:#038048;stroke-width:1.0;fill:none;"/><text fill="#000000" font-family="sans-serif" font-size="11" lengthAdjust="spacing" textLength="98" x="27" y="283.5449">properties : object</text><ellipse cx="18" cy="292.8652" rx="3" ry="3" style="stroke:#038048;stroke-width:1.0;fill:none;"/><text fill="#000000" font-family="sans-serif" font-size="11" lengthAdjust="spacing" textLength="177" x="27" y="296.5">state : State&lt;RecordOfAnyType&gt;</text><ellipse cx="18" cy="305.8203" rx="3" ry="3" style="stroke:#038048;stroke-width:1.0;fill:none;"/><text fill="#000000" font-family="sans-serif" font-size="11" lengthAdjust="spacing" textLength="94" x="27" y="309.4551">statement : string</text><ellipse cx="18" cy="318.7754" rx="3" ry="3" style="stroke:#038048;stroke-width:1.0;fill:none;"/><text fill="#000000" font-family="sans-serif" font-size="11" lengthAdjust="spacing" textLength="89" x="27" y="322.4102">trigger : boolean</text><ellipse cx="18" cy="331.7305" rx="3" ry="3" style="stroke:#038048;stroke-width:1.0;fill:none;"/><text fill="#000000" font-family="sans-serif" font-size="11" lengthAdjust="spacing" textLength="92" x="27" y="335.3652">type : NodeTypes</text><line style="stroke:#A80036;stroke-width:1.5;" x1="8" x2="577" y1="341.6855" y2="341.6855"/><ellipse cx="18" cy="352.6855" fill="#84BE84" rx="3" ry="3" style="stroke:#038048;stroke-width:1.0;"/><text fill="#000000" font-family="sans-serif" font-size="11" lengthAdjust="spacing" textLength="545" x="27" y="356.3203">elements : (typeof GatewayElement | typeof ReadColumnValue | typeof TriggerWhenColumnChanges)[]</text><ellipse cx="18" cy="365.6406" fill="#84BE84" rx="3" ry="3" style="stroke:#038048;stroke-width:1.0;"/><text fill="#000000" font-family="sans-serif" font-size="11" lengthAdjust="spacing" textLength="410" x="27" y="369.2754">prompts : (typeof ColumnInput | typeof ValueInput | typeof ConditionInput)[]</text><!--MD5=[c9ceffc7778ce80a5b7e8e2cce9b54ed]
class BpmnEvent--><rect codeLine="14" fill="#FEFECE" filter="url(#f1w5pn6bp52gzb)" height="143.6406" id="BpmnEvent" style="stroke:#A80036;stroke-width:1.5;" width="365" x="110" y="7"/><ellipse cx="256.25" cy="23" fill="#A9DCDF" rx="11" ry="11" style="stroke:#A80036;stroke-width:1.0;"/><path d="M256.1133,18.3481 L254.9595,23.4199 L257.2754,23.4199 Z M254.6191,16.1069 L257.6157,16.1069 L260.9609,28.5 L258.5122,28.5 L257.7485,25.437 L254.4697,25.437 L253.7227,28.5 L251.2739,28.5 Z " fill="#000000"/><text fill="#000000" font-family="sans-serif" font-size="12" font-style="italic" lengthAdjust="spacing" textLength="64" x="276.75" y="27.5352">BpmnEvent</text><line style="stroke:#A80036;stroke-width:1.5;" x1="111" x2="474" y1="39" y2="39"/><ellipse cx="121" cy="50" rx="3" ry="3" style="stroke:#038048;stroke-width:1.0;fill:none;"/><text fill="#000000" font-family="sans-serif" font-size="11" lengthAdjust="spacing" textLength="339" x="130" y="53.6348">elements : Constructor&lt;WorkflowElement&lt;ModdleElement&gt;&gt;[]</text><ellipse cx="121" cy="62.9551" rx="3" ry="3" style="stroke:#038048;stroke-width:1.0;fill:none;"/><text fill="#000000" font-family="sans-serif" font-size="11" lengthAdjust="spacing" textLength="51" x="130" y="66.5898">id : string</text><ellipse cx="121" cy="75.9102" rx="3" ry="3" style="stroke:#038048;stroke-width:1.0;fill:none;"/><text fill="#000000" font-family="sans-serif" font-size="11" lengthAdjust="spacing" textLength="70" x="130" y="79.5449">name : string</text><ellipse cx="121" cy="88.8652" rx="3" ry="3" style="stroke:#038048;stroke-width:1.0;fill:none;"/><text fill="#000000" font-family="sans-serif" font-size="11" lengthAdjust="spacing" textLength="235" x="130" y="92.5">prompts : Constructor&lt;WorkflowPrompt&gt;[]</text><ellipse cx="121" cy="101.8203" rx="3" ry="3" style="stroke:#038048;stroke-width:1.0;fill:none;"/><text fill="#000000" font-family="sans-serif" font-size="11" lengthAdjust="spacing" textLength="177" x="130" y="105.4551">state : State&lt;RecordOfAnyType&gt;</text><ellipse cx="121" cy="114.7754" rx="3" ry="3" style="stroke:#038048;stroke-width:1.0;fill:none;"/><text fill="#000000" font-family="sans-serif" font-size="11" lengthAdjust="spacing" textLength="94" x="130" y="118.4102">statement : string</text><ellipse cx="121" cy="127.7305" rx="3" ry="3" style="stroke:#038048;stroke-width:1.0;fill:none;"/><text fill="#000000" font-family="sans-serif" font-size="11" lengthAdjust="spacing" textLength="89" x="130" y="131.3652">trigger : boolean</text><ellipse cx="121" cy="140.6855" rx="3" ry="3" style="stroke:#038048;stroke-width:1.0;fill:none;"/><text fill="#000000" font-family="sans-serif" font-size="11" lengthAdjust="spacing" textLength="92" x="130" y="144.3203">type : NodeTypes</text><!--MD5=[c6380aab27bab32e7332e235aaf571a4]
reverse link BpmnEvent to OnChangeEvent--><path codeLine="24" d="M292.5,171.33 C292.5,184.47 292.5,197.93 292.5,210.86 " fill="none" id="BpmnEvent-backto-OnChangeEvent" style="stroke:#A80036;stroke-width:1.0;"/><polygon fill="none" points="285.5,171.05,292.5,151.05,299.5,171.05,285.5,171.05" style="stroke:#A80036;stroke-width:1.0;"/><!--MD5=[a64ea37f258163a9d85e28835c0e8a89]
@startuml
hide empty methods
hide empty fields
class "OnChangeEvent" {
    +elements : (typeof GatewayElement | typeof ReadColumnValue | typeof TriggerWhenColumnChanges)[]
    +id : string
    +name : string
    +prompts : (typeof ColumnInput | typeof ValueInput | typeof ConditionInput)[]
    +properties : object
    +state : State<RecordOfAnyType>
    +statement : string
    +trigger : boolean
    +type : NodeTypes
}
abstract class "BpmnEvent" {
    +elements : Constructor<WorkflowElement<ModdleElement>>[]
    +id : string
    +name : string
    +prompts : Constructor<WorkflowPrompt>[]
    +state : State<RecordOfAnyType>
    +statement : string
    +trigger : boolean
    +type : NodeTypes
}
"BpmnEvent" <|- - "OnChangeEvent"
@enduml

PlantUML version 1.2021.14(Fri Nov 12 22:16:50 IST 2021)
(GPL source distribution)
Java Runtime: OpenJDK Runtime Environment
JVM: OpenJDK 64-Bit Server VM
Default Encoding: UTF-8
Language: en
Country: IN
--></g></svg>