<?xml version="1.0" encoding="UTF-8" standalone="no"?><svg xmlns="http://www.w3.org/2000/svg" xmlns:xlink="http://www.w3.org/1999/xlink" contentScriptType="application/ecmascript" contentStyleType="text/css" height="389px" preserveAspectRatio="none" style="width:457px;height:389px;background:#FFFFFF;" version="1.1" viewBox="0 0 457 389" width="457px" zoomAndPan="magnify"><defs><filter height="300%" id="fpb63i59et1kl" width="300%" x="-1" y="-1"><feGaussianBlur result="blurOut" stdDeviation="2.0"/><feColorMatrix in="blurOut" result="blurOut2" type="matrix" values="0 0 0 0 0 0 0 0 0 0 0 0 0 0 0 0 0 0 .4 0"/><feOffset dx="4.0" dy="4.0" in="blurOut2" result="blurOut3"/><feBlend in="SourceGraphic" in2="blurOut3" mode="normal"/></filter></defs><g><!--MD5=[a9a38630b98361258e22fffe274fc7b3]
class OnValueEvent--><rect codeLine="3" fill="#FEFECE" filter="url(#fpb63i59et1kl)" height="164.5957" id="OnValueEvent" style="stroke:#A80036;stroke-width:1.5;" width="436" x="7" y="211"/><ellipse cx="181.25" cy="227" fill="#ADD1B2" rx="11" ry="11" style="stroke:#A80036;stroke-width:1.0;"/><path d="M183.7231,233.1431 Q183.1421,233.4419 182.5029,233.5913 Q181.8638,233.7407 181.1582,233.7407 Q178.6514,233.7407 177.3315,232.0889 Q176.0117,230.437 176.0117,227.3159 Q176.0117,224.1865 177.3315,222.5347 Q178.6514,220.8828 181.1582,220.8828 Q181.8638,220.8828 182.5112,221.0322 Q183.1587,221.1816 183.7231,221.4805 L183.7231,224.2031 Q183.0923,223.6221 182.4988,223.3523 Q181.9053,223.0825 181.2744,223.0825 Q179.9297,223.0825 179.2449,224.1492 Q178.5601,225.2158 178.5601,227.3159 Q178.5601,229.4077 179.2449,230.4744 Q179.9297,231.541 181.2744,231.541 Q181.9053,231.541 182.4988,231.2712 Q183.0923,231.0015 183.7231,230.4204 Z " fill="#000000"/><text fill="#000000" font-family="sans-serif" font-size="12" lengthAdjust="spacing" textLength="79" x="201.75" y="231.5352">OnValueEvent</text><line style="stroke:#A80036;stroke-width:1.5;" x1="8" x2="442" y1="243" y2="243"/><ellipse cx="18" cy="254" rx="3" ry="3" style="stroke:#038048;stroke-width:1.0;fill:none;"/><text fill="#000000" font-family="sans-serif" font-size="11" lengthAdjust="spacing" textLength="51" x="27" y="257.6348">id : string</text><ellipse cx="18" cy="266.9551" rx="3" ry="3" style="stroke:#038048;stroke-width:1.0;fill:none;"/><text fill="#000000" font-family="sans-serif" font-size="11" lengthAdjust="spacing" textLength="70" x="27" y="270.5898">name : string</text><ellipse cx="18" cy="279.9102" rx="3" ry="3" style="stroke:#038048;stroke-width:1.0;fill:none;"/><text fill="#000000" font-family="sans-serif" font-size="11" lengthAdjust="spacing" textLength="98" x="27" y="283.5449">properties : object</text><ellipse cx="18" cy="292.8652" rx="3" ry="3" style="stroke:#038048;stroke-width:1.0;fill:none;"/><text fill="#000000" font-family="sans-serif" font-size="11" lengthAdjust="spacing" textLength="177" x="27" y="296.5">state : State&lt;RecordOfAnyType&gt;</text><ellipse cx="18" cy="305.8203" rx="3" ry="3" style="stroke:#038048;stroke-width:1.0;fill:none;"/><text fill="#000000" font-family="sans-serif" font-size="11" lengthAdjust="spacing" textLength="94" x="27" y="309.4551">statement : string</text><ellipse cx="18" cy="318.7754" rx="3" ry="3" style="stroke:#038048;stroke-width:1.0;fill:none;"/><text fill="#000000" font-family="sans-serif" font-size="11" lengthAdjust="spacing" textLength="89" x="27" y="322.4102">trigger : boolean</text><ellipse cx="18" cy="331.7305" rx="3" ry="3" style="stroke:#038048;stroke-width:1.0;fill:none;"/><text fill="#000000" font-family="sans-serif" font-size="11" lengthAdjust="spacing" textLength="92" x="27" y="335.3652">type : NodeTypes</text><line style="stroke:#A80036;stroke-width:1.5;" x1="8" x2="442" y1="341.6855" y2="341.6855"/><ellipse cx="18" cy="352.6855" fill="#84BE84" rx="3" ry="3" style="stroke:#038048;stroke-width:1.0;"/><text fill="#000000" font-family="sans-serif" font-size="11" lengthAdjust="spacing" textLength="340" x="27" y="356.3203">elements : (typeof GatewayElement | typeof ReadColumnValue)[]</text><ellipse cx="18" cy="365.6406" fill="#84BE84" rx="3" ry="3" style="stroke:#038048;stroke-width:1.0;"/><text fill="#000000" font-family="sans-serif" font-size="11" lengthAdjust="spacing" textLength="410" x="27" y="369.2754">prompts : (typeof ColumnInput | typeof ValueInput | typeof ConditionInput)[]</text><!--MD5=[c9ceffc7778ce80a5b7e8e2cce9b54ed]
class BpmnEvent--><rect codeLine="14" fill="#FEFECE" filter="url(#fpb63i59et1kl)" height="143.6406" id="BpmnEvent" style="stroke:#A80036;stroke-width:1.5;" width="365" x="42.5" y="7"/><ellipse cx="188.75" cy="23" fill="#A9DCDF" rx="11" ry="11" style="stroke:#A80036;stroke-width:1.0;"/><path d="M188.6133,18.3481 L187.4595,23.4199 L189.7754,23.4199 Z M187.1191,16.1069 L190.1157,16.1069 L193.4609,28.5 L191.0122,28.5 L190.2485,25.437 L186.9697,25.437 L186.2227,28.5 L183.7739,28.5 Z " fill="#000000"/><text fill="#000000" font-family="sans-serif" font-size="12" font-style="italic" lengthAdjust="spacing" textLength="64" x="209.25" y="27.5352">BpmnEvent</text><line style="stroke:#A80036;stroke-width:1.5;" x1="43.5" x2="406.5" y1="39" y2="39"/><ellipse cx="53.5" cy="50" rx="3" ry="3" style="stroke:#038048;stroke-width:1.0;fill:none;"/><text fill="#000000" font-family="sans-serif" font-size="11" lengthAdjust="spacing" textLength="339" x="62.5" y="53.6348">elements : Constructor&lt;WorkflowElement&lt;ModdleElement&gt;&gt;[]</text><ellipse cx="53.5" cy="62.9551" rx="3" ry="3" style="stroke:#038048;stroke-width:1.0;fill:none;"/><text fill="#000000" font-family="sans-serif" font-size="11" lengthAdjust="spacing" textLength="51" x="62.5" y="66.5898">id : string</text><ellipse cx="53.5" cy="75.9102" rx="3" ry="3" style="stroke:#038048;stroke-width:1.0;fill:none;"/><text fill="#000000" font-family="sans-serif" font-size="11" lengthAdjust="spacing" textLength="70" x="62.5" y="79.5449">name : string</text><ellipse cx="53.5" cy="88.8652" rx="3" ry="3" style="stroke:#038048;stroke-width:1.0;fill:none;"/><text fill="#000000" font-family="sans-serif" font-size="11" lengthAdjust="spacing" textLength="235" x="62.5" y="92.5">prompts : Constructor&lt;WorkflowPrompt&gt;[]</text><ellipse cx="53.5" cy="101.8203" rx="3" ry="3" style="stroke:#038048;stroke-width:1.0;fill:none;"/><text fill="#000000" font-family="sans-serif" font-size="11" lengthAdjust="spacing" textLength="177" x="62.5" y="105.4551">state : State&lt;RecordOfAnyType&gt;</text><ellipse cx="53.5" cy="114.7754" rx="3" ry="3" style="stroke:#038048;stroke-width:1.0;fill:none;"/><text fill="#000000" font-family="sans-serif" font-size="11" lengthAdjust="spacing" textLength="94" x="62.5" y="118.4102">statement : string</text><ellipse cx="53.5" cy="127.7305" rx="3" ry="3" style="stroke:#038048;stroke-width:1.0;fill:none;"/><text fill="#000000" font-family="sans-serif" font-size="11" lengthAdjust="spacing" textLength="89" x="62.5" y="131.3652">trigger : boolean</text><ellipse cx="53.5" cy="140.6855" rx="3" ry="3" style="stroke:#038048;stroke-width:1.0;fill:none;"/><text fill="#000000" font-family="sans-serif" font-size="11" lengthAdjust="spacing" textLength="92" x="62.5" y="144.3203">type : NodeTypes</text><!--MD5=[cb8431cb2cf9d99aee2c9870b651338b]
reverse link BpmnEvent to OnValueEvent--><path codeLine="24" d="M225,171.33 C225,184.47 225,197.93 225,210.86 " fill="none" id="BpmnEvent-backto-OnValueEvent" style="stroke:#A80036;stroke-width:1.0;"/><polygon fill="none" points="218,171.05,225,151.05,232,171.05,218,171.05" style="stroke:#A80036;stroke-width:1.0;"/><!--MD5=[14786bc19692c2d9c796229efc9c9e79]
@startuml
hide empty methods
hide empty fields
class "OnValueEvent" {
    +elements : (typeof GatewayElement | typeof ReadColumnValue)[]
    +id : string
    +name : string
    +prompts : (typeof ColumnInput | typeof ValueInput | typeof ConditionInput)[]
    +properties : object
    +state : State<RecordOfAnyType>
    +statement : string
    +trigger : boolean
    +type : NodeTypes
}
abstract class "BpmnEvent" {
    +elements : Constructor<WorkflowElement<ModdleElement>>[]
    +id : string
    +name : string
    +prompts : Constructor<WorkflowPrompt>[]
    +state : State<RecordOfAnyType>
    +statement : string
    +trigger : boolean
    +type : NodeTypes
}
"BpmnEvent" <|- - "OnValueEvent"
@enduml

PlantUML version 1.2021.14(Fri Nov 12 22:16:50 IST 2021)
(GPL source distribution)
Java Runtime: OpenJDK Runtime Environment
JVM: OpenJDK 64-Bit Server VM
Default Encoding: UTF-8
Language: en
Country: IN
--></g></svg>