<?xml version="1.0" encoding="UTF-8" standalone="no"?><svg xmlns="http://www.w3.org/2000/svg" xmlns:xlink="http://www.w3.org/1999/xlink" contentScriptType="application/ecmascript" contentStyleType="text/css" height="342px" preserveAspectRatio="none" style="width:386px;height:342px;background:#FFFFFF;" version="1.1" viewBox="0 0 386 342" width="386px" zoomAndPan="magnify"><defs><filter height="300%" id="fzz34y7iqddiy" width="300%" x="-1" y="-1"><feGaussianBlur result="blurOut" stdDeviation="2.0"/><feColorMatrix in="blurOut" result="blurOut2" type="matrix" values="0 0 0 0 0 0 0 0 0 0 0 0 0 0 0 0 0 0 .4 0"/><feOffset dx="4.0" dy="4.0" in="blurOut2" result="blurOut3"/><feBlend in="SourceGraphic" in2="blurOut3" mode="normal"/></filter></defs><g><!--MD5=[0985d049a9a41cb11f8ca2cdabbf2d8f]
class SendEmailAction--><rect codeLine="3" fill="#FEFECE" filter="url(#fzz34y7iqddiy)" height="130.6855" id="SendEmailAction" style="stroke:#A80036;stroke-width:1.5;" width="203" x="88" y="198"/><ellipse cx="138.25" cy="214" fill="#ADD1B2" rx="11" ry="11" style="stroke:#A80036;stroke-width:1.0;"/><path d="M140.7231,220.1431 Q140.1421,220.4419 139.5029,220.5913 Q138.8638,220.7407 138.1582,220.7407 Q135.6514,220.7407 134.3315,219.0889 Q133.0117,217.437 133.0117,214.3159 Q133.0117,211.1865 134.3315,209.5347 Q135.6514,207.8828 138.1582,207.8828 Q138.8638,207.8828 139.5112,208.0322 Q140.1587,208.1816 140.7231,208.4805 L140.7231,211.2031 Q140.0923,210.6221 139.4988,210.3523 Q138.9053,210.0825 138.2744,210.0825 Q136.9297,210.0825 136.2449,211.1492 Q135.5601,212.2158 135.5601,214.3159 Q135.5601,216.4077 136.2449,217.4744 Q136.9297,218.541 138.2744,218.541 Q138.9053,218.541 139.4988,218.2712 Q140.0923,218.0015 140.7231,217.4204 Z " fill="#000000"/><text fill="#000000" font-family="sans-serif" font-size="12" lengthAdjust="spacing" textLength="94" x="158.75" y="218.5352">SendEmailAction</text><line style="stroke:#A80036;stroke-width:1.5;" x1="89" x2="290" y1="230" y2="230"/><ellipse cx="99" cy="241" rx="3" ry="3" style="stroke:#038048;stroke-width:1.0;fill:none;"/><text fill="#000000" font-family="sans-serif" font-size="11" lengthAdjust="spacing" textLength="156" x="108" y="244.6348">elements : typeof SendEmail[]</text><ellipse cx="99" cy="253.9551" rx="3" ry="3" style="stroke:#038048;stroke-width:1.0;fill:none;"/><text fill="#000000" font-family="sans-serif" font-size="11" lengthAdjust="spacing" textLength="51" x="108" y="257.5898">id : string</text><ellipse cx="99" cy="266.9102" rx="3" ry="3" style="stroke:#038048;stroke-width:1.0;fill:none;"/><text fill="#000000" font-family="sans-serif" font-size="11" lengthAdjust="spacing" textLength="70" x="108" y="270.5449">name : string</text><ellipse cx="99" cy="279.8652" rx="3" ry="3" style="stroke:#038048;stroke-width:1.0;fill:none;"/><text fill="#000000" font-family="sans-serif" font-size="11" lengthAdjust="spacing" textLength="170" x="108" y="283.5">prompts : typeof EmailToInput[]</text><ellipse cx="99" cy="292.8203" rx="3" ry="3" style="stroke:#038048;stroke-width:1.0;fill:none;"/><text fill="#000000" font-family="sans-serif" font-size="11" lengthAdjust="spacing" textLength="177" x="108" y="296.4551">state : State&lt;RecordOfAnyType&gt;</text><ellipse cx="99" cy="305.7754" rx="3" ry="3" style="stroke:#038048;stroke-width:1.0;fill:none;"/><text fill="#000000" font-family="sans-serif" font-size="11" lengthAdjust="spacing" textLength="94" x="108" y="309.4102">statement : string</text><ellipse cx="99" cy="318.7305" rx="3" ry="3" style="stroke:#038048;stroke-width:1.0;fill:none;"/><text fill="#000000" font-family="sans-serif" font-size="11" lengthAdjust="spacing" textLength="92" x="108" y="322.3652">type : NodeTypes</text><!--MD5=[bf3701a08da1c1c4c51fdf1a4fe800f4]
class BpmnAction--><rect codeLine="12" fill="#FEFECE" filter="url(#fzz34y7iqddiy)" height="130.6855" id="BpmnAction" style="stroke:#A80036;stroke-width:1.5;" width="365" x="7" y="7"/><ellipse cx="151.25" cy="23" fill="#A9DCDF" rx="11" ry="11" style="stroke:#A80036;stroke-width:1.0;"/><path d="M151.1133,18.3481 L149.9595,23.4199 L152.2754,23.4199 Z M149.6191,16.1069 L152.6157,16.1069 L155.9609,28.5 L153.5122,28.5 L152.7485,25.437 L149.4697,25.437 L148.7227,28.5 L146.2739,28.5 Z " fill="#000000"/><text fill="#000000" font-family="sans-serif" font-size="12" font-style="italic" lengthAdjust="spacing" textLength="68" x="171.75" y="27.5352">BpmnAction</text><line style="stroke:#A80036;stroke-width:1.5;" x1="8" x2="371" y1="39" y2="39"/><ellipse cx="18" cy="50" rx="3" ry="3" style="stroke:#038048;stroke-width:1.0;fill:none;"/><text fill="#000000" font-family="sans-serif" font-size="11" lengthAdjust="spacing" textLength="339" x="27" y="53.6348">elements : Constructor&lt;WorkflowElement&lt;ModdleElement&gt;&gt;[]</text><ellipse cx="18" cy="62.9551" rx="3" ry="3" style="stroke:#038048;stroke-width:1.0;fill:none;"/><text fill="#000000" font-family="sans-serif" font-size="11" lengthAdjust="spacing" textLength="51" x="27" y="66.5898">id : string</text><ellipse cx="18" cy="75.9102" rx="3" ry="3" style="stroke:#038048;stroke-width:1.0;fill:none;"/><text fill="#000000" font-family="sans-serif" font-size="11" lengthAdjust="spacing" textLength="70" x="27" y="79.5449">name : string</text><ellipse cx="18" cy="88.8652" rx="3" ry="3" style="stroke:#038048;stroke-width:1.0;fill:none;"/><text fill="#000000" font-family="sans-serif" font-size="11" lengthAdjust="spacing" textLength="235" x="27" y="92.5">prompts : Constructor&lt;WorkflowPrompt&gt;[]</text><ellipse cx="18" cy="101.8203" rx="3" ry="3" style="stroke:#038048;stroke-width:1.0;fill:none;"/><text fill="#000000" font-family="sans-serif" font-size="11" lengthAdjust="spacing" textLength="177" x="27" y="105.4551">state : State&lt;RecordOfAnyType&gt;</text><ellipse cx="18" cy="114.7754" rx="3" ry="3" style="stroke:#038048;stroke-width:1.0;fill:none;"/><text fill="#000000" font-family="sans-serif" font-size="11" lengthAdjust="spacing" textLength="94" x="27" y="118.4102">statement : string</text><ellipse cx="18" cy="127.7305" rx="3" ry="3" style="stroke:#038048;stroke-width:1.0;fill:none;"/><text fill="#000000" font-family="sans-serif" font-size="11" lengthAdjust="spacing" textLength="92" x="27" y="131.3652">type : NodeTypes</text><!--MD5=[f8553c286de7118c8d47eb27f99c5410]
reverse link BpmnAction to SendEmailAction--><path codeLine="21" d="M189.5,158.49 C189.5,171.74 189.5,185.25 189.5,197.96 " fill="none" id="BpmnAction-backto-SendEmailAction" style="stroke:#A80036;stroke-width:1.0;"/><polygon fill="none" points="182.5,158.01,189.5,138.01,196.5,158.01,182.5,158.01" style="stroke:#A80036;stroke-width:1.0;"/><!--MD5=[98bdf376dfeac048effe14026ef09d27]
@startuml
hide empty methods
hide empty fields
class "SendEmailAction" {
    +elements : typeof SendEmail[]
    +id : string
    +name : string
    +prompts : typeof EmailToInput[]
    +state : State<RecordOfAnyType>
    +statement : string
    +type : NodeTypes
}
abstract class "BpmnAction" {
    +elements : Constructor<WorkflowElement<ModdleElement>>[]
    +id : string
    +name : string
    +prompts : Constructor<WorkflowPrompt>[]
    +state : State<RecordOfAnyType>
    +statement : string
    +type : NodeTypes
}
"BpmnAction" <|- - "SendEmailAction"
@enduml

PlantUML version 1.2021.14(Fri Nov 12 22:16:50 IST 2021)
(GPL source distribution)
Java Runtime: OpenJDK Runtime Environment
JVM: OpenJDK 64-Bit Server VM
Default Encoding: UTF-8
Language: en
Country: IN
--></g></svg>