<?xml version="1.0" encoding="UTF-8" standalone="no"?><svg xmlns="http://www.w3.org/2000/svg" xmlns:xlink="http://www.w3.org/1999/xlink" contentScriptType="application/ecmascript" contentStyleType="text/css" height="726px" preserveAspectRatio="none" style="width:2148px;height:726px;background:#FFFFFF;" version="1.1" viewBox="0 0 2148 726" width="2148px" zoomAndPan="magnify"><defs><filter height="300%" id="ff5xy7tnqkler" width="300%" x="-1" y="-1"><feGaussianBlur result="blurOut" stdDeviation="2.0"/><feColorMatrix in="blurOut" result="blurOut2" type="matrix" values="0 0 0 0 0 0 0 0 0 0 0 0 0 0 0 0 0 0 .4 0"/><feOffset dx="4.0" dy="4.0" in="blurOut2" result="blurOut3"/><feBlend in="SourceGraphic" in2="blurOut3" mode="normal"/></filter></defs><g><!--MD5=[3c01fea783f5c1b9b51ddef878564734]
class ServiceTaskElement--><rect codeLine="3" fill="#FEFECE" filter="url(#ff5xy7tnqkler)" height="190.5059" id="ServiceTaskElement" style="stroke:#A80036;stroke-width:1.5;" width="505" x="819" y="245"/><ellipse cx="1010.25" cy="261" fill="#A9DCDF" rx="11" ry="11" style="stroke:#A80036;stroke-width:1.0;"/><path d="M1010.1133,256.3481 L1008.9595,261.4199 L1011.2754,261.4199 Z M1008.6191,254.1069 L1011.6157,254.1069 L1014.9609,266.5 L1012.5122,266.5 L1011.7485,263.437 L1008.4697,263.437 L1007.7227,266.5 L1005.2739,266.5 Z " fill="#000000"/><text fill="#000000" font-family="sans-serif" font-size="12" font-style="italic" lengthAdjust="spacing" textLength="114" x="1030.75" y="265.5352">ServiceTaskElement</text><line style="stroke:#A80036;stroke-width:1.5;" x1="820" x2="1323" y1="277" y2="277"/><ellipse cx="830" cy="288" rx="3" ry="3" style="stroke:#038048;stroke-width:1.0;fill:none;"/><text fill="#000000" font-family="sans-serif" font-size="11" lengthAdjust="spacing" textLength="159" x="839" y="291.6348">attributes : RecordOfAnyType</text><ellipse cx="830" cy="300.9551" rx="3" ry="3" style="stroke:#038048;stroke-width:1.0;fill:none;"/><text fill="#000000" font-family="sans-serif" font-size="11" lengthAdjust="spacing" textLength="51" x="839" y="304.5898">id : string</text><ellipse cx="830" cy="313.9102" rx="3" ry="3" style="stroke:#038048;stroke-width:1.0;fill:none;"/><text fill="#000000" font-family="sans-serif" font-size="11" lengthAdjust="spacing" textLength="113" x="839" y="317.5449">inputs : ElementInput</text><ellipse cx="830" cy="326.8652" rx="3" ry="3" style="stroke:#038048;stroke-width:1.0;fill:none;"/><text fill="#000000" font-family="sans-serif" font-size="11" lengthAdjust="spacing" textLength="70" x="839" y="330.5">name : string</text><ellipse cx="830" cy="339.8203" rx="3" ry="3" style="stroke:#038048;stroke-width:1.0;fill:none;"/><text fill="#000000" font-family="sans-serif" font-size="11" lengthAdjust="spacing" textLength="83" x="839" y="343.4551">outputs : string</text><ellipse cx="830" cy="352.7754" rx="3" ry="3" style="stroke:#038048;stroke-width:1.0;fill:none;"/><text fill="#000000" font-family="sans-serif" font-size="11" lengthAdjust="spacing" textLength="58" x="839" y="356.4102">tag : string</text><ellipse cx="830" cy="365.7305" rx="3" ry="3" style="stroke:#038048;stroke-width:1.0;fill:none;"/><text fill="#000000" font-family="sans-serif" font-size="11" lengthAdjust="spacing" textLength="106" x="839" y="369.3652">type : ElementTypes</text><polygon fill="none" points="830,373.6855,834,377.6855,830,381.6855,826,377.6855" style="stroke:#B38D22;stroke-width:1.0;"/><text fill="#000000" font-family="sans-serif" font-size="11" lengthAdjust="spacing" textLength="226" x="839" y="382.3203">creator : CreateStrategy&lt;ModdleElement&gt;</text><polygon fill="none" points="830,386.6406,834,390.6406,830,394.6406,826,390.6406" style="stroke:#B38D22;stroke-width:1.0;"/><text fill="#000000" font-family="sans-serif" font-size="11" lengthAdjust="spacing" textLength="204" x="839" y="395.2754">linker : LinkStrategy&lt;ModdleElement&gt;</text><line style="stroke:#A80036;stroke-width:1.5;" x1="820" x2="1323" y1="401.5957" y2="401.5957"/><ellipse cx="830" cy="412.5957" fill="#84BE84" rx="3" ry="3" style="stroke:#038048;stroke-width:1.0;"/><text fill="#000000" font-family="sans-serif" font-size="11" lengthAdjust="spacing" textLength="479" x="839" y="416.2305">create(node: StatementNode&lt;ModdleElement&gt;, attrs: RecordOfAnyType) : ModdleElement</text><ellipse cx="830" cy="425.5508" fill="#84BE84" rx="3" ry="3" style="stroke:#038048;stroke-width:1.0;"/><text fill="#000000" font-family="sans-serif" font-size="11" lengthAdjust="spacing" textLength="338" x="839" y="429.1855">link(node: StatementNode&lt;ModdleElement&gt;) : ModdleElement[]</text><!--MD5=[67972b1c6d4722e1308be96bcf302a89]
class BpmnElement--><rect codeLine="16" fill="#FEFECE" filter="url(#ff5xy7tnqkler)" height="177.5508" id="BpmnElement" style="stroke:#A80036;stroke-width:1.5;" width="505" x="819" y="7"/><ellipse cx="1027.75" cy="23" fill="#A9DCDF" rx="11" ry="11" style="stroke:#A80036;stroke-width:1.0;"/><path d="M1027.6133,18.3481 L1026.4595,23.4199 L1028.7754,23.4199 Z M1026.1191,16.1069 L1029.1157,16.1069 L1032.4609,28.5 L1030.0122,28.5 L1029.2485,25.437 L1025.9697,25.437 L1025.2227,28.5 L1022.7739,28.5 Z " fill="#000000"/><text fill="#000000" font-family="sans-serif" font-size="12" font-style="italic" lengthAdjust="spacing" textLength="79" x="1048.25" y="27.5352">BpmnElement</text><line style="stroke:#A80036;stroke-width:1.5;" x1="820" x2="1323" y1="39" y2="39"/><ellipse cx="830" cy="50" rx="3" ry="3" style="stroke:#038048;stroke-width:1.0;fill:none;"/><text fill="#000000" font-family="sans-serif" font-size="11" lengthAdjust="spacing" textLength="159" x="839" y="53.6348">attributes : RecordOfAnyType</text><ellipse cx="830" cy="62.9551" rx="3" ry="3" style="stroke:#038048;stroke-width:1.0;fill:none;"/><text fill="#000000" font-family="sans-serif" font-size="11" lengthAdjust="spacing" textLength="51" x="839" y="66.5898">id : string</text><ellipse cx="830" cy="75.9102" rx="3" ry="3" style="stroke:#038048;stroke-width:1.0;fill:none;"/><text fill="#000000" font-family="sans-serif" font-size="11" lengthAdjust="spacing" textLength="113" x="839" y="79.5449">inputs : ElementInput</text><ellipse cx="830" cy="88.8652" rx="3" ry="3" style="stroke:#038048;stroke-width:1.0;fill:none;"/><text fill="#000000" font-family="sans-serif" font-size="11" lengthAdjust="spacing" textLength="70" x="839" y="92.5">name : string</text><ellipse cx="830" cy="101.8203" rx="3" ry="3" style="stroke:#038048;stroke-width:1.0;fill:none;"/><text fill="#000000" font-family="sans-serif" font-size="11" lengthAdjust="spacing" textLength="83" x="839" y="105.4551">outputs : string</text><ellipse cx="830" cy="114.7754" rx="3" ry="3" style="stroke:#038048;stroke-width:1.0;fill:none;"/><text fill="#000000" font-family="sans-serif" font-size="11" lengthAdjust="spacing" textLength="58" x="839" y="118.4102">tag : string</text><polygon fill="none" points="830,122.7305,834,126.7305,830,130.7305,826,126.7305" style="stroke:#B38D22;stroke-width:1.0;"/><text fill="#000000" font-family="sans-serif" font-size="11" lengthAdjust="spacing" textLength="226" x="839" y="131.3652">creator : CreateStrategy&lt;ModdleElement&gt;</text><polygon fill="none" points="830,135.6855,834,139.6855,830,143.6855,826,139.6855" style="stroke:#B38D22;stroke-width:1.0;"/><text fill="#000000" font-family="sans-serif" font-size="11" lengthAdjust="spacing" textLength="204" x="839" y="144.3203">linker : LinkStrategy&lt;ModdleElement&gt;</text><line style="stroke:#A80036;stroke-width:1.5;" x1="820" x2="1323" y1="150.6406" y2="150.6406"/><ellipse cx="830" cy="161.6406" fill="#84BE84" rx="3" ry="3" style="stroke:#038048;stroke-width:1.0;"/><text fill="#000000" font-family="sans-serif" font-size="11" lengthAdjust="spacing" textLength="479" x="839" y="165.2754">create(node: StatementNode&lt;ModdleElement&gt;, attrs: RecordOfAnyType) : ModdleElement</text><ellipse cx="830" cy="174.5957" fill="#84BE84" rx="3" ry="3" style="stroke:#038048;stroke-width:1.0;"/><text fill="#000000" font-family="sans-serif" font-size="11" lengthAdjust="spacing" textLength="338" x="839" y="178.2305">link(node: StatementNode&lt;ModdleElement&gt;) : ModdleElement[]</text><!--MD5=[9f7612b63048fd29cf13e741c64358e5]
class ReadColumnValue--><rect codeLine="29" fill="#FEFECE" filter="url(#ff5xy7tnqkler)" height="203.4609" id="ReadColumnValue" style="stroke:#A80036;stroke-width:1.5;" width="505" x="9" y="502.5"/><ellipse cx="204.75" cy="518.5" fill="#ADD1B2" rx="11" ry="11" style="stroke:#A80036;stroke-width:1.0;"/><path d="M207.2231,524.6431 Q206.6421,524.9419 206.0029,525.0913 Q205.3638,525.2407 204.6582,525.2407 Q202.1514,525.2407 200.8315,523.5889 Q199.5117,521.937 199.5117,518.8159 Q199.5117,515.6865 200.8315,514.0347 Q202.1514,512.3828 204.6582,512.3828 Q205.3638,512.3828 206.0112,512.5322 Q206.6587,512.6816 207.2231,512.9805 L207.2231,515.7031 Q206.5923,515.1221 205.9988,514.8523 Q205.4053,514.5825 204.7744,514.5825 Q203.4297,514.5825 202.7449,515.6492 Q202.0601,516.7158 202.0601,518.8159 Q202.0601,520.9077 202.7449,521.9744 Q203.4297,523.041 204.7744,523.041 Q205.4053,523.041 205.9988,522.7712 Q206.5923,522.5015 207.2231,521.9204 Z " fill="#000000"/><text fill="#000000" font-family="sans-serif" font-size="12" lengthAdjust="spacing" textLength="105" x="225.25" y="523.0352">ReadColumnValue</text><line style="stroke:#A80036;stroke-width:1.5;" x1="10" x2="513" y1="534.5" y2="534.5"/><ellipse cx="20" cy="545.5" rx="3" ry="3" style="stroke:#038048;stroke-width:1.0;fill:none;"/><text fill="#000000" font-family="sans-serif" font-size="11" lengthAdjust="spacing" textLength="159" x="29" y="549.1348">attributes : RecordOfAnyType</text><ellipse cx="20" cy="558.4551" rx="3" ry="3" style="stroke:#038048;stroke-width:1.0;fill:none;"/><text fill="#000000" font-family="sans-serif" font-size="11" lengthAdjust="spacing" textLength="51" x="29" y="562.0898">id : string</text><ellipse cx="20" cy="571.4102" rx="3" ry="3" style="stroke:#038048;stroke-width:1.0;fill:none;"/><text fill="#000000" font-family="sans-serif" font-size="11" lengthAdjust="spacing" textLength="76" x="29" y="575.0449">inputs : object</text><ellipse cx="20" cy="584.3652" rx="3" ry="3" style="stroke:#038048;stroke-width:1.0;fill:none;"/><text fill="#000000" font-family="sans-serif" font-size="11" lengthAdjust="spacing" textLength="70" x="29" y="588">name : string</text><ellipse cx="20" cy="597.3203" rx="3" ry="3" style="stroke:#038048;stroke-width:1.0;fill:none;"/><text fill="#000000" font-family="sans-serif" font-size="11" lengthAdjust="spacing" textLength="83" x="29" y="600.9551">outputs : string</text><ellipse cx="20" cy="610.2754" rx="3" ry="3" style="stroke:#038048;stroke-width:1.0;fill:none;"/><text fill="#000000" font-family="sans-serif" font-size="11" lengthAdjust="spacing" textLength="58" x="29" y="613.9102">tag : string</text><ellipse cx="20" cy="623.2305" rx="3" ry="3" style="stroke:#038048;stroke-width:1.0;fill:none;"/><text fill="#000000" font-family="sans-serif" font-size="11" lengthAdjust="spacing" textLength="106" x="29" y="626.8652">type : ElementTypes</text><ellipse cx="20" cy="636.1855" rx="3" ry="3" style="stroke:#038048;stroke-width:1.0;fill:none;"/><text fill="#000000" font-family="sans-serif" font-size="11" lengthAdjust="spacing" textLength="94" x="29" y="639.8203">utils : UtilsService</text><polygon fill="none" points="20,644.1406,24,648.1406,20,652.1406,16,648.1406" style="stroke:#B38D22;stroke-width:1.0;"/><text fill="#000000" font-family="sans-serif" font-size="11" lengthAdjust="spacing" textLength="226" x="29" y="652.7754">creator : CreateStrategy&lt;ModdleElement&gt;</text><polygon fill="none" points="20,657.0957,24,661.0957,20,665.0957,16,661.0957" style="stroke:#B38D22;stroke-width:1.0;"/><text fill="#000000" font-family="sans-serif" font-size="11" lengthAdjust="spacing" textLength="204" x="29" y="665.7305">linker : LinkStrategy&lt;ModdleElement&gt;</text><line style="stroke:#A80036;stroke-width:1.5;" x1="10" x2="513" y1="672.0508" y2="672.0508"/><ellipse cx="20" cy="683.0508" fill="#84BE84" rx="3" ry="3" style="stroke:#038048;stroke-width:1.0;"/><text fill="#000000" font-family="sans-serif" font-size="11" lengthAdjust="spacing" textLength="479" x="29" y="686.6855">create(node: StatementNode&lt;ModdleElement&gt;, attrs: RecordOfAnyType) : ModdleElement</text><ellipse cx="20" cy="696.0059" fill="#84BE84" rx="3" ry="3" style="stroke:#038048;stroke-width:1.0;"/><text fill="#000000" font-family="sans-serif" font-size="11" lengthAdjust="spacing" textLength="338" x="29" y="699.6406">link(node: StatementNode&lt;ModdleElement&gt;) : ModdleElement[]</text><!--MD5=[6d2ec943b6d71edae7dc5e7f192f912f]
class SendEmail--><rect codeLine="44" fill="#FEFECE" filter="url(#ff5xy7tnqkler)" height="216.416" id="SendEmail" style="stroke:#A80036;stroke-width:1.5;" width="505" x="549" y="496"/><ellipse cx="767.75" cy="512" fill="#ADD1B2" rx="11" ry="11" style="stroke:#A80036;stroke-width:1.0;"/><path d="M770.2231,518.1431 Q769.6421,518.4419 769.0029,518.5913 Q768.3638,518.7407 767.6582,518.7407 Q765.1514,518.7407 763.8315,517.0889 Q762.5117,515.437 762.5117,512.3159 Q762.5117,509.1865 763.8315,507.5347 Q765.1514,505.8828 767.6582,505.8828 Q768.3638,505.8828 769.0112,506.0322 Q769.6587,506.1816 770.2231,506.4805 L770.2231,509.2031 Q769.5923,508.6221 768.9988,508.3523 Q768.4053,508.0825 767.7744,508.0825 Q766.4297,508.0825 765.7449,509.1492 Q765.0601,510.2158 765.0601,512.3159 Q765.0601,514.4077 765.7449,515.4744 Q766.4297,516.541 767.7744,516.541 Q768.4053,516.541 768.9988,516.2712 Q769.5923,516.0015 770.2231,515.4204 Z " fill="#000000"/><text fill="#000000" font-family="sans-serif" font-size="12" lengthAdjust="spacing" textLength="59" x="788.25" y="516.5352">SendEmail</text><line style="stroke:#A80036;stroke-width:1.5;" x1="550" x2="1053" y1="528" y2="528"/><ellipse cx="560" cy="539" rx="3" ry="3" style="stroke:#038048;stroke-width:1.0;fill:none;"/><text fill="#000000" font-family="sans-serif" font-size="11" lengthAdjust="spacing" textLength="159" x="569" y="542.6348">attributes : RecordOfAnyType</text><ellipse cx="560" cy="551.9551" rx="3" ry="3" style="stroke:#038048;stroke-width:1.0;fill:none;"/><text fill="#000000" font-family="sans-serif" font-size="11" lengthAdjust="spacing" textLength="51" x="569" y="555.5898">id : string</text><ellipse cx="560" cy="564.9102" rx="3" ry="3" style="stroke:#038048;stroke-width:1.0;fill:none;"/><text fill="#000000" font-family="sans-serif" font-size="11" lengthAdjust="spacing" textLength="76" x="569" y="568.5449">inputs : object</text><ellipse cx="560" cy="577.8652" rx="3" ry="3" style="stroke:#038048;stroke-width:1.0;fill:none;"/><text fill="#000000" font-family="sans-serif" font-size="11" lengthAdjust="spacing" textLength="70" x="569" y="581.5">name : string</text><ellipse cx="560" cy="590.8203" rx="3" ry="3" style="stroke:#038048;stroke-width:1.0;fill:none;"/><text fill="#000000" font-family="sans-serif" font-size="11" lengthAdjust="spacing" textLength="83" x="569" y="594.4551">outputs : string</text><ellipse cx="560" cy="603.7754" rx="3" ry="3" style="stroke:#038048;stroke-width:1.0;fill:none;"/><text fill="#000000" font-family="sans-serif" font-size="11" lengthAdjust="spacing" textLength="98" x="569" y="607.4102">properties : object</text><ellipse cx="560" cy="616.7305" rx="3" ry="3" style="stroke:#038048;stroke-width:1.0;fill:none;"/><text fill="#000000" font-family="sans-serif" font-size="11" lengthAdjust="spacing" textLength="58" x="569" y="620.3652">tag : string</text><ellipse cx="560" cy="629.6855" rx="3" ry="3" style="stroke:#038048;stroke-width:1.0;fill:none;"/><text fill="#000000" font-family="sans-serif" font-size="11" lengthAdjust="spacing" textLength="106" x="569" y="633.3203">type : ElementTypes</text><ellipse cx="560" cy="642.6406" rx="3" ry="3" style="stroke:#038048;stroke-width:1.0;fill:none;"/><text fill="#000000" font-family="sans-serif" font-size="11" lengthAdjust="spacing" textLength="94" x="569" y="646.2754">utils : UtilsService</text><polygon fill="none" points="560,650.5957,564,654.5957,560,658.5957,556,654.5957" style="stroke:#B38D22;stroke-width:1.0;"/><text fill="#000000" font-family="sans-serif" font-size="11" lengthAdjust="spacing" textLength="226" x="569" y="659.2305">creator : CreateStrategy&lt;ModdleElement&gt;</text><polygon fill="none" points="560,663.5508,564,667.5508,560,671.5508,556,667.5508" style="stroke:#B38D22;stroke-width:1.0;"/><text fill="#000000" font-family="sans-serif" font-size="11" lengthAdjust="spacing" textLength="204" x="569" y="672.1855">linker : LinkStrategy&lt;ModdleElement&gt;</text><line style="stroke:#A80036;stroke-width:1.5;" x1="550" x2="1053" y1="678.5059" y2="678.5059"/><ellipse cx="560" cy="689.5059" fill="#84BE84" rx="3" ry="3" style="stroke:#038048;stroke-width:1.0;"/><text fill="#000000" font-family="sans-serif" font-size="11" lengthAdjust="spacing" textLength="479" x="569" y="693.1406">create(node: StatementNode&lt;ModdleElement&gt;, attrs: RecordOfAnyType) : ModdleElement</text><ellipse cx="560" cy="702.4609" fill="#84BE84" rx="3" ry="3" style="stroke:#038048;stroke-width:1.0;"/><text fill="#000000" font-family="sans-serif" font-size="11" lengthAdjust="spacing" textLength="338" x="569" y="706.0957">link(node: StatementNode&lt;ModdleElement&gt;) : ModdleElement[]</text><!--MD5=[36c15feae30538a2eb4fd548b4e917bb]
class TriggerWhenColumnChanges--><rect codeLine="60" fill="#FEFECE" filter="url(#ff5xy7tnqkler)" height="216.416" id="TriggerWhenColumnChanges" style="stroke:#A80036;stroke-width:1.5;" width="505" x="1089" y="496"/><ellipse cx="1254.75" cy="512" fill="#ADD1B2" rx="11" ry="11" style="stroke:#A80036;stroke-width:1.0;"/><path d="M1257.2231,518.1431 Q1256.6421,518.4419 1256.0029,518.5913 Q1255.3638,518.7407 1254.6582,518.7407 Q1252.1514,518.7407 1250.8315,517.0889 Q1249.5117,515.437 1249.5117,512.3159 Q1249.5117,509.1865 1250.8315,507.5347 Q1252.1514,505.8828 1254.6582,505.8828 Q1255.3638,505.8828 1256.0112,506.0322 Q1256.6587,506.1816 1257.2231,506.4805 L1257.2231,509.2031 Q1256.5923,508.6221 1255.9988,508.3523 Q1255.4053,508.0825 1254.7744,508.0825 Q1253.4297,508.0825 1252.7449,509.1492 Q1252.0601,510.2158 1252.0601,512.3159 Q1252.0601,514.4077 1252.7449,515.4744 Q1253.4297,516.541 1254.7744,516.541 Q1255.4053,516.541 1255.9988,516.2712 Q1256.5923,516.0015 1257.2231,515.4204 Z " fill="#000000"/><text fill="#000000" font-family="sans-serif" font-size="12" lengthAdjust="spacing" textLength="165" x="1275.25" y="516.5352">TriggerWhenColumnChanges</text><line style="stroke:#A80036;stroke-width:1.5;" x1="1090" x2="1593" y1="528" y2="528"/><ellipse cx="1100" cy="539" rx="3" ry="3" style="stroke:#038048;stroke-width:1.0;fill:none;"/><text fill="#000000" font-family="sans-serif" font-size="11" lengthAdjust="spacing" textLength="159" x="1109" y="542.6348">attributes : RecordOfAnyType</text><ellipse cx="1100" cy="551.9551" rx="3" ry="3" style="stroke:#038048;stroke-width:1.0;fill:none;"/><text fill="#000000" font-family="sans-serif" font-size="11" lengthAdjust="spacing" textLength="51" x="1109" y="555.5898">id : string</text><ellipse cx="1100" cy="564.9102" rx="3" ry="3" style="stroke:#038048;stroke-width:1.0;fill:none;"/><text fill="#000000" font-family="sans-serif" font-size="11" lengthAdjust="spacing" textLength="76" x="1109" y="568.5449">inputs : object</text><ellipse cx="1100" cy="577.8652" rx="3" ry="3" style="stroke:#038048;stroke-width:1.0;fill:none;"/><text fill="#000000" font-family="sans-serif" font-size="11" lengthAdjust="spacing" textLength="70" x="1109" y="581.5">name : string</text><ellipse cx="1100" cy="590.8203" rx="3" ry="3" style="stroke:#038048;stroke-width:1.0;fill:none;"/><text fill="#000000" font-family="sans-serif" font-size="11" lengthAdjust="spacing" textLength="83" x="1109" y="594.4551">outputs : string</text><ellipse cx="1100" cy="603.7754" rx="3" ry="3" style="stroke:#038048;stroke-width:1.0;fill:none;"/><text fill="#000000" font-family="sans-serif" font-size="11" lengthAdjust="spacing" textLength="98" x="1109" y="607.4102">properties : object</text><ellipse cx="1100" cy="616.7305" rx="3" ry="3" style="stroke:#038048;stroke-width:1.0;fill:none;"/><text fill="#000000" font-family="sans-serif" font-size="11" lengthAdjust="spacing" textLength="58" x="1109" y="620.3652">tag : string</text><ellipse cx="1100" cy="629.6855" rx="3" ry="3" style="stroke:#038048;stroke-width:1.0;fill:none;"/><text fill="#000000" font-family="sans-serif" font-size="11" lengthAdjust="spacing" textLength="106" x="1109" y="633.3203">type : ElementTypes</text><ellipse cx="1100" cy="642.6406" rx="3" ry="3" style="stroke:#038048;stroke-width:1.0;fill:none;"/><text fill="#000000" font-family="sans-serif" font-size="11" lengthAdjust="spacing" textLength="94" x="1109" y="646.2754">utils : UtilsService</text><polygon fill="none" points="1100,650.5957,1104,654.5957,1100,658.5957,1096,654.5957" style="stroke:#B38D22;stroke-width:1.0;"/><text fill="#000000" font-family="sans-serif" font-size="11" lengthAdjust="spacing" textLength="226" x="1109" y="659.2305">creator : CreateStrategy&lt;ModdleElement&gt;</text><polygon fill="none" points="1100,663.5508,1104,667.5508,1100,671.5508,1096,667.5508" style="stroke:#B38D22;stroke-width:1.0;"/><text fill="#000000" font-family="sans-serif" font-size="11" lengthAdjust="spacing" textLength="204" x="1109" y="672.1855">linker : LinkStrategy&lt;ModdleElement&gt;</text><line style="stroke:#A80036;stroke-width:1.5;" x1="1090" x2="1593" y1="678.5059" y2="678.5059"/><ellipse cx="1100" cy="689.5059" fill="#84BE84" rx="3" ry="3" style="stroke:#038048;stroke-width:1.0;"/><text fill="#000000" font-family="sans-serif" font-size="11" lengthAdjust="spacing" textLength="479" x="1109" y="693.1406">create(node: StatementNode&lt;ModdleElement&gt;, attrs: RecordOfAnyType) : ModdleElement</text><ellipse cx="1100" cy="702.4609" fill="#84BE84" rx="3" ry="3" style="stroke:#038048;stroke-width:1.0;"/><text fill="#000000" font-family="sans-serif" font-size="11" lengthAdjust="spacing" textLength="338" x="1109" y="706.0957">link(node: StatementNode&lt;ModdleElement&gt;) : ModdleElement[]</text><!--MD5=[6a7a3ca942d2eb29aa98a40495bcec28]
class ChangeColumnValue--><rect codeLine="76" fill="#FEFECE" filter="url(#ff5xy7tnqkler)" height="216.416" id="ChangeColumnValue" style="stroke:#A80036;stroke-width:1.5;" width="505" x="1629" y="496"/><ellipse cx="1818.25" cy="512" fill="#ADD1B2" rx="11" ry="11" style="stroke:#A80036;stroke-width:1.0;"/><path d="M1820.7231,518.1431 Q1820.1421,518.4419 1819.5029,518.5913 Q1818.8638,518.7407 1818.1582,518.7407 Q1815.6514,518.7407 1814.3315,517.0889 Q1813.0117,515.437 1813.0117,512.3159 Q1813.0117,509.1865 1814.3315,507.5347 Q1815.6514,505.8828 1818.1582,505.8828 Q1818.8638,505.8828 1819.5112,506.0322 Q1820.1587,506.1816 1820.7231,506.4805 L1820.7231,509.2031 Q1820.0923,508.6221 1819.4988,508.3523 Q1818.9053,508.0825 1818.2744,508.0825 Q1816.9297,508.0825 1816.2449,509.1492 Q1815.5601,510.2158 1815.5601,512.3159 Q1815.5601,514.4077 1816.2449,515.4744 Q1816.9297,516.541 1818.2744,516.541 Q1818.9053,516.541 1819.4988,516.2712 Q1820.0923,516.0015 1820.7231,515.4204 Z " fill="#000000"/><text fill="#000000" font-family="sans-serif" font-size="12" lengthAdjust="spacing" textLength="118" x="1838.75" y="516.5352">ChangeColumnValue</text><line style="stroke:#A80036;stroke-width:1.5;" x1="1630" x2="2133" y1="528" y2="528"/><ellipse cx="1640" cy="539" rx="3" ry="3" style="stroke:#038048;stroke-width:1.0;fill:none;"/><text fill="#000000" font-family="sans-serif" font-size="11" lengthAdjust="spacing" textLength="159" x="1649" y="542.6348">attributes : RecordOfAnyType</text><ellipse cx="1640" cy="551.9551" rx="3" ry="3" style="stroke:#038048;stroke-width:1.0;fill:none;"/><text fill="#000000" font-family="sans-serif" font-size="11" lengthAdjust="spacing" textLength="51" x="1649" y="555.5898">id : string</text><ellipse cx="1640" cy="564.9102" rx="3" ry="3" style="stroke:#038048;stroke-width:1.0;fill:none;"/><text fill="#000000" font-family="sans-serif" font-size="11" lengthAdjust="spacing" textLength="76" x="1649" y="568.5449">inputs : object</text><ellipse cx="1640" cy="577.8652" rx="3" ry="3" style="stroke:#038048;stroke-width:1.0;fill:none;"/><text fill="#000000" font-family="sans-serif" font-size="11" lengthAdjust="spacing" textLength="70" x="1649" y="581.5">name : string</text><ellipse cx="1640" cy="590.8203" rx="3" ry="3" style="stroke:#038048;stroke-width:1.0;fill:none;"/><text fill="#000000" font-family="sans-serif" font-size="11" lengthAdjust="spacing" textLength="83" x="1649" y="594.4551">outputs : string</text><ellipse cx="1640" cy="603.7754" rx="3" ry="3" style="stroke:#038048;stroke-width:1.0;fill:none;"/><text fill="#000000" font-family="sans-serif" font-size="11" lengthAdjust="spacing" textLength="98" x="1649" y="607.4102">properties : object</text><ellipse cx="1640" cy="616.7305" rx="3" ry="3" style="stroke:#038048;stroke-width:1.0;fill:none;"/><text fill="#000000" font-family="sans-serif" font-size="11" lengthAdjust="spacing" textLength="58" x="1649" y="620.3652">tag : string</text><ellipse cx="1640" cy="629.6855" rx="3" ry="3" style="stroke:#038048;stroke-width:1.0;fill:none;"/><text fill="#000000" font-family="sans-serif" font-size="11" lengthAdjust="spacing" textLength="106" x="1649" y="633.3203">type : ElementTypes</text><ellipse cx="1640" cy="642.6406" rx="3" ry="3" style="stroke:#038048;stroke-width:1.0;fill:none;"/><text fill="#000000" font-family="sans-serif" font-size="11" lengthAdjust="spacing" textLength="94" x="1649" y="646.2754">utils : UtilsService</text><polygon fill="none" points="1640,650.5957,1644,654.5957,1640,658.5957,1636,654.5957" style="stroke:#B38D22;stroke-width:1.0;"/><text fill="#000000" font-family="sans-serif" font-size="11" lengthAdjust="spacing" textLength="226" x="1649" y="659.2305">creator : CreateStrategy&lt;ModdleElement&gt;</text><polygon fill="none" points="1640,663.5508,1644,667.5508,1640,671.5508,1636,667.5508" style="stroke:#B38D22;stroke-width:1.0;"/><text fill="#000000" font-family="sans-serif" font-size="11" lengthAdjust="spacing" textLength="204" x="1649" y="672.1855">linker : LinkStrategy&lt;ModdleElement&gt;</text><line style="stroke:#A80036;stroke-width:1.5;" x1="1630" x2="2133" y1="678.5059" y2="678.5059"/><ellipse cx="1640" cy="689.5059" fill="#84BE84" rx="3" ry="3" style="stroke:#038048;stroke-width:1.0;"/><text fill="#000000" font-family="sans-serif" font-size="11" lengthAdjust="spacing" textLength="479" x="1649" y="693.1406">create(node: StatementNode&lt;ModdleElement&gt;, attrs: RecordOfAnyType) : ModdleElement</text><ellipse cx="1640" cy="702.4609" fill="#84BE84" rx="3" ry="3" style="stroke:#038048;stroke-width:1.0;"/><text fill="#000000" font-family="sans-serif" font-size="11" lengthAdjust="spacing" textLength="338" x="1649" y="706.0957">link(node: StatementNode&lt;ModdleElement&gt;) : ModdleElement[]</text><!--MD5=[6d90ac4b981647947ccfaddad9c43b44]
reverse link BpmnElement to ServiceTaskElement--><path codeLine="28" d="M1071.5,205.55 C1071.5,218.63 1071.5,231.92 1071.5,244.79 " fill="none" id="BpmnElement-backto-ServiceTaskElement" style="stroke:#A80036;stroke-width:1.0;"/><polygon fill="none" points="1064.5,205.23,1071.5,185.23,1078.5,205.23,1064.5,205.23" style="stroke:#A80036;stroke-width:1.0;"/><!--MD5=[df3dd846bc47d4b752e57f46d326d778]
reverse link ServiceTaskElement to ReadColumnValue--><path codeLine="43" d="M799.45,413.68 C713.21,438.07 617.86,466.61 531.5,496 C525.41,498.07 519.26,500.2 513.07,502.38 " fill="none" id="ServiceTaskElement-backto-ReadColumnValue" style="stroke:#A80036;stroke-width:1.0;"/><polygon fill="none" points="797.71,406.9,818.86,408.22,801.5,420.38,797.71,406.9" style="stroke:#A80036;stroke-width:1.0;"/><!--MD5=[ff97ed4135c02b9bf61b1cc104d99cae]
reverse link ServiceTaskElement to SendEmail--><path codeLine="59" d="M958.99,450.47 C943.55,465.42 927.71,480.77 912.3,495.69 " fill="none" id="ServiceTaskElement-backto-SendEmail" style="stroke:#A80036;stroke-width:1.0;"/><polygon fill="none" points="954.41,445.16,973.64,436.28,964.15,455.22,954.41,445.16" style="stroke:#A80036;stroke-width:1.0;"/><!--MD5=[bccc185c1b82599b1094951fb45fad75]
reverse link ServiceTaskElement to TriggerWhenColumnChanges--><path codeLine="75" d="M1184.01,450.47 C1199.45,465.42 1215.29,480.77 1230.7,495.69 " fill="none" id="ServiceTaskElement-backto-TriggerWhenColumnChanges" style="stroke:#A80036;stroke-width:1.0;"/><polygon fill="none" points="1178.85,455.22,1169.36,436.28,1188.59,445.16,1178.85,455.22" style="stroke:#A80036;stroke-width:1.0;"/><!--MD5=[9e04f38bd96109bf828c2a09ee6e8bf4]
reverse link ServiceTaskElement to ChangeColumnValue--><path codeLine="91" d="M1343.55,413.68 C1429.79,438.07 1525.14,466.61 1611.5,496 C1617.23,497.95 1623.01,499.95 1628.84,502 " fill="none" id="ServiceTaskElement-backto-ChangeColumnValue" style="stroke:#A80036;stroke-width:1.0;"/><polygon fill="none" points="1341.5,420.38,1324.14,408.22,1345.29,406.9,1341.5,420.38" style="stroke:#A80036;stroke-width:1.0;"/><!--MD5=[c89f91b0ec68a9c70a2f16bf9187dd4c]
@startuml
hide empty methods
hide empty fields
abstract class "ServiceTaskElement" {
    +attributes : RecordOfAnyType
    +id : string
    +inputs : ElementInput
    +name : string
    +outputs : string
    +tag : string
    +type : ElementTypes
    #creator : CreateStrategy<ModdleElement>
    #linker : LinkStrategy<ModdleElement>
    +create(node: StatementNode<ModdleElement>, attrs: RecordOfAnyType) : ModdleElement
    +link(node: StatementNode<ModdleElement>) : ModdleElement[]
}
abstract class "BpmnElement" {
    +attributes : RecordOfAnyType
    +id : string
    +inputs : ElementInput
    +name : string
    +outputs : string
    +tag : string
    #creator : CreateStrategy<ModdleElement>
    #linker : LinkStrategy<ModdleElement>
    +create(node: StatementNode<ModdleElement>, attrs: RecordOfAnyType) : ModdleElement
    +link(node: StatementNode<ModdleElement>) : ModdleElement[]
}
"BpmnElement" <|- - "ServiceTaskElement"
class "ReadColumnValue" {
    +attributes : RecordOfAnyType
    +id : string
    +inputs : object
    +name : string
    +outputs : string
    +tag : string
    +type : ElementTypes
    +utils : UtilsService
    #creator : CreateStrategy<ModdleElement>
    #linker : LinkStrategy<ModdleElement>
    +create(node: StatementNode<ModdleElement>, attrs: RecordOfAnyType) : ModdleElement
    +link(node: StatementNode<ModdleElement>) : ModdleElement[]
}
"ServiceTaskElement" <|- - "ReadColumnValue"
class "SendEmail" {
    +attributes : RecordOfAnyType
    +id : string
    +inputs : object
    +name : string
    +outputs : string
    +properties : object
    +tag : string
    +type : ElementTypes
    +utils : UtilsService
    #creator : CreateStrategy<ModdleElement>
    #linker : LinkStrategy<ModdleElement>
    +create(node: StatementNode<ModdleElement>, attrs: RecordOfAnyType) : ModdleElement
    +link(node: StatementNode<ModdleElement>) : ModdleElement[]
}
"ServiceTaskElement" <|- - "SendEmail"
class "TriggerWhenColumnChanges" {
    +attributes : RecordOfAnyType
    +id : string
    +inputs : object
    +name : string
    +outputs : string
    +properties : object
    +tag : string
    +type : ElementTypes
    +utils : UtilsService
    #creator : CreateStrategy<ModdleElement>
    #linker : LinkStrategy<ModdleElement>
    +create(node: StatementNode<ModdleElement>, attrs: RecordOfAnyType) : ModdleElement
    +link(node: StatementNode<ModdleElement>) : ModdleElement[]
}
"ServiceTaskElement" <|- - "TriggerWhenColumnChanges"
class "ChangeColumnValue" {
    +attributes : RecordOfAnyType
    +id : string
    +inputs : object
    +name : string
    +outputs : string
    +properties : object
    +tag : string
    +type : ElementTypes
    +utils : UtilsService
    #creator : CreateStrategy<ModdleElement>
    #linker : LinkStrategy<ModdleElement>
    +create(node: StatementNode<ModdleElement>, attrs: RecordOfAnyType) : ModdleElement
    +link(node: StatementNode<ModdleElement>) : ModdleElement[]
}
"ServiceTaskElement" <|- - "ChangeColumnValue"
@enduml

PlantUML version 1.2021.14(Fri Nov 12 22:16:50 IST 2021)
(GPL source distribution)
Java Runtime: OpenJDK Runtime Environment
JVM: OpenJDK 64-Bit Server VM
Default Encoding: UTF-8
Language: en
Country: IN
--></g></svg>