<?xml version="1.0" encoding="UTF-8" standalone="no"?><svg xmlns="http://www.w3.org/2000/svg" xmlns:xlink="http://www.w3.org/1999/xlink" contentScriptType="application/ecmascript" contentStyleType="text/css" height="449px" preserveAspectRatio="none" style="width:528px;height:449px;background:#FFFFFF;" version="1.1" viewBox="0 0 528 449" width="528px" zoomAndPan="magnify"><defs><filter height="300%" id="f15alt4hdgsfn4" width="300%" x="-1" y="-1"><feGaussianBlur result="blurOut" stdDeviation="2.0"/><feColorMatrix in="blurOut" result="blurOut2" type="matrix" values="0 0 0 0 0 0 0 0 0 0 0 0 0 0 0 0 0 0 .4 0"/><feOffset dx="4.0" dy="4.0" in="blurOut2" result="blurOut3"/><feBlend in="SourceGraphic" in2="blurOut3" mode="normal"/></filter></defs><g><!--MD5=[3ffb6353d84ae8d5c9b0fc1e9735d21c]
class StartElement--><rect codeLine="3" fill="#FEFECE" filter="url(#f15alt4hdgsfn4)" height="190.5059" id="StartElement" style="stroke:#A80036;stroke-width:1.5;" width="505" x="9" y="245"/><ellipse cx="221.25" cy="261" fill="#ADD1B2" rx="11" ry="11" style="stroke:#A80036;stroke-width:1.0;"/><path d="M223.7231,267.1431 Q223.1421,267.4419 222.5029,267.5913 Q221.8638,267.7407 221.1582,267.7407 Q218.6514,267.7407 217.3315,266.0889 Q216.0117,264.437 216.0117,261.3159 Q216.0117,258.1865 217.3315,256.5347 Q218.6514,254.8828 221.1582,254.8828 Q221.8638,254.8828 222.5112,255.0322 Q223.1587,255.1816 223.7231,255.4805 L223.7231,258.2031 Q223.0923,257.6221 222.4988,257.3523 Q221.9053,257.0825 221.2744,257.0825 Q219.9297,257.0825 219.2449,258.1492 Q218.5601,259.2158 218.5601,261.3159 Q218.5601,263.4077 219.2449,264.4744 Q219.9297,265.541 221.2744,265.541 Q221.9053,265.541 222.4988,265.2712 Q223.0923,265.0015 223.7231,264.4204 Z " fill="#000000"/><text fill="#000000" font-family="sans-serif" font-size="12" lengthAdjust="spacing" textLength="72" x="241.75" y="265.5352">StartElement</text><line style="stroke:#A80036;stroke-width:1.5;" x1="10" x2="513" y1="277" y2="277"/><ellipse cx="20" cy="288" rx="3" ry="3" style="stroke:#038048;stroke-width:1.0;fill:none;"/><text fill="#000000" font-family="sans-serif" font-size="11" lengthAdjust="spacing" textLength="94" x="29" y="291.6348">attributes : object</text><ellipse cx="20" cy="300.9551" rx="3" ry="3" style="stroke:#038048;stroke-width:1.0;fill:none;"/><text fill="#000000" font-family="sans-serif" font-size="11" lengthAdjust="spacing" textLength="51" x="29" y="304.5898">id : string</text><ellipse cx="20" cy="313.9102" rx="3" ry="3" style="stroke:#038048;stroke-width:1.0;fill:none;"/><text fill="#000000" font-family="sans-serif" font-size="11" lengthAdjust="spacing" textLength="113" x="29" y="317.5449">inputs : ElementInput</text><ellipse cx="20" cy="326.8652" rx="3" ry="3" style="stroke:#038048;stroke-width:1.0;fill:none;"/><text fill="#000000" font-family="sans-serif" font-size="11" lengthAdjust="spacing" textLength="70" x="29" y="330.5">name : string</text><ellipse cx="20" cy="339.8203" rx="3" ry="3" style="stroke:#038048;stroke-width:1.0;fill:none;"/><text fill="#000000" font-family="sans-serif" font-size="11" lengthAdjust="spacing" textLength="83" x="29" y="343.4551">outputs : string</text><ellipse cx="20" cy="352.7754" rx="3" ry="3" style="stroke:#038048;stroke-width:1.0;fill:none;"/><text fill="#000000" font-family="sans-serif" font-size="11" lengthAdjust="spacing" textLength="58" x="29" y="356.4102">tag : string</text><ellipse cx="20" cy="365.7305" rx="3" ry="3" style="stroke:#038048;stroke-width:1.0;fill:none;"/><text fill="#000000" font-family="sans-serif" font-size="11" lengthAdjust="spacing" textLength="94" x="29" y="369.3652">utils : UtilsService</text><polygon fill="none" points="20,373.6855,24,377.6855,20,381.6855,16,377.6855" style="stroke:#B38D22;stroke-width:1.0;"/><text fill="#000000" font-family="sans-serif" font-size="11" lengthAdjust="spacing" textLength="226" x="29" y="382.3203">creator : CreateStrategy&lt;ModdleElement&gt;</text><polygon fill="none" points="20,386.6406,24,390.6406,20,394.6406,16,390.6406" style="stroke:#B38D22;stroke-width:1.0;"/><text fill="#000000" font-family="sans-serif" font-size="11" lengthAdjust="spacing" textLength="204" x="29" y="395.2754">linker : LinkStrategy&lt;ModdleElement&gt;</text><line style="stroke:#A80036;stroke-width:1.5;" x1="10" x2="513" y1="401.5957" y2="401.5957"/><ellipse cx="20" cy="412.5957" fill="#84BE84" rx="3" ry="3" style="stroke:#038048;stroke-width:1.0;"/><text fill="#000000" font-family="sans-serif" font-size="11" lengthAdjust="spacing" textLength="479" x="29" y="416.2305">create(node: StatementNode&lt;ModdleElement&gt;, attrs: RecordOfAnyType) : ModdleElement</text><ellipse cx="20" cy="425.5508" fill="#84BE84" rx="3" ry="3" style="stroke:#038048;stroke-width:1.0;"/><text fill="#000000" font-family="sans-serif" font-size="11" lengthAdjust="spacing" textLength="338" x="29" y="429.1855">link(node: StatementNode&lt;ModdleElement&gt;) : ModdleElement[]</text><!--MD5=[67972b1c6d4722e1308be96bcf302a89]
class BpmnElement--><rect codeLine="16" fill="#FEFECE" filter="url(#f15alt4hdgsfn4)" height="177.5508" id="BpmnElement" style="stroke:#A80036;stroke-width:1.5;" width="505" x="9" y="7"/><ellipse cx="217.75" cy="23" fill="#A9DCDF" rx="11" ry="11" style="stroke:#A80036;stroke-width:1.0;"/><path d="M217.6133,18.3481 L216.4595,23.4199 L218.7754,23.4199 Z M216.1191,16.1069 L219.1157,16.1069 L222.4609,28.5 L220.0122,28.5 L219.2485,25.437 L215.9697,25.437 L215.2227,28.5 L212.7739,28.5 Z " fill="#000000"/><text fill="#000000" font-family="sans-serif" font-size="12" font-style="italic" lengthAdjust="spacing" textLength="79" x="238.25" y="27.5352">BpmnElement</text><line style="stroke:#A80036;stroke-width:1.5;" x1="10" x2="513" y1="39" y2="39"/><ellipse cx="20" cy="50" rx="3" ry="3" style="stroke:#038048;stroke-width:1.0;fill:none;"/><text fill="#000000" font-family="sans-serif" font-size="11" lengthAdjust="spacing" textLength="159" x="29" y="53.6348">attributes : RecordOfAnyType</text><ellipse cx="20" cy="62.9551" rx="3" ry="3" style="stroke:#038048;stroke-width:1.0;fill:none;"/><text fill="#000000" font-family="sans-serif" font-size="11" lengthAdjust="spacing" textLength="51" x="29" y="66.5898">id : string</text><ellipse cx="20" cy="75.9102" rx="3" ry="3" style="stroke:#038048;stroke-width:1.0;fill:none;"/><text fill="#000000" font-family="sans-serif" font-size="11" lengthAdjust="spacing" textLength="113" x="29" y="79.5449">inputs : ElementInput</text><ellipse cx="20" cy="88.8652" rx="3" ry="3" style="stroke:#038048;stroke-width:1.0;fill:none;"/><text fill="#000000" font-family="sans-serif" font-size="11" lengthAdjust="spacing" textLength="70" x="29" y="92.5">name : string</text><ellipse cx="20" cy="101.8203" rx="3" ry="3" style="stroke:#038048;stroke-width:1.0;fill:none;"/><text fill="#000000" font-family="sans-serif" font-size="11" lengthAdjust="spacing" textLength="83" x="29" y="105.4551">outputs : string</text><ellipse cx="20" cy="114.7754" rx="3" ry="3" style="stroke:#038048;stroke-width:1.0;fill:none;"/><text fill="#000000" font-family="sans-serif" font-size="11" lengthAdjust="spacing" textLength="58" x="29" y="118.4102">tag : string</text><polygon fill="none" points="20,122.7305,24,126.7305,20,130.7305,16,126.7305" style="stroke:#B38D22;stroke-width:1.0;"/><text fill="#000000" font-family="sans-serif" font-size="11" lengthAdjust="spacing" textLength="226" x="29" y="131.3652">creator : CreateStrategy&lt;ModdleElement&gt;</text><polygon fill="none" points="20,135.6855,24,139.6855,20,143.6855,16,139.6855" style="stroke:#B38D22;stroke-width:1.0;"/><text fill="#000000" font-family="sans-serif" font-size="11" lengthAdjust="spacing" textLength="204" x="29" y="144.3203">linker : LinkStrategy&lt;ModdleElement&gt;</text><line style="stroke:#A80036;stroke-width:1.5;" x1="10" x2="513" y1="150.6406" y2="150.6406"/><ellipse cx="20" cy="161.6406" fill="#84BE84" rx="3" ry="3" style="stroke:#038048;stroke-width:1.0;"/><text fill="#000000" font-family="sans-serif" font-size="11" lengthAdjust="spacing" textLength="479" x="29" y="165.2754">create(node: StatementNode&lt;ModdleElement&gt;, attrs: RecordOfAnyType) : ModdleElement</text><ellipse cx="20" cy="174.5957" fill="#84BE84" rx="3" ry="3" style="stroke:#038048;stroke-width:1.0;"/><text fill="#000000" font-family="sans-serif" font-size="11" lengthAdjust="spacing" textLength="338" x="29" y="178.2305">link(node: StatementNode&lt;ModdleElement&gt;) : ModdleElement[]</text><!--MD5=[0d3e39020c8490d4eac8f1699a85bf6d]
reverse link BpmnElement to StartElement--><path codeLine="28" d="M261.5,205.55 C261.5,218.63 261.5,231.92 261.5,244.79 " fill="none" id="BpmnElement-backto-StartElement" style="stroke:#A80036;stroke-width:1.0;"/><polygon fill="none" points="254.5,205.23,261.5,185.23,268.5,205.23,254.5,205.23" style="stroke:#A80036;stroke-width:1.0;"/><!--MD5=[acb1cb7a0d059b6bd2512424e9478be4]
@startuml
hide empty methods
hide empty fields
class "StartElement" {
    +attributes : object
    +id : string
    +inputs : ElementInput
    +name : string
    +outputs : string
    +tag : string
    +utils : UtilsService
    #creator : CreateStrategy<ModdleElement>
    #linker : LinkStrategy<ModdleElement>
    +create(node: StatementNode<ModdleElement>, attrs: RecordOfAnyType) : ModdleElement
    +link(node: StatementNode<ModdleElement>) : ModdleElement[]
}
abstract class "BpmnElement" {
    +attributes : RecordOfAnyType
    +id : string
    +inputs : ElementInput
    +name : string
    +outputs : string
    +tag : string
    #creator : CreateStrategy<ModdleElement>
    #linker : LinkStrategy<ModdleElement>
    +create(node: StatementNode<ModdleElement>, attrs: RecordOfAnyType) : ModdleElement
    +link(node: StatementNode<ModdleElement>) : ModdleElement[]
}
"BpmnElement" <|- - "StartElement"
@enduml

PlantUML version 1.2021.14(Fri Nov 12 22:16:50 IST 2021)
(GPL source distribution)
Java Runtime: OpenJDK Runtime Environment
JVM: OpenJDK 64-Bit Server VM
Default Encoding: UTF-8
Language: en
Country: IN
--></g></svg>