<?xml version="1.0" encoding="UTF-8" standalone="no"?><svg xmlns="http://www.w3.org/2000/svg" xmlns:xlink="http://www.w3.org/1999/xlink" contentScriptType="application/ecmascript" contentStyleType="text/css" height="488px" preserveAspectRatio="none" style="width:528px;height:488px;background:#FFFFFF;" version="1.1" viewBox="0 0 528 488" width="528px" zoomAndPan="magnify"><defs><filter height="300%" id="f9ko8yt69egps" width="300%" x="-1" y="-1"><feGaussianBlur result="blurOut" stdDeviation="2.0"/><feColorMatrix in="blurOut" result="blurOut2" type="matrix" values="0 0 0 0 0 0 0 0 0 0 0 0 0 0 0 0 0 0 .4 0"/><feOffset dx="4.0" dy="4.0" in="blurOut2" result="blurOut3"/><feBlend in="SourceGraphic" in2="blurOut3" mode="normal"/></filter></defs><g><!--MD5=[36c15feae30538a2eb4fd548b4e917bb]
class TriggerWhenColumnChanges--><rect codeLine="3" fill="#FEFECE" filter="url(#f9ko8yt69egps)" height="216.416" id="TriggerWhenColumnChanges" style="stroke:#A80036;stroke-width:1.5;" width="505" x="9" y="258"/><ellipse cx="174.75" cy="274" fill="#ADD1B2" rx="11" ry="11" style="stroke:#A80036;stroke-width:1.0;"/><path d="M177.2231,280.1431 Q176.6421,280.4419 176.0029,280.5913 Q175.3638,280.7407 174.6582,280.7407 Q172.1514,280.7407 170.8315,279.0889 Q169.5117,277.437 169.5117,274.3159 Q169.5117,271.1865 170.8315,269.5347 Q172.1514,267.8828 174.6582,267.8828 Q175.3638,267.8828 176.0112,268.0322 Q176.6587,268.1816 177.2231,268.4805 L177.2231,271.2031 Q176.5923,270.6221 175.9988,270.3523 Q175.4053,270.0825 174.7744,270.0825 Q173.4297,270.0825 172.7449,271.1492 Q172.0601,272.2158 172.0601,274.3159 Q172.0601,276.4077 172.7449,277.4744 Q173.4297,278.541 174.7744,278.541 Q175.4053,278.541 175.9988,278.2712 Q176.5923,278.0015 177.2231,277.4204 Z " fill="#000000"/><text fill="#000000" font-family="sans-serif" font-size="12" lengthAdjust="spacing" textLength="165" x="195.25" y="278.5352">TriggerWhenColumnChanges</text><line style="stroke:#A80036;stroke-width:1.5;" x1="10" x2="513" y1="290" y2="290"/><ellipse cx="20" cy="301" rx="3" ry="3" style="stroke:#038048;stroke-width:1.0;fill:none;"/><text fill="#000000" font-family="sans-serif" font-size="11" lengthAdjust="spacing" textLength="159" x="29" y="304.6348">attributes : RecordOfAnyType</text><ellipse cx="20" cy="313.9551" rx="3" ry="3" style="stroke:#038048;stroke-width:1.0;fill:none;"/><text fill="#000000" font-family="sans-serif" font-size="11" lengthAdjust="spacing" textLength="51" x="29" y="317.5898">id : string</text><ellipse cx="20" cy="326.9102" rx="3" ry="3" style="stroke:#038048;stroke-width:1.0;fill:none;"/><text fill="#000000" font-family="sans-serif" font-size="11" lengthAdjust="spacing" textLength="76" x="29" y="330.5449">inputs : object</text><ellipse cx="20" cy="339.8652" rx="3" ry="3" style="stroke:#038048;stroke-width:1.0;fill:none;"/><text fill="#000000" font-family="sans-serif" font-size="11" lengthAdjust="spacing" textLength="70" x="29" y="343.5">name : string</text><ellipse cx="20" cy="352.8203" rx="3" ry="3" style="stroke:#038048;stroke-width:1.0;fill:none;"/><text fill="#000000" font-family="sans-serif" font-size="11" lengthAdjust="spacing" textLength="83" x="29" y="356.4551">outputs : string</text><ellipse cx="20" cy="365.7754" rx="3" ry="3" style="stroke:#038048;stroke-width:1.0;fill:none;"/><text fill="#000000" font-family="sans-serif" font-size="11" lengthAdjust="spacing" textLength="98" x="29" y="369.4102">properties : object</text><ellipse cx="20" cy="378.7305" rx="3" ry="3" style="stroke:#038048;stroke-width:1.0;fill:none;"/><text fill="#000000" font-family="sans-serif" font-size="11" lengthAdjust="spacing" textLength="58" x="29" y="382.3652">tag : string</text><ellipse cx="20" cy="391.6855" rx="3" ry="3" style="stroke:#038048;stroke-width:1.0;fill:none;"/><text fill="#000000" font-family="sans-serif" font-size="11" lengthAdjust="spacing" textLength="106" x="29" y="395.3203">type : ElementTypes</text><ellipse cx="20" cy="404.6406" rx="3" ry="3" style="stroke:#038048;stroke-width:1.0;fill:none;"/><text fill="#000000" font-family="sans-serif" font-size="11" lengthAdjust="spacing" textLength="94" x="29" y="408.2754">utils : UtilsService</text><polygon fill="none" points="20,412.5957,24,416.5957,20,420.5957,16,416.5957" style="stroke:#B38D22;stroke-width:1.0;"/><text fill="#000000" font-family="sans-serif" font-size="11" lengthAdjust="spacing" textLength="226" x="29" y="421.2305">creator : CreateStrategy&lt;ModdleElement&gt;</text><polygon fill="none" points="20,425.5508,24,429.5508,20,433.5508,16,429.5508" style="stroke:#B38D22;stroke-width:1.0;"/><text fill="#000000" font-family="sans-serif" font-size="11" lengthAdjust="spacing" textLength="204" x="29" y="434.1855">linker : LinkStrategy&lt;ModdleElement&gt;</text><line style="stroke:#A80036;stroke-width:1.5;" x1="10" x2="513" y1="440.5059" y2="440.5059"/><ellipse cx="20" cy="451.5059" fill="#84BE84" rx="3" ry="3" style="stroke:#038048;stroke-width:1.0;"/><text fill="#000000" font-family="sans-serif" font-size="11" lengthAdjust="spacing" textLength="479" x="29" y="455.1406">create(node: StatementNode&lt;ModdleElement&gt;, attrs: RecordOfAnyType) : ModdleElement</text><ellipse cx="20" cy="464.4609" fill="#84BE84" rx="3" ry="3" style="stroke:#038048;stroke-width:1.0;"/><text fill="#000000" font-family="sans-serif" font-size="11" lengthAdjust="spacing" textLength="338" x="29" y="468.0957">link(node: StatementNode&lt;ModdleElement&gt;) : ModdleElement[]</text><!--MD5=[3c01fea783f5c1b9b51ddef878564734]
class ServiceTaskElement--><rect codeLine="18" fill="#FEFECE" filter="url(#f9ko8yt69egps)" height="190.5059" id="ServiceTaskElement" style="stroke:#A80036;stroke-width:1.5;" width="505" x="9" y="7"/><ellipse cx="200.25" cy="23" fill="#A9DCDF" rx="11" ry="11" style="stroke:#A80036;stroke-width:1.0;"/><path d="M200.1133,18.3481 L198.9595,23.4199 L201.2754,23.4199 Z M198.6191,16.1069 L201.6157,16.1069 L204.9609,28.5 L202.5122,28.5 L201.7485,25.437 L198.4697,25.437 L197.7227,28.5 L195.2739,28.5 Z " fill="#000000"/><text fill="#000000" font-family="sans-serif" font-size="12" font-style="italic" lengthAdjust="spacing" textLength="114" x="220.75" y="27.5352">ServiceTaskElement</text><line style="stroke:#A80036;stroke-width:1.5;" x1="10" x2="513" y1="39" y2="39"/><ellipse cx="20" cy="50" rx="3" ry="3" style="stroke:#038048;stroke-width:1.0;fill:none;"/><text fill="#000000" font-family="sans-serif" font-size="11" lengthAdjust="spacing" textLength="159" x="29" y="53.6348">attributes : RecordOfAnyType</text><ellipse cx="20" cy="62.9551" rx="3" ry="3" style="stroke:#038048;stroke-width:1.0;fill:none;"/><text fill="#000000" font-family="sans-serif" font-size="11" lengthAdjust="spacing" textLength="51" x="29" y="66.5898">id : string</text><ellipse cx="20" cy="75.9102" rx="3" ry="3" style="stroke:#038048;stroke-width:1.0;fill:none;"/><text fill="#000000" font-family="sans-serif" font-size="11" lengthAdjust="spacing" textLength="113" x="29" y="79.5449">inputs : ElementInput</text><ellipse cx="20" cy="88.8652" rx="3" ry="3" style="stroke:#038048;stroke-width:1.0;fill:none;"/><text fill="#000000" font-family="sans-serif" font-size="11" lengthAdjust="spacing" textLength="70" x="29" y="92.5">name : string</text><ellipse cx="20" cy="101.8203" rx="3" ry="3" style="stroke:#038048;stroke-width:1.0;fill:none;"/><text fill="#000000" font-family="sans-serif" font-size="11" lengthAdjust="spacing" textLength="83" x="29" y="105.4551">outputs : string</text><ellipse cx="20" cy="114.7754" rx="3" ry="3" style="stroke:#038048;stroke-width:1.0;fill:none;"/><text fill="#000000" font-family="sans-serif" font-size="11" lengthAdjust="spacing" textLength="58" x="29" y="118.4102">tag : string</text><ellipse cx="20" cy="127.7305" rx="3" ry="3" style="stroke:#038048;stroke-width:1.0;fill:none;"/><text fill="#000000" font-family="sans-serif" font-size="11" lengthAdjust="spacing" textLength="106" x="29" y="131.3652">type : ElementTypes</text><polygon fill="none" points="20,135.6855,24,139.6855,20,143.6855,16,139.6855" style="stroke:#B38D22;stroke-width:1.0;"/><text fill="#000000" font-family="sans-serif" font-size="11" lengthAdjust="spacing" textLength="226" x="29" y="144.3203">creator : CreateStrategy&lt;ModdleElement&gt;</text><polygon fill="none" points="20,148.6406,24,152.6406,20,156.6406,16,152.6406" style="stroke:#B38D22;stroke-width:1.0;"/><text fill="#000000" font-family="sans-serif" font-size="11" lengthAdjust="spacing" textLength="204" x="29" y="157.2754">linker : LinkStrategy&lt;ModdleElement&gt;</text><line style="stroke:#A80036;stroke-width:1.5;" x1="10" x2="513" y1="163.5957" y2="163.5957"/><ellipse cx="20" cy="174.5957" fill="#84BE84" rx="3" ry="3" style="stroke:#038048;stroke-width:1.0;"/><text fill="#000000" font-family="sans-serif" font-size="11" lengthAdjust="spacing" textLength="479" x="29" y="178.2305">create(node: StatementNode&lt;ModdleElement&gt;, attrs: RecordOfAnyType) : ModdleElement</text><ellipse cx="20" cy="187.5508" fill="#84BE84" rx="3" ry="3" style="stroke:#038048;stroke-width:1.0;"/><text fill="#000000" font-family="sans-serif" font-size="11" lengthAdjust="spacing" textLength="338" x="29" y="191.1855">link(node: StatementNode&lt;ModdleElement&gt;) : ModdleElement[]</text><!--MD5=[bccc185c1b82599b1094951fb45fad75]
reverse link ServiceTaskElement to TriggerWhenColumnChanges--><path codeLine="31" d="M261.5,218.5 C261.5,231.53 261.5,244.77 261.5,257.69 " fill="none" id="ServiceTaskElement-backto-TriggerWhenColumnChanges" style="stroke:#A80036;stroke-width:1.0;"/><polygon fill="none" points="254.5,218.28,261.5,198.28,268.5,218.28,254.5,218.28" style="stroke:#A80036;stroke-width:1.0;"/><!--MD5=[7f5a081c082039e089249514cf9453f6]
@startuml
hide empty methods
hide empty fields
class "TriggerWhenColumnChanges" {
    +attributes : RecordOfAnyType
    +id : string
    +inputs : object
    +name : string
    +outputs : string
    +properties : object
    +tag : string
    +type : ElementTypes
    +utils : UtilsService
    #creator : CreateStrategy<ModdleElement>
    #linker : LinkStrategy<ModdleElement>
    +create(node: StatementNode<ModdleElement>, attrs: RecordOfAnyType) : ModdleElement
    +link(node: StatementNode<ModdleElement>) : ModdleElement[]
}
abstract class "ServiceTaskElement" {
    +attributes : RecordOfAnyType
    +id : string
    +inputs : ElementInput
    +name : string
    +outputs : string
    +tag : string
    +type : ElementTypes
    #creator : CreateStrategy<ModdleElement>
    #linker : LinkStrategy<ModdleElement>
    +create(node: StatementNode<ModdleElement>, attrs: RecordOfAnyType) : ModdleElement
    +link(node: StatementNode<ModdleElement>) : ModdleElement[]
}
"ServiceTaskElement" <|- - "TriggerWhenColumnChanges"
@enduml

PlantUML version 1.2021.14(Fri Nov 12 22:16:50 IST 2021)
(GPL source distribution)
Java Runtime: OpenJDK Runtime Environment
JVM: OpenJDK 64-Bit Server VM
Default Encoding: UTF-8
Language: en
Country: IN
--></g></svg>