<?xml version="1.0" encoding="UTF-8" standalone="no"?><svg xmlns="http://www.w3.org/2000/svg" xmlns:xlink="http://www.w3.org/1999/xlink" contentScriptType="application/ecmascript" contentStyleType="text/css" height="546px" preserveAspectRatio="none" style="width:252px;height:546px;background:#FFFFFF;" version="1.1" viewBox="0 0 252 546" width="252px" zoomAndPan="magnify"><defs><filter height="300%" id="f1sm8h68b3dh0g" width="300%" x="-1" y="-1"><feGaussianBlur result="blurOut" stdDeviation="2.0"/><feColorMatrix in="blurOut" result="blurOut2" type="matrix" values="0 0 0 0 0 0 0 0 0 0 0 0 0 0 0 0 0 0 .4 0"/><feOffset dx="4.0" dy="4.0" in="blurOut2" result="blurOut3"/><feBlend in="SourceGraphic" in2="blurOut3" mode="normal"/></filter></defs><g><!--MD5=[cd946b344fb274ed5c26499c471a4145]
class ValueInput--><rect codeLine="3" fill="#FEFECE" filter="url(#f1sm8h68b3dh0g)" height="190.5059" id="ValueInput" style="stroke:#A80036;stroke-width:1.5;" width="231" x="7" y="91"/><ellipse cx="87.75" cy="107" fill="#ADD1B2" rx="11" ry="11" style="stroke:#A80036;stroke-width:1.0;"/><path d="M90.2231,113.1431 Q89.6421,113.4419 89.0029,113.5913 Q88.3638,113.7407 87.6582,113.7407 Q85.1514,113.7407 83.8315,112.0889 Q82.5117,110.437 82.5117,107.3159 Q82.5117,104.1865 83.8315,102.5347 Q85.1514,100.8828 87.6582,100.8828 Q88.3638,100.8828 89.0112,101.0322 Q89.6587,101.1816 90.2231,101.4805 L90.2231,104.2031 Q89.5923,103.6221 88.9988,103.3523 Q88.4053,103.0825 87.7744,103.0825 Q86.4297,103.0825 85.7449,104.1492 Q85.0601,105.2158 85.0601,107.3159 Q85.0601,109.4077 85.7449,110.4744 Q86.4297,111.541 87.7744,111.541 Q88.4053,111.541 88.9988,111.2712 Q89.5923,111.0015 90.2231,110.4204 Z " fill="#000000"/><text fill="#000000" font-family="sans-serif" font-size="12" lengthAdjust="spacing" textLength="61" x="108.25" y="111.5352">ValueInput</text><line style="stroke:#A80036;stroke-width:1.5;" x1="8" x2="237" y1="123" y2="123"/><ellipse cx="18" cy="134" rx="3" ry="3" style="stroke:#038048;stroke-width:1.0;fill:none;"/><text fill="#000000" font-family="sans-serif" font-size="11" lengthAdjust="spacing" textLength="88" x="27" y="137.6348">inputKey : string</text><ellipse cx="18" cy="146.9551" rx="3" ry="3" style="stroke:#038048;stroke-width:1.0;fill:none;"/><text fill="#000000" font-family="sans-serif" font-size="11" lengthAdjust="spacing" textLength="112" x="27" y="150.5898">listNameField : string</text><ellipse cx="18" cy="159.9102" rx="3" ry="3" style="stroke:#038048;stroke-width:1.0;fill:none;"/><text fill="#000000" font-family="sans-serif" font-size="11" lengthAdjust="spacing" textLength="111" x="27" y="163.5449">listValueField : string</text><ellipse cx="18" cy="172.8652" rx="3" ry="3" style="stroke:#038048;stroke-width:1.0;fill:none;"/><text fill="#000000" font-family="sans-serif" font-size="11" lengthAdjust="spacing" textLength="104" x="27" y="176.5">placeholder : string</text><ellipse cx="18" cy="185.8203" rx="3" ry="3" style="stroke:#038048;stroke-width:1.0;fill:none;"/><text fill="#000000" font-family="sans-serif" font-size="11" lengthAdjust="spacing" textLength="116" x="27" y="189.4551">prefix : string | object</text><ellipse cx="18" cy="198.7754" rx="3" ry="3" style="stroke:#038048;stroke-width:1.0;fill:none;"/><text fill="#000000" font-family="sans-serif" font-size="11" lengthAdjust="spacing" textLength="72" x="27" y="202.4102">suffix : string</text><line style="stroke:#A80036;stroke-width:1.5;" x1="8" x2="237" y1="208.7305" y2="208.7305"/><ellipse cx="18" cy="219.7305" fill="#84BE84" rx="3" ry="3" style="stroke:#038048;stroke-width:1.0;"/><text fill="#000000" font-family="sans-serif" font-size="11" lengthAdjust="spacing" textLength="46" x="27" y="223.3652">getValue</text><text fill="#000000" font-family="sans-serif" font-size="11" lengthAdjust="spacing" text-decoration="line-through" textLength="62" x="73" y="223.3652">(state: State</text><text fill="#000000" font-family="sans-serif" font-size="11" lengthAdjust="spacing" text-decoration="line-through" textLength="65" x="135" y="223.3652">) : S[keyof S]</text><ellipse cx="18" cy="232.6855" fill="#84BE84" rx="3" ry="3" style="stroke:#038048;stroke-width:1.0;"/><text fill="#000000" font-family="sans-serif" font-size="11" lengthAdjust="spacing" textLength="76" x="27" y="236.3203">getValueName</text><text fill="#000000" font-family="sans-serif" font-size="11" lengthAdjust="spacing" text-decoration="line-through" textLength="62" x="103" y="236.3203">(state: State</text><text fill="#000000" font-family="sans-serif" font-size="11" lengthAdjust="spacing" text-decoration="line-through" textLength="65" x="165" y="236.3203">) : S[keyof S]</text><ellipse cx="18" cy="245.6406" fill="#84BE84" rx="3" ry="3" style="stroke:#038048;stroke-width:1.0;"/><text fill="#000000" font-family="sans-serif" font-size="11" lengthAdjust="spacing" textLength="41" x="27" y="249.2754">options</text><text fill="#000000" font-family="sans-serif" font-size="11" lengthAdjust="spacing" text-decoration="line-through" textLength="62" x="68" y="249.2754">(state: State</text><text fill="#000000" font-family="sans-serif" font-size="11" lengthAdjust="spacing" text-decoration="line-through" textLength="21" x="130" y="249.2754">) : []</text><ellipse cx="18" cy="258.5957" fill="#84BE84" rx="3" ry="3" style="stroke:#038048;stroke-width:1.0;"/><text fill="#000000" font-family="sans-serif" font-size="11" lengthAdjust="spacing" textLength="63" x="27" y="262.2305">prevchange</text><text fill="#000000" font-family="sans-serif" font-size="11" lengthAdjust="spacing" text-decoration="line-through" textLength="62" x="90" y="262.2305">(state: State</text><text fill="#000000" font-family="sans-serif" font-size="11" lengthAdjust="spacing" text-decoration="line-through" textLength="36" x="152" y="262.2305">) : void</text><ellipse cx="18" cy="271.5508" fill="#84BE84" rx="3" ry="3" style="stroke:#038048;stroke-width:1.0;"/><text fill="#000000" font-family="sans-serif" font-size="11" lengthAdjust="spacing" textLength="70" x="27" y="275.1855">typeFunction</text><text fill="#000000" font-family="sans-serif" font-size="11" lengthAdjust="spacing" text-decoration="line-through" textLength="62" x="97" y="275.1855">(state: State</text><text fill="#000000" font-family="sans-serif" font-size="11" lengthAdjust="spacing" text-decoration="line-through" textLength="73" x="159" y="275.1855">) : InputTypes</text><!--MD5=[a5054da9f56c5cf8903cfb1c8a899eec]
class WorkflowListPrompt--><rect codeLine="16" fill="#FEFECE" filter="url(#f1sm8h68b3dh0g)" height="24.1328" id="WorkflowListPrompt" style="stroke:#A80036;stroke-width:1.5;" width="119" x="63" y="7"/><text fill="#000000" font-family="sans-serif" font-size="12" lengthAdjust="spacing" textLength="113" x="66" y="23.6016">WorkflowListPrompt</text><!--MD5=[2284c4e0617724caef5df0168c796a36]
class ToValueInput--><rect codeLine="19" fill="#FEFECE" filter="url(#f1sm8h68b3dh0g)" height="190.5059" id="ToValueInput" style="stroke:#A80036;stroke-width:1.5;" width="231" x="7" y="342"/><ellipse cx="80.25" cy="358" fill="#ADD1B2" rx="11" ry="11" style="stroke:#A80036;stroke-width:1.0;"/><path d="M82.7231,364.1431 Q82.1421,364.4419 81.5029,364.5913 Q80.8638,364.7407 80.1582,364.7407 Q77.6514,364.7407 76.3315,363.0889 Q75.0117,361.437 75.0117,358.3159 Q75.0117,355.1865 76.3315,353.5347 Q77.6514,351.8828 80.1582,351.8828 Q80.8638,351.8828 81.5112,352.0322 Q82.1587,352.1816 82.7231,352.4805 L82.7231,355.2031 Q82.0923,354.6221 81.4988,354.3523 Q80.9053,354.0825 80.2744,354.0825 Q78.9297,354.0825 78.2449,355.1492 Q77.5601,356.2158 77.5601,358.3159 Q77.5601,360.4077 78.2449,361.4744 Q78.9297,362.541 80.2744,362.541 Q80.9053,362.541 81.4988,362.2712 Q82.0923,362.0015 82.7231,361.4204 Z " fill="#000000"/><text fill="#000000" font-family="sans-serif" font-size="12" lengthAdjust="spacing" textLength="76" x="100.75" y="362.5352">ToValueInput</text><line style="stroke:#A80036;stroke-width:1.5;" x1="8" x2="237" y1="374" y2="374"/><ellipse cx="18" cy="385" rx="3" ry="3" style="stroke:#038048;stroke-width:1.0;fill:none;"/><text fill="#000000" font-family="sans-serif" font-size="11" lengthAdjust="spacing" textLength="88" x="27" y="388.6348">inputKey : string</text><ellipse cx="18" cy="397.9551" rx="3" ry="3" style="stroke:#038048;stroke-width:1.0;fill:none;"/><text fill="#000000" font-family="sans-serif" font-size="11" lengthAdjust="spacing" textLength="112" x="27" y="401.5898">listNameField : string</text><ellipse cx="18" cy="410.9102" rx="3" ry="3" style="stroke:#038048;stroke-width:1.0;fill:none;"/><text fill="#000000" font-family="sans-serif" font-size="11" lengthAdjust="spacing" textLength="111" x="27" y="414.5449">listValueField : string</text><ellipse cx="18" cy="423.8652" rx="3" ry="3" style="stroke:#038048;stroke-width:1.0;fill:none;"/><text fill="#000000" font-family="sans-serif" font-size="11" lengthAdjust="spacing" textLength="104" x="27" y="427.5">placeholder : string</text><ellipse cx="18" cy="436.8203" rx="3" ry="3" style="stroke:#038048;stroke-width:1.0;fill:none;"/><text fill="#000000" font-family="sans-serif" font-size="11" lengthAdjust="spacing" textLength="73" x="27" y="440.4551">prefix : string</text><ellipse cx="18" cy="449.7754" rx="3" ry="3" style="stroke:#038048;stroke-width:1.0;fill:none;"/><text fill="#000000" font-family="sans-serif" font-size="11" lengthAdjust="spacing" textLength="72" x="27" y="453.4102">suffix : string</text><line style="stroke:#A80036;stroke-width:1.5;" x1="8" x2="237" y1="459.7305" y2="459.7305"/><ellipse cx="18" cy="470.7305" fill="#84BE84" rx="3" ry="3" style="stroke:#038048;stroke-width:1.0;"/><text fill="#000000" font-family="sans-serif" font-size="11" lengthAdjust="spacing" textLength="46" x="27" y="474.3652">getValue</text><text fill="#000000" font-family="sans-serif" font-size="11" lengthAdjust="spacing" text-decoration="line-through" textLength="62" x="73" y="474.3652">(state: State</text><text fill="#000000" font-family="sans-serif" font-size="11" lengthAdjust="spacing" text-decoration="line-through" textLength="65" x="135" y="474.3652">) : S[keyof S]</text><ellipse cx="18" cy="483.6855" fill="#84BE84" rx="3" ry="3" style="stroke:#038048;stroke-width:1.0;"/><text fill="#000000" font-family="sans-serif" font-size="11" lengthAdjust="spacing" textLength="76" x="27" y="487.3203">getValueName</text><text fill="#000000" font-family="sans-serif" font-size="11" lengthAdjust="spacing" text-decoration="line-through" textLength="62" x="103" y="487.3203">(state: State</text><text fill="#000000" font-family="sans-serif" font-size="11" lengthAdjust="spacing" text-decoration="line-through" textLength="65" x="165" y="487.3203">) : S[keyof S]</text><ellipse cx="18" cy="496.6406" fill="#84BE84" rx="3" ry="3" style="stroke:#038048;stroke-width:1.0;"/><text fill="#000000" font-family="sans-serif" font-size="11" lengthAdjust="spacing" textLength="41" x="27" y="500.2754">options</text><text fill="#000000" font-family="sans-serif" font-size="11" lengthAdjust="spacing" text-decoration="line-through" textLength="62" x="68" y="500.2754">(state: State</text><text fill="#000000" font-family="sans-serif" font-size="11" lengthAdjust="spacing" text-decoration="line-through" textLength="21" x="130" y="500.2754">) : []</text><ellipse cx="18" cy="509.5957" fill="#84BE84" rx="3" ry="3" style="stroke:#038048;stroke-width:1.0;"/><text fill="#000000" font-family="sans-serif" font-size="11" lengthAdjust="spacing" textLength="63" x="27" y="513.2305">prevchange</text><text fill="#000000" font-family="sans-serif" font-size="11" lengthAdjust="spacing" text-decoration="line-through" textLength="62" x="90" y="513.2305">(state: State</text><text fill="#000000" font-family="sans-serif" font-size="11" lengthAdjust="spacing" text-decoration="line-through" textLength="36" x="152" y="513.2305">) : void</text><ellipse cx="18" cy="522.5508" fill="#84BE84" rx="3" ry="3" style="stroke:#038048;stroke-width:1.0;"/><text fill="#000000" font-family="sans-serif" font-size="11" lengthAdjust="spacing" textLength="70" x="27" y="526.1855">typeFunction</text><text fill="#000000" font-family="sans-serif" font-size="11" lengthAdjust="spacing" text-decoration="line-through" textLength="62" x="97" y="526.1855">(state: State</text><text fill="#000000" font-family="sans-serif" font-size="11" lengthAdjust="spacing" text-decoration="line-through" textLength="73" x="159" y="526.1855">) : InputTypes</text><!--MD5=[5e285691f6913ab7e0e4c856c17d5852]
reverse link WorkflowListPrompt to ValueInput--><path codeLine="18" d="M122.5,51.21 C122.5,62.82 122.5,76.67 122.5,90.99 " fill="none" id="WorkflowListPrompt-backto-ValueInput" style="stroke:#A80036;stroke-width:1.0;"/><polygon fill="none" points="115.5,51.12,122.5,31.12,129.5,51.12,115.5,51.12" style="stroke:#A80036;stroke-width:1.0;"/><!--MD5=[243e32799154cf51bfb5ff59b5d5e4c6]
reverse link ValueInput to ToValueInput--><path codeLine="32" d="M122.5,302.75 C122.5,315.87 122.5,329.12 122.5,341.92 " fill="none" id="ValueInput-backto-ToValueInput" style="stroke:#A80036;stroke-width:1.0;"/><polygon fill="none" points="115.5,302.35,122.5,282.35,129.5,302.35,115.5,302.35" style="stroke:#A80036;stroke-width:1.0;"/><!--MD5=[28d12c23fe9c9aafb00adc4d6fe074f5]
@startuml
hide empty methods
hide empty fields
class "ValueInput" {
    +inputKey : string
    +listNameField : string
    +listValueField : string
    +placeholder : string
    +prefix : string | object
    +suffix : string
    +getValue<S>(state: State<S>) : S[keyof S]
    +getValueName<S>(state: State<S>) : S[keyof S]
    +options<S>(state: State<S>) : []
    +prevchange<S>(state: State<S>) : void
    +typeFunction<S>(state: State<S>) : InputTypes
}
class "WorkflowListPrompt"
hide "WorkflowListPrompt" circle
"WorkflowListPrompt" <|- - "ValueInput"
class "ToValueInput" {
    +inputKey : string
    +listNameField : string
    +listValueField : string
    +placeholder : string
    +prefix : string
    +suffix : string
    +getValue<S>(state: State<S>) : S[keyof S]
    +getValueName<S>(state: State<S>) : S[keyof S]
    +options<S>(state: State<S>) : []
    +prevchange<S>(state: State<S>) : void
    +typeFunction<S>(state: State<S>) : InputTypes
}
"ValueInput" <|- - "ToValueInput"
@enduml

PlantUML version 1.2021.14(Fri Nov 12 22:16:50 IST 2021)
(GPL source distribution)
Java Runtime: OpenJDK Runtime Environment
JVM: OpenJDK 64-Bit Server VM
Default Encoding: UTF-8
Language: en
Country: IN
--></g></svg>